<svg width="112" height="22" viewBox="0 0 112 22" fill="none" xmlns="http://www.w3.org/2000/svg">
<path d="M11.3422 0.00111121H4.7326V0.520052H6.87545V11.0867C6.87545 14.2914 5.98279 15.1571 3.92932 15.1571C2.67914 15.1571 2.41099 14.2048 2.41099 13.7714C2.41099 12.6457 2.32161 11.8668 1.24904 11.8668C0.177616 11.8668 0 12.9057 0 13.2524C0 14.7248 0.713902 15.8505 3.66118 15.8505C7.23412 15.8505 9.10883 14.7248 9.10883 10.8278V0.518941H11.2528V0.00111121H11.3422ZM12.236 13.4247C11.8785 13.4247 11.521 13.5136 11.3422 13.7714C11.0741 14.0314 10.9847 14.2914 10.9847 14.6381C10.9847 14.9826 11.0741 15.2438 11.3422 15.5049C11.6104 15.7638 11.8785 15.8494 12.236 15.8494C12.5924 15.8494 12.8605 15.7627 13.1287 15.5049C13.3968 15.2449 13.4862 14.9826 13.4862 14.6381C13.4862 14.2914 13.3968 14.0314 13.1287 13.7714C12.8605 13.5114 12.5924 13.4247 12.2349 13.4247H12.236ZM26.883 13.4247C26.5255 13.4247 26.2574 13.5136 25.9892 13.7714C25.7222 14.0314 25.6328 14.2914 25.6328 14.6381C25.6328 14.9826 25.7222 15.2438 25.9892 15.5049C26.2574 15.7638 26.5255 15.8494 26.883 15.8494C27.2406 15.8494 27.5969 15.7627 27.7768 15.5049C28.0438 15.2438 28.1332 14.9826 28.1332 14.6381C28.1332 14.2914 28.0438 14.0314 27.7757 13.7714C27.5075 13.5114 27.2405 13.4247 26.8819 13.4247H26.883ZM22.2375 0.00111121H15.8067V0.520052H17.6825V12.6468C17.6825 13.5992 17.5931 13.8581 17.5038 14.1181C17.4144 14.4659 17.1462 14.6393 16.6993 14.8126C16.4323 14.8993 15.9854 14.9848 15.3598 14.9848V15.5049H22.3269V14.9848C21.7012 14.9848 21.2555 14.8993 20.9862 14.8126C20.5404 14.6393 20.2723 14.3792 20.184 14.1192C20.0648 13.815 20.0038 13.4923 20.0041 13.1669V9.00758H21.7012C26.7031 9.00758 28.1321 7.10294 28.1321 4.50379C28.1321 1.81907 27.3288 0 22.2375 0V0.00111121ZM21.3437 8.40196H20.0041V0.606728H21.1661C25.006 0.606728 25.8987 2.16577 25.8987 4.59046C25.8987 7.10183 24.3815 8.40196 21.3437 8.40196ZM48.7642 14.0314C48.6464 13.6969 48.586 13.3459 48.5854 12.9924V0.520052H50.2813V0.00111121H46.1756C46.0862 0.174462 41.2642 11.7801 41.2642 11.7801L41.1748 11.8679C41.0854 11.8679 41.0854 11.8679 41.0854 11.7812C41.0854 11.7812 35.9059 0.0877866 35.9059 0.00111121H31.3475V0.521164H33.3127V13.6858C33.3127 13.947 33.2233 14.207 33.0446 14.4659C32.8658 14.7259 32.5977 14.8993 32.3295 14.9848C32.1508 15.0737 31.7944 15.0737 31.4357 15.0737V15.5916H35.9025V15.0715C35.545 15.0715 35.3662 14.9848 35.0992 14.9848C34.7417 14.8982 34.5629 14.7248 34.3841 14.4648C34.2054 14.2914 34.116 14.0314 34.116 13.6858L34.0266 12.559V2.16466H34.2948C34.2948 2.16466 40.0999 15.3293 40.1893 15.5027H40.6362L46.1733 2.25245H46.352V12.9924C46.352 13.4258 46.2626 13.7714 46.1733 14.1181C46.0839 14.4648 45.8169 14.6381 45.4594 14.8115C45.0852 14.9318 44.6927 14.9901 44.2986 14.9837V15.5038H50.5506V14.9837C50.1561 14.9901 49.7632 14.9319 49.3887 14.8115C49.1217 14.6381 48.8535 14.3781 48.7642 14.0314ZM57.2485 4.1582C53.8543 4.1582 51.8008 6.32286 51.8008 10.0477C51.8008 15.5905 56.2664 15.9372 57.1591 15.9372C59.0349 15.9372 62.6079 14.8115 62.6079 9.96212C62.6079 6.15062 60.2851 4.1582 57.2485 4.1582ZM57.1591 15.2438C54.6587 15.2438 54.2118 14.0325 54.2118 10.1344C54.2118 7.10294 54.3906 4.85049 57.1591 4.85049C60.1064 4.85049 60.1064 7.1885 60.1064 9.95989C60.1064 13.8581 59.3925 15.2438 57.1591 15.2438ZM71.3615 4.33155C69.3951 4.33155 68.6824 5.45722 68.1449 6.66956H67.9662C67.9662 6.66956 67.6992 4.93717 67.6098 4.50379H63.6793V5.11052H65.8222V12.7324C65.8222 13.5114 65.7339 14.0325 65.5563 14.377C65.3764 14.7248 64.8401 14.9837 64.0368 14.9837H63.6793V15.6771H70.2889V14.9837H69.9314C69.0376 14.9837 68.6824 14.8115 68.5013 14.4648C68.3237 14.1181 68.2343 13.598 68.2343 12.8191V8.66199C68.2343 7.36186 69.3057 5.80392 70.5571 5.80392C71.8966 5.80392 71.8061 7.70856 73.3256 6.92959C74.0406 6.49621 73.8619 4.33155 71.3615 4.33155ZM97.3507 14.377C96.6357 14.377 96.458 14.0325 96.3687 13.3391V7.27629C96.3687 6.23619 96.1888 5.63057 95.5654 5.02273C94.9397 4.41711 93.7778 4.15598 92.0818 4.15598C90.4741 4.15598 89.3133 4.41711 88.5089 5.02273C87.795 5.54389 87.4386 6.06283 87.4386 6.84291C87.4386 7.18739 87.528 7.44853 87.7056 7.53521C87.8844 7.70856 88.1525 7.79523 88.4195 7.79523C89.044 7.79523 89.4027 7.45075 89.5803 6.66956C89.672 6.06283 89.8484 5.71724 90.1177 5.36943C90.473 5.02495 91.0115 4.85049 91.6349 4.85049C92.4393 4.85049 93.0639 5.02273 93.332 5.45611C93.6001 5.88948 93.7789 6.40954 93.7789 7.10072V8.9209C91.7231 9.09425 86.7224 9.52652 86.9905 13.1647C87.0799 14.5504 88.3313 15.8494 90.0272 15.8494C91.9031 15.8494 93.0627 14.8115 93.866 14.0303C93.9565 14.8104 94.7598 15.7638 96.1005 15.7638C97.6177 15.7638 98.5115 15.0704 98.602 13.2513H98.2445C98.2445 13.9447 97.7976 14.3781 97.3507 14.3781V14.377ZM93.9577 13.1658V13.2524L93.8683 13.3391C92.7969 14.2926 91.9042 14.6393 91.2785 14.6393C89.6708 14.6393 89.4027 13.3391 89.4027 12.7335C89.4027 10.6555 92.35 9.61542 93.9577 9.61542V13.1658ZM110.749 14.2914C110.57 13.9459 110.302 13.4247 110.302 12.6468V7.62188C110.302 6.92959 110.212 6.23619 109.944 5.80392C109.676 5.28387 109.23 4.93717 108.783 4.67714C108.247 4.41711 107.712 4.33155 107.088 4.33155C104.765 4.33155 103.871 5.71724 103.336 6.49621H103.157L102.71 4.50379H99.1372V5.11052H100.925V12.7324C100.925 13.3391 100.834 13.7714 100.745 14.0325C100.654 14.377 100.39 14.6381 100.12 14.7248C99.9416 14.8115 99.5841 14.8982 99.1372 14.8982V15.5905H104.764V14.8982C104.227 14.8115 103.78 14.7248 103.603 14.4648C103.424 14.2048 103.246 13.6847 103.246 12.9057V9.96101C103.246 8.74977 103.246 7.53521 103.693 6.84291C104.139 6.06283 105.032 5.63057 105.926 5.63057C106.819 5.63057 107.265 5.89059 107.534 6.40954C107.801 6.84291 107.89 8.14193 107.89 9.00758V12.6457C107.89 13.2513 107.981 13.6847 107.89 13.9459C107.801 14.2903 107.712 14.5515 107.443 14.7237C107.265 14.8982 106.906 14.8982 106.55 14.9837V15.6771H112V14.9837C111.373 14.7248 110.927 14.5504 110.749 14.2914ZM85.2052 3.63815C84.8477 3.72482 84.6689 4.07152 84.4902 4.5049C84.4008 4.93828 84.222 5.19719 83.9539 5.28276C83.6857 5.37054 83.4187 5.37054 83.1506 5.19719C82.5261 4.67714 81.4535 4.07152 79.4883 4.07152C76.2729 4.07152 74.9333 6.23619 74.9333 8.2275C74.9333 10.5666 75.8271 11.6934 77.8794 12.1257C77.9699 12.1257 77.9699 12.299 77.8794 12.299C76.1835 12.6457 74.5758 13.1658 74.5758 14.7248C74.5758 15.6782 75.112 16.1972 75.9165 16.5439C76.7186 16.8895 77.8794 17.0639 79.3095 17.0639C80.5586 17.0639 81.4524 17.1506 81.9887 17.1506C82.527 17.2179 83.0445 17.3952 83.507 17.6707C83.8645 17.9307 84.0433 18.3641 84.0433 18.8819C84.0433 19.662 83.5964 20.182 82.7931 20.7021C81.9909 21.1355 81.0055 21.3088 79.667 21.3088C78.5956 21.3088 77.6136 21.221 76.8091 20.7021C76.1846 20.3554 76.0941 19.6631 76.1846 19.143C76.2751 18.623 76.0941 18.1041 75.4696 17.9307C75.2796 17.8901 75.0811 17.9104 74.904 17.9885C74.7269 18.0667 74.5807 18.1985 74.4875 18.3641C74.3076 18.6219 74.2182 18.9686 74.2182 19.402C74.2182 20.701 75.2908 21.3066 76.0941 21.5666C77.3443 21.9122 78.1499 22 79.2201 22C80.7396 22 81.8993 21.74 82.7931 21.3933C83.6869 20.9599 84.2232 20.441 84.5795 19.8342C84.9359 19.2286 85.1158 18.6219 85.1158 18.0152C85.1158 17.2362 84.9359 16.5428 84.5795 16.1105C83.4187 14.6381 81.8099 14.8104 78.2381 14.6381C76.541 14.6381 76.1835 14.2914 76.1835 13.7714C76.1835 12.9924 76.8091 12.7324 79.3095 12.299C81.8099 11.9523 84.1315 11 84.1315 8.14193C84.1315 7.27518 83.9539 6.58289 83.6846 6.06395C84.222 6.14951 84.6689 6.14951 85.1147 6.06395C85.6521 5.8906 85.918 5.63057 86.0979 5.37054C86.2766 5.02384 86.3649 4.67714 86.1873 4.41711C86.2766 3.72482 85.8297 3.46479 85.2052 3.63815ZM79.5788 11.7801C78.0616 11.7801 77.256 11.2589 77.256 8.31528C77.256 6.2373 77.9711 4.67714 79.5788 4.67714C81.4547 4.67714 81.9898 6.06283 81.9898 8.22861C81.9898 11.3467 81.0078 11.7801 79.5788 11.7801Z" fill="#854925"/>
</svg>
