<svg width="113" height="29" viewBox="0 0 113 29" fill="none" xmlns="http://www.w3.org/2000/svg">
<path fill-rule="evenodd" clip-rule="evenodd" d="M0 0.638672V22.4129L18.4102 28.7065L36.8637 22.4129V0.638672H0Z" fill="#BF4956"/>
<path fill-rule="evenodd" clip-rule="evenodd" d="M18.3671 21.7213H12.719V19.7812C11.5979 21.3328 10.003 22.1519 7.71755 22.1519C5.00156 22.1519 2.41406 20.4711 2.41406 16.9355V6.41498H8.27779V14.5203C8.27779 16.2455 8.49337 17.4951 10.2186 17.4951C11.1673 17.4951 12.5034 17.0207 12.5034 14.5203V6.41498H18.3671V21.7213ZM29.2755 10.8994C29.1891 10.3818 29.0167 10.0371 28.5856 9.7783C28.2403 9.43301 27.7659 9.26068 27.2483 9.26068C26.5157 9.26068 25.5237 9.47687 25.5237 10.4683C25.5237 10.9426 25.8684 11.1582 26.2137 11.2879C27.205 11.7185 29.404 11.8049 31.3874 12.4949C33.2411 13.099 34.9657 14.2195 34.9657 16.7205C34.9657 20.9888 30.9557 22.1531 27.2044 22.1531C23.5829 22.1531 19.6593 20.6873 19.5302 16.7205H25.0932C25.1796 17.2814 25.3952 17.7119 25.869 18.1004C26.1278 18.3154 26.6887 18.531 27.4212 18.531C28.1544 18.531 29.4046 18.2728 29.4046 17.3666C29.4046 16.4617 28.8444 16.2461 26.1278 15.7717C21.6872 14.9959 19.8755 13.5295 19.8755 10.9426C19.8755 7.06232 24.0579 6.07031 27.1192 6.07031C30.4819 6.07031 34.4487 6.97585 34.5784 10.8994H29.2755Z" fill="white"/>
<path fill-rule="evenodd" clip-rule="evenodd" d="M38.8912 0.724609H44.7117V8.09736H44.7982C45.7037 6.84715 47.256 6.07134 48.9806 6.07134C54.1117 6.07134 55.5343 10.3822 55.5343 14.0049C55.5343 17.8414 53.4218 22.1529 49.1097 22.1529C46.2646 22.1529 45.3591 21.0324 44.5826 20.0836H44.5394V21.7217H38.8906V0.724609H38.8912ZM47.083 10.3396C45.0132 10.3396 44.5394 12.2797 44.5394 14.0908C44.5394 15.9019 45.0138 17.9285 47.083 17.9285C49.1955 17.9285 49.6699 15.9019 49.6699 14.0908C49.6699 12.2797 49.1962 10.3396 47.083 10.3396ZM71.7894 18.3158C71.7894 19.5234 71.8753 20.7742 72.4781 21.723H66.5718C66.4427 21.3344 66.3136 20.6877 66.3556 20.2572H66.3136C65.0628 21.723 63.2517 22.1535 61.3554 22.1535C58.4226 22.1535 56.0087 20.6877 56.0087 17.4967C56.0087 12.7115 61.6574 12.8406 64.6322 12.2803C65.408 12.1513 66.2271 11.9357 66.2271 10.9437C66.2271 9.90904 65.279 9.47789 64.2869 9.47789C62.4759 9.47789 62.1312 10.3828 62.1312 11.0734H56.6986C56.8277 6.76129 60.9236 6.07195 64.5464 6.07195C71.8753 6.07195 71.79 9.08998 71.79 12.0648V18.3158H71.7894ZM66.2265 14.8679C65.5069 15.2277 64.7363 15.4748 63.9417 15.6004C62.605 15.9019 61.915 16.2472 61.915 17.2824C61.915 17.9724 62.6921 18.6611 63.7261 18.6611C65.0628 18.6611 66.098 17.9285 66.2271 16.2904V14.8679H66.2265ZM73.9019 6.41601H79.5068V8.35617H79.5927C80.7132 6.84715 82.2228 6.07134 84.5947 6.07134C87.3113 6.07134 89.8111 7.75269 89.8111 11.2451V21.7224H83.9912V13.7455C83.9912 11.9351 83.7751 10.7275 82.0937 10.7275C81.0585 10.7275 79.723 11.2445 79.723 13.6597V21.7224H73.9019V6.41601ZM91.9249 0.724609H97.7441V10.9004L101.453 6.41601H108.05L102.617 12.1939L108.869 21.7224H101.84L98.7794 16.2465L97.7441 17.3676V21.7224H91.9249V0.724609ZM111.542 19.6525C111.757 19.8687 111.8 20.1281 111.8 20.4728C111.8 20.7742 111.757 21.0324 111.542 21.2486C111.239 21.55 111.024 21.5939 110.68 21.5939C110.42 21.5939 110.119 21.5506 109.946 21.2486C109.645 21.0324 109.601 20.7742 109.601 20.4728C109.601 20.1275 109.644 19.8681 109.946 19.6525C110.162 19.4375 110.42 19.3084 110.68 19.3084C111.024 19.3084 111.239 19.4375 111.542 19.6525ZM111.671 19.5234C111.412 19.3084 111.024 19.1781 110.68 19.1781C110.335 19.1781 109.99 19.3084 109.774 19.5234C109.515 19.7828 109.386 20.1281 109.386 20.4728C109.386 20.8168 109.515 21.1615 109.774 21.3777C109.99 21.6791 110.334 21.8082 110.68 21.8082C111.025 21.8082 111.412 21.6791 111.671 21.3777C111.887 21.1615 112.016 20.8168 112.016 20.4728C112.014 20.126 111.892 19.7907 111.671 19.5234ZM110.895 20.4295H110.42V19.9119H110.636C110.765 19.9119 110.895 19.9119 110.981 19.9978C111.024 19.9978 111.024 20.0849 111.024 20.214C111.024 20.2566 110.981 20.3424 110.895 20.4295ZM110.162 21.1615H110.42V20.6439H110.637C110.766 20.6439 110.853 20.6439 110.896 20.6871C110.982 20.6871 111.025 20.8162 111.025 20.9885V21.1609H111.326C111.239 21.1609 111.239 21.1189 111.239 21.1189V20.9027C111.239 20.8156 111.239 20.7736 111.197 20.6865C111.11 20.5574 111.025 20.5574 110.981 20.5574C111.024 20.4715 111.11 20.4715 111.197 20.4283C111.239 20.4283 111.326 20.256 111.326 20.1269C111.326 19.9965 111.239 19.8674 111.025 19.7816C110.982 19.7816 110.853 19.7383 110.68 19.7383H110.162V21.1615Z" fill="#325390"/>
</svg>
