<svg width="112" height="24" viewBox="0 0 112 24" fill="none" xmlns="http://www.w3.org/2000/svg">
<path d="M11.5754 0.878906C11.4384 1.49922 11.1985 2.53275 10.9586 3.63515H6.26276C6.4684 2.67049 6.60543 1.77471 6.74249 0.878906H11.5754ZM10.9244 4.53142C10.17 8.01126 9.55324 11.4571 8.86745 15.971C8.52478 18.0725 7.70239 19.6232 4.20626 19.6232C2.9724 19.6232 1.77275 19.5199 0.607422 19.3131L0.813071 15.695C1.22437 15.8328 1.63567 15.9366 2.08123 15.9366C3.28083 15.9366 3.82926 15.4196 4.17199 14.2134C4.72041 12.2152 5.23431 9.14855 5.95436 4.53142H10.9244Z" fill="#1B3767"/>
<path d="M21.9948 14.7652C22.7144 10.9405 23.434 7.15031 24.0512 4.87616C22.3032 4.53182 20.5551 4.25586 18.2931 4.25586C14.1112 4.25586 11.1638 6.66776 10.6151 10.2514C10.2039 12.7666 11.4723 14.8341 14.1112 14.8341C15.2425 14.8341 16.339 14.4553 17.3675 13.835C17.2988 14.1793 17.2304 14.4897 17.1276 14.7652H21.9948ZM18.6015 7.94279C18.4301 9.08008 17.8814 11.3542 16.339 11.3542C15.5852 11.3542 15.3453 10.6306 15.4481 9.94144C15.6196 8.73528 16.6821 7.83947 17.8815 7.83947C18.1213 7.83947 18.3616 7.87391 18.6015 7.94279Z" fill="#1B3767"/>
<path d="M31.5921 14.6275C30.4951 14.9029 29.3985 15.0407 28.3358 15.0407C23.6742 15.0407 23.4686 11.8019 23.7428 9.90699C24.2915 6.52998 26.3479 4.25586 30.495 4.25586C31.6606 4.25586 32.7571 4.39361 33.8198 4.66956L33.4429 8.35649C32.6886 8.08054 31.9004 7.83947 31.0433 7.83947C29.8097 7.83947 28.9183 8.42534 28.7127 9.69992C28.5415 10.8717 29.1239 11.4575 30.2552 11.4575C31.0091 11.4575 32.0033 11.216 32.7914 10.9061L31.5921 14.6275Z" fill="#1B3767"/>
<path d="M42.4242 4.53061H47.773L44.069 9.04443L45.9541 14.764H40.7447L39.168 9.00953L42.4242 4.53061ZM32.9297 14.764C34.1295 10.2501 34.9866 5.66742 35.7062 1.11914H40.6076C39.5106 5.66742 38.5507 10.2157 37.8311 14.764H32.9297Z" fill="#1B3767"/>
<path d="M58.0891 1.11914C57.7099 2.63524 57.2987 4.15132 57.0611 5.59854C57.6779 5.11597 58.9801 4.25463 60.9675 4.25463C63.7774 4.25463 64.5312 5.59856 64.2571 7.2524C64.1521 8.07931 63.2976 11.6974 62.7814 14.764H57.815C58.1577 13.2134 58.5689 11.6974 58.8065 10.1468C58.9435 9.42323 59.1171 8.14819 58.1577 8.14819C57.1297 8.14819 56.5814 9.2166 56.3072 10.0435C55.7544 11.5941 55.5169 13.2134 55.1742 14.764H50.1348C51.2313 10.5256 52.1587 6.5632 53.0497 1.11914H58.0891Z" fill="#1B3767"/>
<path d="M75.7736 10.3891C75.9426 9.83814 76.0797 9.32112 76.1848 8.83858C76.6965 5.42759 74.3298 4.25586 71.3144 4.25586C65.9003 4.25586 64.5616 8.28761 64.2875 10.0448C63.5016 15.0407 68.2989 15.0407 69.9117 15.0407C71.1773 15.0407 72.4474 14.903 73.713 14.6619L74.8461 11.1816C73.6445 11.492 72.2738 11.8363 71.0402 11.8363C70.0122 11.8363 68.8152 11.6986 69.0208 10.3891H75.7736ZM69.3954 8.52867C69.6011 7.80505 70.0122 7.04699 70.8712 7.04699C71.5565 7.04699 71.7941 7.52959 71.6936 8.14942L71.625 8.52867H69.3954Z" fill="#1B3767"/>
<path d="M82.3535 5.59977C82.9703 5.1172 84.2404 4.25586 86.2598 4.25586C89.0377 4.25586 89.7916 5.59976 89.5174 7.28804C89.4124 8.11495 88.5579 11.6986 88.0417 14.7652H83.1073C83.45 13.2491 83.8246 11.6986 84.0668 10.1825C84.2038 9.42443 84.3774 8.14942 83.4134 8.14942C82.422 8.14942 81.8372 9.25224 81.563 10.0792C81.0148 11.6297 80.7772 13.2147 80.4345 14.7652H75.4316C76.4231 11.3887 77.0764 7.97723 77.6932 4.53183H82.591L82.3535 5.59977Z" fill="#1B3767"/>
<path d="M95.1057 5.46204C95.9281 4.77285 96.682 4.25586 97.71 4.25586C97.9841 4.25586 98.2217 4.2903 98.4639 4.35917L97.9476 8.45981C97.6415 8.3565 97.2988 8.28759 96.9562 8.28759C95.8231 8.28759 94.9687 8.80413 94.4524 9.90699C94.0777 10.7339 93.8036 12.3878 93.6666 13.2836C93.5616 13.7661 93.5296 14.2826 93.493 14.7652H88.5586C89.2074 12.0778 89.7922 9.66551 90.578 4.53183H95.2428L95.1057 5.46204Z" fill="#1B3767"/>
<path d="M104.014 4.53125H99.1798L100.93 14.9368C100.619 15.9708 99.728 16.384 98.8737 16.384C98.1198 16.384 97.4665 16.143 96.8862 15.7637L96.8496 19.3129C97.7086 19.5197 98.6315 19.623 99.559 19.623C101.478 19.623 103.465 19.244 105.01 16.5562L112 4.53125H107.271L104.324 10.7678L104.014 4.53125Z" fill="#1B3767"/>
<path d="M14.1807 19.7273C14.8322 20.6576 15.5175 21.519 16.2028 22.3804C16.0658 22.5181 15.3804 23.2074 14.5238 23.2074C13.6324 23.2074 12.9471 22.5182 12.9471 21.5879C12.9471 20.7609 13.4611 20.2096 14.1121 19.7962C14.1463 19.7617 14.1808 19.7617 14.1808 19.7273L14.1807 19.7273ZM16.9914 21.9669C17.5054 21.3123 17.9851 20.6576 18.4311 19.934C18.294 19.8307 18.1222 19.6239 18.0194 19.4861C17.6767 20.1752 17.197 21.0022 16.7515 21.6568L16.2028 21.0021C15.7231 20.4508 15.3462 19.8651 14.9007 19.2793C15.5861 18.7968 16.3399 18.2113 16.3399 17.2462C16.3399 16.5226 15.7231 16.1094 14.935 16.1094C13.9751 16.1094 13.2897 16.7297 13.2897 17.7288C13.2897 18.418 13.6667 18.935 14.0093 19.4861L13.9407 19.5205C12.947 20.0374 12.0898 20.7609 12.0898 21.8291C12.0898 23.0006 12.947 23.6897 14.112 23.6897C15.0034 23.6897 15.8258 23.3107 16.4088 22.6216C16.6486 22.9317 16.8542 23.2418 17.0598 23.5519C17.2655 23.5519 17.471 23.5175 17.6766 23.5175C17.8823 23.5175 18.1221 23.5519 18.3282 23.5519L16.9914 21.9669ZM14.7294 19.0383C14.3863 18.5901 14.0436 18.0043 14.0436 17.4533C14.0436 16.8674 14.352 16.3849 14.935 16.3849C15.449 16.3849 15.7916 16.7986 15.7916 17.3151C15.7916 18.1076 15.2777 18.6246 14.7294 19.0383Z" fill="#1B3767"/>
<path d="M24.1885 15.834H23.9487L20.6582 23.5869C20.761 23.5525 20.8639 23.5525 21.0009 23.5525C21.1379 23.5525 21.275 23.5525 21.4121 23.5869C21.7205 22.5188 22.0979 21.554 22.4748 20.5892H25.148C25.5592 21.5884 25.9709 22.6566 26.2793 23.5869C26.4507 23.5525 26.6219 23.5525 26.8275 23.5525C26.999 23.5525 27.1702 23.5525 27.3758 23.5869L24.1885 15.834ZM24.9767 20.1068H22.6461L23.8116 17.2812L24.9767 20.1068Z" fill="#1B3767"/>
<path d="M27.9256 22.0709C28.3368 22.7944 28.8165 23.2424 29.6394 23.2424C30.496 23.2424 31.1128 22.4843 31.1128 21.6229C31.1128 19.5555 27.7886 20.4513 27.7886 17.9359C27.7886 16.5231 28.8508 15.834 30.1191 15.834C30.6331 15.834 31.2504 15.9722 31.6616 16.351C31.5246 16.6269 31.4559 16.9368 31.3532 17.2468H31.2503C31.0442 16.6613 30.5646 16.2821 29.9478 16.2821C29.2277 16.2821 28.6109 16.7991 28.6109 17.5916C28.6109 19.6244 31.9357 18.8317 31.9357 21.175C31.9357 22.76 30.7702 23.7247 29.3305 23.7247C28.8165 23.7247 27.9599 23.4835 27.6172 23.0701C27.72 22.7255 27.7542 22.4154 27.7886 22.0709H27.9256Z" fill="#1B3767"/>
<path d="M32.5857 22.0709C32.9969 22.7944 33.4771 23.2424 34.2995 23.2424C35.1566 23.2424 35.7734 22.4843 35.7734 21.6229C35.7734 19.5555 32.4486 20.4513 32.4486 17.9359C32.4486 16.5231 33.5113 15.834 34.8134 15.834C35.2936 15.834 35.9104 15.9722 36.3216 16.351C36.1846 16.6269 36.116 16.9368 36.0475 17.2468H35.9105C35.7048 16.6613 35.2251 16.2821 34.6079 16.2821C33.8883 16.2821 33.2715 16.7991 33.2715 17.5916C33.2715 19.6244 36.6301 18.8317 36.6301 21.175C36.6301 22.76 35.4308 23.7247 33.9911 23.7247C33.4771 23.7247 32.62 23.4835 32.2773 23.0701C32.3802 22.7255 32.4143 22.4154 32.483 22.0709H32.5857Z" fill="#1B3767"/>
<path d="M41.0167 23.7247C43.3815 23.7247 45.061 22.1053 45.061 19.6244C45.061 16.9369 43.0388 15.834 41.0509 15.834C38.8231 15.834 37.1094 17.3501 37.1094 19.7967C37.1094 22.1397 38.6861 23.7247 41.0167 23.7247ZM43.9983 19.6933C44.1011 20.9338 43.2787 23.3458 41.0509 23.3458C39.4742 23.3458 38.1373 22.1742 38.1373 19.9001C38.1373 17.6604 39.2686 16.1788 41.1537 16.1788C41.9761 16.1788 42.799 16.5576 43.3472 17.2468C43.8955 18.0048 43.9983 18.7973 43.9983 19.6933Z" fill="#1B3767"/>
<path d="M51.5405 23.0701C50.8872 23.5525 50.0328 23.6903 49.2104 23.6903C46.8757 23.6903 45.4727 22.1742 45.4727 19.7278C45.4727 17.2468 47.223 15.834 49.4846 15.834C50.2384 15.834 51.0608 16.0066 51.7461 16.3165C51.6411 16.592 51.5725 16.9024 51.5405 17.1779L51.4718 17.2123C51.2982 17.0057 50.5124 16.2477 49.4478 16.2477C47.4969 16.2477 46.5009 17.9015 46.5009 19.7967C46.5009 21.8985 47.666 23.2768 49.3473 23.2768C50.5124 23.2768 51.4033 22.5532 51.6089 22.3809L51.5405 23.0701Z" fill="#1B3767"/>
<path d="M52.5332 15.9707C52.6702 16.0051 52.8439 16.0052 52.981 16.0052C53.118 16.0052 53.2871 16.0051 53.4607 15.9707V23.5855C53.287 23.551 53.118 23.551 52.981 23.551C52.8439 23.551 52.6703 23.551 52.5332 23.5855V15.9707Z" fill="#1B3767"/>
<path d="M57.7447 15.834H57.5025L54.2129 23.5869C54.3133 23.5525 54.4506 23.5525 54.5876 23.5525C54.6926 23.5525 54.8298 23.5525 54.9668 23.5869C55.2729 22.5188 55.6521 21.554 56.0268 20.5892H58.7041C59.1473 21.5884 59.5265 22.6566 59.8326 23.5869C60.0062 23.5525 60.1753 23.5525 60.3809 23.5525C60.5545 23.5525 60.7235 23.5525 60.9291 23.5869L57.7447 15.834ZM58.5671 20.1068H56.2005L57.3656 17.2812L58.5671 20.1068Z" fill="#1B3767"/>
<path d="M62.9548 23.5854C62.7812 23.5854 62.6122 23.551 62.4751 23.551C62.3015 23.551 62.1644 23.5854 61.9954 23.5854V16.5216C60.9309 16.5216 60.2821 16.5905 59.6973 16.6599C59.6973 16.5561 59.7339 16.4183 59.7339 16.315C59.7339 16.2117 59.6973 16.1084 59.6973 15.9707H65.1479C65.1479 16.1084 65.1113 16.2117 65.1113 16.315C65.1113 16.4183 65.1479 16.5561 65.1479 16.6599C64.6316 16.5905 63.8778 16.5216 62.9548 16.5216V23.5854Z" fill="#1B3767"/>
<path d="M66.6235 19.2782H68.2683C68.5744 19.2782 68.8851 19.2438 69.1912 19.2438C69.1912 19.3126 69.1592 19.4162 69.1592 19.5195C69.1592 19.6228 69.1912 19.7263 69.1912 19.8296C68.8851 19.8296 68.5744 19.7951 68.2683 19.7951H66.6235V23.034C67.2723 23.034 67.8891 22.9996 68.5425 22.9652C68.8485 22.9652 69.1912 22.9307 69.5019 22.8618C69.5019 22.9996 69.4653 23.1031 69.4653 23.2064C69.4653 23.3097 69.5019 23.4133 69.5019 23.551H65.6641V15.9707H69.4334C69.4334 16.1084 69.3968 16.2117 69.3968 16.315C69.3968 16.4183 69.4334 16.5561 69.4334 16.6599C69.1227 16.5905 68.8166 16.5561 68.4739 16.5216H67.4094H66.6235V19.2782Z" fill="#1B3767"/>
<path d="M70.1875 22.0709C70.5987 22.7944 71.0785 23.2424 71.9008 23.2424C72.7552 23.2424 73.372 22.4843 73.372 21.6229C73.372 19.5555 70.0504 20.4513 70.0504 17.9359C70.0504 16.5231 71.147 15.834 72.4125 15.834C72.9288 15.834 73.5456 15.9722 73.9203 16.351C73.7832 16.6269 73.7146 16.9368 73.6461 17.2468H73.5457C73.3035 16.6613 72.8604 16.2821 72.2071 16.2821C71.4897 16.2821 70.873 16.7991 70.873 17.5916C70.873 19.6244 74.2311 18.8317 74.2311 21.175C74.2311 22.76 73.0295 23.7247 71.5903 23.7247C71.0786 23.7247 70.2196 23.4835 69.877 23.0701C69.982 22.7255 70.0506 22.4154 70.0826 22.0709H70.1875Z" fill="#1B3767"/>
<path d="M77.3828 15.9707C77.5198 16.0051 77.6935 16.0052 77.8625 16.0052C77.9995 16.0052 78.1367 16.0051 78.3103 15.9707V23.5855C78.1366 23.551 77.9996 23.551 77.8625 23.551C77.6935 23.551 77.5199 23.551 77.3828 23.5855V15.9707Z" fill="#1B3767"/>
<path d="M85.6789 23.5855H85.3682C85.2678 23.4133 85.0255 23.1375 84.8199 22.8963L80.2282 17.5901H80.1232V23.5855C80.0228 23.551 79.9176 23.551 79.8171 23.551C79.7121 23.551 79.6435 23.551 79.543 23.5855V15.9707H79.9542L84.9936 21.6903H85.094V15.9707C85.199 16.0051 85.2677 16.0052 85.4047 16.0052C85.4734 16.0052 85.5738 16.0051 85.6789 15.9707L85.6789 23.5855Z" fill="#1B3767"/>
<path d="M92.5648 23.0701C91.8795 23.5525 91.0251 23.6903 90.2347 23.6903C87.9046 23.6903 86.502 22.1742 86.502 19.7278C86.502 17.2468 88.2472 15.834 90.4768 15.834C91.2627 15.834 92.0531 16.0066 92.7704 16.3165C92.67 16.592 92.6014 16.9024 92.5327 17.1779L92.4641 17.2123C92.3271 17.0057 91.5366 16.2477 90.4401 16.2477C88.4892 16.2477 87.5297 17.9015 87.5297 19.7967C87.5297 21.8985 88.6948 23.2768 90.3716 23.2768C91.5046 23.2768 92.3956 22.5532 92.6331 22.3809L92.5648 23.0701Z" fill="#1B3767"/>
<path d="M93.8018 22.3457C94.1445 22.3457 94.4186 22.6558 94.4186 23.0004C94.4186 23.3794 94.1445 23.6551 93.8018 23.6551C93.4592 23.6551 93.1484 23.3794 93.1484 23.0004C93.1484 22.6214 93.4592 22.3457 93.8018 22.3457Z" fill="#1B3767"/>
<path d="M108.264 16.5903H108.47C108.575 16.5903 108.675 16.5903 108.712 16.5559C108.78 16.487 108.812 16.4526 108.812 16.3837C108.812 16.3148 108.78 16.246 108.744 16.2115C108.675 16.1771 108.607 16.1426 108.469 16.1426H108.264L108.264 16.5903ZM107.821 15.8323H108.607C108.849 15.8323 109.018 15.9017 109.086 15.9705C109.191 16.0738 109.26 16.2116 109.26 16.3493C109.26 16.487 109.223 16.5904 109.155 16.6597C109.054 16.763 108.949 16.7974 108.78 16.8663C108.849 16.8663 108.881 16.9007 108.917 16.9352C108.986 16.9696 109.018 17.0385 109.054 17.1074C109.054 17.1074 109.155 17.2795 109.36 17.6243H108.849C108.675 17.2795 108.538 17.0729 108.506 17.0385C108.437 16.9696 108.369 16.9352 108.332 16.9352C108.3 16.9352 108.3 16.9352 108.264 16.9352V17.6243H107.821L107.821 15.8323ZM109.909 16.7285C109.909 16.3837 109.772 16.0393 109.534 15.7978C109.26 15.5223 108.949 15.3846 108.575 15.3846C108.195 15.3846 107.889 15.5223 107.615 15.7978C107.373 16.0394 107.236 16.3837 107.236 16.7285C107.236 17.1073 107.373 17.4177 107.615 17.6932C107.889 17.9687 108.195 18.072 108.575 18.072C108.949 18.072 109.26 17.9687 109.534 17.6932C109.772 17.4177 109.909 17.1073 109.909 16.7285ZM110.219 16.7285C110.219 17.0384 110.151 17.3139 110.014 17.5899C109.877 17.8309 109.671 18.0375 109.397 18.1757C109.155 18.3479 108.881 18.4168 108.575 18.4168C108.264 18.4168 107.99 18.3479 107.752 18.1757C107.478 18.0375 107.272 17.8309 107.135 17.5899C106.998 17.3139 106.93 17.0384 106.93 16.7285C106.93 16.4526 106.998 16.1771 107.135 15.9016C107.272 15.6601 107.478 15.4535 107.752 15.2813C107.99 15.1435 108.264 15.0742 108.575 15.0742C108.881 15.0742 109.155 15.1435 109.397 15.2813C109.671 15.4535 109.877 15.6601 110.014 15.9016C110.151 16.1771 110.219 16.4526 110.219 16.7285Z" fill="#1B3767"/>
</svg>
