<svg width="115" height="15" viewBox="0 0 115 15" fill="none" xmlns="http://www.w3.org/2000/svg">
<path d="M-0.00195312 0.933594C0.239556 1.00825 0.476783 1.09611 0.708656 1.19678L4.12134 2.53027L6.8585 3.56548L8.20076 4.09186L8.32358 4.1445L7.89371 4.36382C7.40242 4.58314 6.91114 4.82001 6.4374 5.07443C5.96366 5.32884 5.41096 5.64467 4.9109 5.95172C4.41084 6.25878 4.1652 6.45178 3.80551 6.72374C3.7441 6.72374 3.70023 6.77638 3.6476 6.72374C3.09993 6.12512 2.58732 5.49534 2.11233 4.83756C1.66518 4.22629 1.25222 3.59075 0.875342 2.93383C0.575708 2.37455 0.31767 1.79396 0.103322 1.19678L-0.00195312 0.933594Z" fill="#A6A4A5"/>
<path d="M17.1148 7.61795L16.2375 7.96887L14.6321 8.59175L12.8248 9.29359L10.9825 10.0217C10.3947 10.2498 9.78941 10.4604 9.22794 10.7148C9.12649 10.7628 9.0137 10.7817 8.90216 10.7693C8.79062 10.7569 8.68472 10.7137 8.59629 10.6446L7.61371 10.0393C7.10289 9.72291 6.61078 9.37726 6.13986 9.00408C5.75385 8.7058 5.37661 8.38997 5.01692 8.06537C4.88227 7.92739 4.73866 7.79845 4.58704 7.67936C4.53441 7.6355 4.54318 7.59163 4.58704 7.54777L5.26256 6.95121L5.92931 6.39851C6.28022 6.109 6.64869 5.84581 7.02593 5.58263C7.60825 5.17153 8.21147 4.79086 8.83315 4.44214C8.86084 4.42506 8.89274 4.41602 8.92527 4.41602C8.9578 4.41602 8.9897 4.42506 9.01739 4.44214L10.5965 5.05625L13.5179 6.19673L16.9481 7.53022C17.0008 7.56531 17.0622 7.56531 17.1148 7.61795Z" fill="#AF7E25"/>
<path d="M-0.00195312 14.2949C-0.00195312 14.2949 -0.00195312 14.2335 -0.00195312 14.1984C0.187087 13.6546 0.41883 13.1265 0.69111 12.6193C1.03568 11.9473 1.42551 11.2995 1.85791 10.6804C2.15619 10.2506 2.48079 9.80313 2.82294 9.41712C3.16508 9.03111 3.323 8.82934 3.57741 8.53983C3.6476 8.4521 3.70901 8.44333 3.80551 8.53983C4.5931 9.13808 5.42946 9.66924 6.3058 10.1277C6.93263 10.4683 7.57686 10.7757 8.23585 11.0489H8.27972L-0.00195312 14.2949Z" fill="#A39568"/>
<path d="M64.246 11.7504H65.1847C65.2636 11.7504 65.2987 11.7504 65.2987 11.6363V5.49526C65.2987 5.49526 65.2987 5.49526 65.2461 5.4514L61.9123 12.7768L58.4032 5.24085V5.31981C58.4032 7.40192 58.4032 9.48111 58.4032 11.5574C58.4032 11.7065 58.4032 11.7416 58.5874 11.7416C58.7716 11.7416 59.105 11.7416 59.3594 11.7416C59.4559 11.7416 59.491 11.7416 59.491 11.8644C59.4779 12.0133 59.4779 12.163 59.491 12.3119C59.491 12.4347 59.491 12.461 59.3331 12.461H56.3942C56.3634 12.2222 56.3634 11.9804 56.3942 11.7416H57.4294C57.4294 11.6977 57.4294 11.6451 57.4294 11.5925V3.77577C57.4294 3.72313 57.4294 3.67049 57.4294 3.62663H56.3854C56.3722 3.42213 56.3722 3.21701 56.3854 3.01252C56.3854 2.92479 56.3854 2.91602 56.4994 2.91602H58.912C58.9734 2.91602 59.0524 2.91602 59.0962 2.96865C59.2372 3.3426 59.3983 3.70867 59.5787 4.06527C60.3946 5.81986 61.2193 7.57445 62.0439 9.32905L62.2019 9.66242C62.2019 9.7326 62.2545 9.77647 62.3071 9.66242C62.465 9.30273 62.6405 8.94304 62.8072 8.58334L63.2897 7.53059C63.4652 7.15335 63.6318 6.76734 63.8073 6.38133C63.9214 6.12692 64.053 5.88127 64.167 5.62686C64.4477 5.0303 64.7197 4.42496 65.0443 3.87227C65.1847 3.56521 65.3075 3.24939 65.4742 2.99497H67.9394C67.9394 2.99497 68.0008 2.99497 68.0183 2.99497C68.0183 3.18798 68.0183 3.37221 68.0183 3.56521C68.0183 3.75822 68.0183 3.67926 67.8955 3.67926H67.0884C66.9831 3.67926 66.9392 3.67926 66.9392 3.81963C66.9392 6.45152 66.9392 9.0834 66.9392 11.7153C66.9392 11.8293 66.9392 11.8644 67.0884 11.8557H67.8429C67.9745 11.8557 68.0359 11.8557 68.0183 12.0223C68.0052 12.1536 68.0052 12.2859 68.0183 12.4171C68.0183 12.5487 68.0183 12.575 67.8516 12.575H64.3425C64.2697 12.3064 64.2372 12.0285 64.246 11.7504Z" fill="#4E4A4C"/>
<path d="M105.989 11.7485H107.024C107.037 11.6997 107.037 11.6481 107.024 11.5993V4.23881C107.037 4.18698 107.037 4.13273 107.024 4.0809C106.919 3.93176 106.831 3.70366 106.682 3.64225C106.464 3.60199 106.241 3.60199 106.024 3.64225C105.682 3.64225 105.682 3.64225 105.682 3.3001V2.93164C105.682 2.93164 105.743 2.93164 105.778 2.93164H108.077C108.077 2.93164 108.164 2.93164 108.191 2.93164C108.471 3.37029 108.796 3.80894 109.068 4.19495C109.884 5.32666 110.709 6.4496 111.533 7.58131C112.007 8.22173 112.481 8.86216 112.946 9.51136C112.946 9.51136 112.946 9.59031 113.033 9.58154C113.121 9.57277 113.033 9.51136 113.033 9.47627C113.033 9.44117 113.033 9.4324 113.033 9.40608C113.033 7.54037 113.033 5.6688 113.033 3.79139C113.033 3.65102 113.033 3.60716 112.858 3.61593C112.682 3.6247 112.34 3.61593 112.077 3.61593C111.972 3.61593 111.946 3.61593 111.946 3.48434C111.946 3.35274 111.946 3.11587 111.946 2.93164C111.989 2.93164 112.033 2.93164 112.077 2.93164H114.832C114.963 2.93164 115.007 2.93164 114.999 3.09833C114.99 3.26501 114.999 3.45802 114.999 3.64225C114.656 3.64225 114.305 3.64225 113.963 3.64225C113.963 3.69489 113.963 3.76507 113.963 3.82648V12.424C113.963 12.6696 113.963 12.6433 113.753 12.6345C113.567 12.6609 113.378 12.6609 113.191 12.6345L112.095 11.1344C111.384 10.1693 110.673 9.2043 109.972 8.23051C109.27 7.25671 108.691 6.47591 108.059 5.59862L107.945 5.31788V11.5467C107.945 11.6958 107.945 11.7309 108.121 11.7309C108.419 11.7309 108.717 11.7309 108.998 11.7309C109.037 11.9691 109.037 12.2121 108.998 12.4503H105.98C105.954 12.2169 105.957 11.9811 105.989 11.7485Z" fill="#4E4A4C"/>
<path d="M33.2602 4.08967C33.155 3.93176 33.076 3.70366 32.9181 3.64225C32.7006 3.60219 32.4776 3.60219 32.2601 3.64225C31.918 3.64225 31.918 3.64225 31.918 3.3001V2.93164C31.918 2.93164 31.9881 2.93164 32.032 2.93164H34.3218C34.3218 2.93164 34.4007 2.93164 34.427 2.93164C34.6727 3.31765 34.9622 3.67734 35.2341 4.04581L37.4449 7.07248L39.2785 9.58154C39.3662 9.58154 39.3399 9.51136 39.3399 9.46749V3.80894C39.3572 3.74874 39.3572 3.6849 39.3399 3.6247H38.4187C38.3135 3.6247 38.2696 3.6247 38.2784 3.48434C38.2871 3.34397 38.2784 3.11587 38.2784 2.94041C38.3222 2.94041 38.3661 2.94041 38.41 2.94041H41.1559C41.2875 2.94041 41.3401 2.94041 41.3226 3.1071C41.305 3.27379 41.3226 3.46679 41.3226 3.65102H40.2786C40.2611 3.72012 40.2611 3.79248 40.2786 3.86157V12.4415C40.2786 12.6872 40.2786 12.6608 40.068 12.6521C39.8818 12.6785 39.6928 12.6785 39.5066 12.6521L38.41 11.1519C37.6555 10.1284 36.9039 9.0961 36.1553 8.05505L34.4007 5.60739L34.1989 5.31788V5.50212C34.1989 7.5199 34.1989 9.5289 34.1989 11.5467C34.1989 11.6871 34.1989 11.7397 34.3744 11.7309C34.5499 11.7221 34.892 11.7309 35.1464 11.7309C35.2429 11.7309 35.2868 11.7309 35.278 11.8537C35.2692 12.0145 35.2692 12.1755 35.278 12.3362C35.278 12.424 35.278 12.4503 35.164 12.4503H32.3303C32.2426 12.4503 32.2075 12.4503 32.2162 12.3362C32.2251 12.1755 32.2251 12.0145 32.2162 11.8537C32.2162 11.7485 32.2162 11.7309 32.3478 11.7309H33.2602C33.2737 11.6821 33.2737 11.6306 33.2602 11.5818V4.23881C33.2737 4.19001 33.2737 4.13847 33.2602 4.08967Z" fill="#4E4A4C"/>
<path d="M75.1507 9.08263C75.1507 8.75803 75.1507 8.43343 75.1507 8.1176C75.1507 8.03865 75.1507 8.0211 75.0455 8.0211H72.7382C72.6505 8.0211 72.6417 8.0211 72.6417 8.13515C72.6417 9.29318 72.6417 10.4512 72.6417 11.6443C72.6417 11.6443 72.7294 11.6443 72.7733 11.6443H75.7999C75.7999 11.6443 75.8964 11.6443 75.9315 11.6443V10.4073C76.1829 10.3943 76.4347 10.3943 76.686 10.4073C76.8088 10.4073 76.7737 10.4863 76.7737 10.5565C76.7737 11.0127 76.7737 11.4338 76.7737 11.9338C76.8 12.1171 76.8 12.3032 76.7737 12.4865H70.0186C69.9834 12.248 69.9834 12.0057 70.0186 11.7672H71.0538C71.0705 11.7188 71.0705 11.6663 71.0538 11.618V3.78376C71.0538 3.73113 71.0538 3.67849 71.0538 3.62585H70.0098C69.9967 3.42136 69.9967 3.21624 70.0098 3.01174C70.0098 2.94156 70.0098 2.91524 70.1063 2.92401H75.642C75.7027 2.93706 75.7655 2.93706 75.8263 2.92401C75.8263 2.80119 75.8263 2.66083 75.8263 2.538C76.0831 2.51598 76.3414 2.51598 76.5983 2.538C76.686 2.538 76.6685 2.60819 76.6685 2.66083V4.79265C76.6685 4.84529 76.6685 4.9067 76.6685 4.95934H75.9754C75.8789 4.95934 75.8526 4.95934 75.8526 4.83652C75.8526 4.52069 75.8526 4.19609 75.8526 3.88027C75.8526 3.78376 75.8526 3.74867 75.721 3.74867H72.7821C72.7031 3.74867 72.668 3.74867 72.668 3.86272C72.668 4.95934 72.668 6.06473 72.668 7.17012C72.668 7.17012 72.7382 7.17012 72.7821 7.17012H75.0279C75.0279 7.17012 75.1069 7.17012 75.142 7.17012C75.1595 6.83113 75.1595 6.49146 75.142 6.15246C75.4164 6.13057 75.6922 6.13057 75.9666 6.15246V9.0914C75.6957 9.12798 75.4209 9.12502 75.1507 9.08263Z" fill="#4E4A4C"/>
<path d="M45.7969 8.06631L44.288 5.77657C43.8493 5.09228 43.4107 4.41676 42.9808 3.73247C42.9583 3.69511 42.9259 3.66469 42.8872 3.64457C42.8485 3.62444 42.805 3.6154 42.7615 3.61842H42.0333C42.0201 3.41393 42.0201 3.20881 42.0333 3.00432C42.0333 2.93413 42.0333 2.90781 42.121 2.91659H45.753C45.8057 2.91659 45.8671 2.91659 45.911 2.91659C45.8935 3.08575 45.8935 3.25626 45.911 3.42542C45.911 3.56579 45.911 3.5921 45.753 3.58333C45.446 3.58333 45.1389 3.58333 44.8056 3.58333L45.1302 4.09216L46.8848 6.81178C46.9549 6.91705 46.9988 6.96092 47.0865 6.81178C47.4989 6.10994 47.9638 5.41688 48.3498 4.72382C48.5516 4.38167 48.7534 4.03075 48.9639 3.69738C49.0429 3.58333 48.9639 3.57456 48.8938 3.57456H47.8673C47.8542 3.37007 47.8542 3.16494 47.8673 2.96045C47.8673 2.89027 47.8673 2.86395 47.9551 2.87272H50.7449C50.8764 2.87272 50.9203 2.87272 50.9028 3.03941C50.8852 3.20609 50.9028 3.3991 50.9028 3.58333C50.7188 3.59648 50.5341 3.59648 50.3501 3.58333C50.2786 3.57273 50.2056 3.58698 50.1433 3.6237C50.081 3.66042 50.0332 3.7174 50.0079 3.78511L47.4725 7.89085C47.4312 7.95318 47.4098 8.02661 47.4111 8.1014C47.4111 9.26821 47.4111 10.4438 47.4111 11.6106C47.4111 11.7246 47.4111 11.7597 47.5515 11.751H48.4814C48.5209 11.9891 48.5209 12.2322 48.4814 12.4703H44.7705C44.731 12.2322 44.731 11.9891 44.7705 11.751H45.7969C45.8104 11.7081 45.8104 11.6622 45.7969 11.6194V8.20668C45.8101 8.16082 45.8101 8.11217 45.7969 8.06631Z" fill="#4E4A4C"/>
<path d="M91.0473 3.61689H90.0208C90.0034 3.67108 90.0034 3.72939 90.0208 3.78358C90.0208 6.33943 90.0208 8.88651 90.0208 11.4248C90.0208 11.6178 90.0208 11.6178 90.2226 11.6178H92.9949C93.1265 11.6178 93.1703 11.6178 93.1703 11.4424C93.1703 11.1353 93.1703 10.8283 93.1703 10.5124C93.1703 10.4072 93.1703 10.3633 93.3107 10.3721C93.4511 10.3808 93.7844 10.3721 94.0213 10.3721C94.0213 11.0037 94.0213 11.6441 94.0213 12.2846C94.0213 12.3986 94.0213 12.4337 93.8634 12.4337H87.503C87.3977 12.4337 87.3539 12.4337 87.3626 12.2933C87.3714 12.153 87.3626 11.9863 87.3626 11.8284C87.3626 11.6705 87.3626 11.7143 87.4767 11.7143H88.2662C88.3891 11.7143 88.4329 11.7143 88.4329 11.5652V3.75726C88.4329 3.65198 88.4329 3.60812 88.2926 3.61689H87.4854C87.3889 3.61689 87.3539 3.61689 87.3626 3.49407V2.92383C87.4065 2.92383 87.4591 2.92383 87.5118 2.92383H90.9245C91.0648 2.92383 91.1175 2.92383 91.1087 3.10806C91.0999 3.29229 91.0911 3.44143 91.0473 3.61689Z" fill="#4E4A4C"/>
<path d="M84.9412 11.6078V10.4059C85.1925 10.3926 85.4443 10.3926 85.6956 10.4059C85.8097 10.4059 85.7834 10.4848 85.7834 10.5462V11.8622C85.8054 12.0692 85.8054 12.278 85.7834 12.4851H79.1598C79.129 12.2463 79.129 12.0045 79.1598 11.7657C79.5019 11.7657 79.8528 11.7657 80.195 11.7657C80.195 11.713 80.195 11.6604 80.195 11.6078V3.78229C80.195 3.72965 80.195 3.67702 80.195 3.63315C79.8528 3.63315 79.5019 3.63315 79.1598 3.63315C79.1466 3.42866 79.1466 3.22354 79.1598 3.01905C79.1598 2.94886 79.1598 2.92254 79.2563 2.93132H82.7655C82.7655 2.93132 82.862 2.93132 82.9058 2.93132C82.9058 3.11555 82.9058 3.30855 82.9058 3.49278C82.9058 3.67702 82.9058 3.61561 82.7742 3.61561H81.9847C81.8619 3.61561 81.8268 3.61561 81.8268 3.76475C81.8268 4.28235 81.8268 4.80873 81.8268 5.32633V11.6078C81.8667 11.6205 81.9096 11.6205 81.9496 11.6078H84.8447C84.8762 11.6168 84.9096 11.6168 84.9412 11.6078Z" fill="#4E4A4C"/>
<path d="M30.4884 9.74923C30.4412 9.17308 30.2006 8.62981 29.8056 8.20773C29.4106 7.78565 28.8845 7.50958 28.3127 7.4244L28.5408 7.33667C29.0442 7.14246 29.4697 6.78791 29.7515 6.32778C29.9935 5.91211 30.0805 5.42414 29.9971 4.95042C29.9181 4.40537 29.636 3.91028 29.2075 3.5643C28.7469 3.21641 28.1954 3.00922 27.6196 2.96774C27.5792 2.95867 27.5372 2.95867 27.4968 2.96774H22.9173C22.8647 2.96774 22.8384 2.96774 22.8471 3.03792C22.8296 3.24811 22.8296 3.45939 22.8471 3.66957H23.8736C23.891 3.72377 23.891 3.78207 23.8736 3.83626V11.6179C23.891 11.6721 23.891 11.7304 23.8736 11.7846H22.8647C22.8251 12.0227 22.8251 12.2658 22.8647 12.5039H27.7337C27.8039 12.5039 27.8828 12.5039 27.953 12.5039C28.0232 12.5039 28.2776 12.5039 28.4355 12.425C28.9611 12.3136 29.4428 12.0514 29.8216 11.6705C30.2143 11.2588 30.4475 10.7208 30.4796 10.1528C30.5071 10.0199 30.5101 9.88316 30.4884 9.74923ZM25.5229 5.42416V3.90644C25.5229 3.79239 25.5229 3.73976 25.6633 3.74853C26.0493 3.74853 26.4265 3.74853 26.8037 3.74853C27.024 3.73447 27.2446 3.76977 27.4495 3.85186C27.6544 3.93394 27.8384 4.06073 27.988 4.22298C28.1377 4.38523 28.2492 4.57884 28.3145 4.78969C28.3797 5.00053 28.3971 5.22329 28.3653 5.44171C28.3683 5.66856 28.3242 5.89357 28.2358 6.10251C28.1474 6.31144 28.0166 6.49978 27.8517 6.6556C27.6868 6.81142 27.4914 6.93135 27.2778 7.00781C27.0642 7.08427 26.8371 7.11559 26.6107 7.0998C26.2949 7.0998 25.9791 7.0998 25.6633 7.0998C25.5229 7.0998 25.4966 7.0998 25.5053 6.93311L25.5229 5.42416ZM28.4531 10.9774C28.1237 11.3455 27.6647 11.5718 27.1722 11.6091C26.6549 11.6354 26.1367 11.6354 25.6194 11.6091C25.4966 11.6091 25.5229 11.5301 25.5229 11.46V8.08237C25.5229 7.96832 25.5229 7.91568 25.6808 7.92446C26.1897 7.90253 26.6995 7.91132 27.2073 7.95078C27.5399 7.97849 27.8578 8.10051 28.1235 8.30253C28.3892 8.50454 28.5918 8.77815 28.7075 9.09126C28.851 9.39681 28.9034 9.73729 28.8582 10.0718C28.8131 10.4064 28.6724 10.7208 28.4531 10.9774Z" fill="#4E4A4C"/>
<path d="M104.426 7.28511C104.426 7.2237 104.426 7.16229 104.426 7.10088C104.422 7.03953 104.422 6.97799 104.426 6.91664C104.282 5.86186 103.799 4.88263 103.049 4.12684C102.275 3.33842 101.246 2.85034 100.145 2.74949C99.8941 2.73194 99.642 2.73194 99.3908 2.74949C99.1802 2.74949 98.9697 2.8109 98.7679 2.85476C98.0425 3.00991 97.3654 3.33796 96.794 3.81102C96.3444 4.17695 95.9666 4.62316 95.6798 5.12696C95.3 5.71394 95.0599 6.38022 94.978 7.07456C94.978 7.13597 94.978 7.19738 94.978 7.25879V7.52198C94.9605 7.64711 94.9605 7.77408 94.978 7.89921V8.1624C94.978 8.22381 94.978 8.28522 94.978 8.34663C94.9693 8.41949 94.9693 8.49311 94.978 8.56596C95.0723 9.06815 95.2346 9.55515 95.4605 10.0135C95.7557 10.5948 96.1609 11.1132 96.6536 11.54C97.345 12.1405 98.2008 12.5195 99.1101 12.6278C99.1627 12.6278 99.2329 12.6278 99.2943 12.6278H100.058C100.119 12.6278 100.18 12.6278 100.242 12.6278C100.54 12.5903 100.834 12.5227 101.119 12.4261C102.116 12.0994 102.977 11.4515 103.567 10.5837C104.033 9.90534 104.333 9.12711 104.444 8.31154C104.444 8.25013 104.444 8.18872 104.444 8.12731L104.426 7.28511ZM102.295 9.79417C102.167 10.1734 101.966 10.5236 101.702 10.8247C101.439 11.1259 101.118 11.3719 100.759 11.5488C100.169 11.8103 99.5034 11.8457 98.8887 11.6484C98.274 11.451 97.7533 11.0347 97.4256 10.4785C96.9214 9.65007 96.6684 8.69312 96.6975 7.72375C96.655 6.81323 96.8645 5.90863 97.3028 5.10941C97.4863 4.7584 97.745 4.45219 98.0604 4.2126C98.3758 3.97301 98.7402 3.80594 99.1276 3.72329C99.6387 3.60702 100.173 3.64974 100.659 3.84575C101.145 4.04175 101.56 4.38166 101.847 4.81991C102.257 5.41421 102.51 6.1021 102.584 6.82014C102.752 7.81967 102.652 8.8457 102.295 9.79417Z" fill="#4E4A4C"/>
</svg>
