<svg width="115" height="28" viewBox="0 0 115 28" fill="none" xmlns="http://www.w3.org/2000/svg">
<path d="M43.3677 6.24805H37.0363C36.603 6.24805 36.2346 6.56281 36.167 6.99053L33.6063 23.226C33.5553 23.5463 33.8034 23.8352 34.1284 23.8352H37.1511C37.5844 23.8352 37.9528 23.5204 38.0204 23.0918L38.711 18.7128C38.7777 18.2842 39.1471 17.9694 39.5794 17.9694H41.5837C45.7544 17.9694 48.1615 15.9512 48.7901 11.9518C49.0734 10.2021 48.8021 8.82728 47.9828 7.86447C47.0829 6.80722 45.4869 6.24805 43.3677 6.24805ZM44.0982 12.1777C43.7519 14.4496 42.0161 14.4496 40.3376 14.4496H39.3822L40.0525 10.2067C40.0923 9.95026 40.3145 9.7614 40.5737 9.7614H41.0116C42.155 9.7614 43.2335 9.7614 43.7908 10.4132C44.1232 10.802 44.225 11.3797 44.0982 12.1777Z" fill="white"/>
<path d="M62.2935 12.1055H59.2616C59.0033 12.1055 58.7802 12.2943 58.7404 12.5508L58.6061 13.3988L58.3941 13.0914C57.7377 12.1388 56.2741 11.8203 54.8132 11.8203C51.4628 11.8203 48.6011 14.3579 48.0438 17.9175C47.7541 19.6932 48.166 21.3911 49.1733 22.5752C50.0972 23.6639 51.4192 24.1175 52.9921 24.1175C55.6917 24.1175 57.1887 22.3817 57.1887 22.3817L57.0536 23.2241C57.0027 23.5463 57.2508 23.8352 57.5739 23.8352H60.3049C60.7391 23.8352 61.1057 23.5204 61.1742 23.0917L62.8129 12.7146C62.8647 12.3952 62.6175 12.1055 62.2935 12.1055ZM58.0673 18.0064C57.7748 19.7386 56.4 20.9013 54.6465 20.9013C53.7661 20.9013 53.0625 20.619 52.6107 20.0839C52.1626 19.5525 51.9923 18.7961 52.1349 17.9536C52.408 16.2363 53.8059 15.0356 55.5325 15.0356C56.3935 15.0356 57.0934 15.3216 57.5544 15.8614C58.0164 16.4067 58.1997 17.1676 58.0673 18.0064Z" fill="white"/>
<path d="M78.4407 12.1055H75.3939C75.1032 12.1055 74.8301 12.2499 74.6653 12.4915L70.4632 18.6813L68.682 12.7332C68.5699 12.361 68.2265 12.1055 67.8376 12.1055H64.8437C64.4798 12.1055 64.2271 12.461 64.3428 12.8035L67.6988 22.652L64.5437 27.106C64.2956 27.4568 64.5456 27.9392 64.9742 27.9392H68.0172C68.3061 27.9392 68.5764 27.7985 68.7403 27.5615L78.8739 12.934C79.1165 12.5841 78.8675 12.1055 78.4407 12.1055Z" fill="white"/>
<path d="M88.5279 6.24805H82.1955C81.7632 6.24805 81.3947 6.56281 81.3271 6.99053L78.7664 23.226C78.7155 23.5463 78.9636 23.8352 79.2867 23.8352H82.5362C82.838 23.8352 83.0963 23.6149 83.1435 23.3149L83.8703 18.7128C83.9369 18.2842 84.3063 17.9694 84.7387 17.9694H86.7421C90.9136 17.9694 93.3198 15.9512 93.9493 11.9518C94.2335 10.2021 93.9604 8.82728 93.1411 7.86447C92.2421 6.80722 90.647 6.24805 88.5279 6.24805ZM89.2583 12.1777C88.913 14.4496 87.1772 14.4496 85.4978 14.4496H84.5433L85.2145 10.2067C85.2543 9.95026 85.4747 9.7614 85.7348 9.7614H86.1727C87.3151 9.7614 88.3946 9.7614 88.9519 10.4132C89.2843 10.802 89.3852 11.3797 89.2583 12.1777Z" fill="white"/>
<path d="M107.454 12.1055H104.424C104.163 12.1055 103.942 12.2943 103.903 12.5508L103.769 13.3988L103.556 13.0914C102.9 12.1388 101.437 11.8203 99.9761 11.8203C96.6256 11.8203 93.765 14.3579 93.2076 17.9175C92.9188 19.6932 93.3289 21.3911 94.3362 22.5752C95.2619 23.6639 96.5821 24.1175 98.155 24.1175C100.855 24.1175 102.352 22.3817 102.352 22.3817L102.216 23.2241C102.166 23.5463 102.414 23.8352 102.739 23.8352H105.469C105.901 23.8352 106.27 23.5204 106.337 23.0917L107.977 12.7146C108.027 12.3952 107.779 12.1055 107.454 12.1055ZM103.227 18.0064C102.937 19.7386 101.56 20.9013 99.8066 20.9013C98.9281 20.9013 98.2226 20.619 97.7708 20.0839C97.3227 19.5525 97.1543 18.7961 97.295 17.9536C97.5699 16.2363 98.966 15.0356 100.693 15.0356C101.554 15.0356 102.253 15.3216 102.715 15.8614C103.178 16.4067 103.362 17.1676 103.227 18.0064Z" fill="white"/>
<path d="M111.027 6.69428L108.429 23.2269C108.378 23.5473 108.626 23.8361 108.949 23.8361H111.561C111.996 23.8361 112.364 23.5213 112.431 23.0927L114.993 6.85814C115.044 6.53782 114.796 6.24805 114.473 6.24805H111.547C111.289 6.24897 111.067 6.43783 111.027 6.69428Z" fill="white"/>
<path d="M7.31286 26.9916L7.79704 23.9161L6.7185 23.8911H1.56836L5.14745 1.19733C5.15856 1.12882 5.19466 1.06494 5.24743 1.01958C5.3002 0.974215 5.36778 0.949219 5.43814 0.949219H14.122C17.0049 0.949219 18.9944 1.54913 20.0331 2.73321C20.5201 3.28868 20.8302 3.86915 20.9802 4.50794C21.1376 5.17821 21.1404 5.97901 20.9867 6.95571L20.9756 7.027V7.65283L21.4626 7.92871C21.8727 8.14627 22.1986 8.39531 22.4485 8.68045C22.8651 9.15538 23.1345 9.75899 23.2484 10.4746C23.366 11.2106 23.3271 12.0864 23.1345 13.0779C22.9123 14.2185 22.5531 15.2119 22.068 16.0247C21.6218 16.7737 21.0534 17.3949 20.3785 17.8763C19.7341 18.3336 18.9685 18.6808 18.1029 18.903C17.2641 19.1215 16.3078 19.2316 15.2589 19.2316H14.5831C14.0998 19.2316 13.6304 19.4057 13.262 19.7177C12.8926 20.0361 12.6482 20.4713 12.5732 20.9471L12.5223 21.2239L11.6668 26.6444L11.6279 26.8434C11.6178 26.9064 11.6002 26.9379 11.5742 26.9592C11.5511 26.9786 11.5178 26.9916 11.4854 26.9916H7.31286Z" fill="white"/>
<path d="M21.9229 7.09766C21.897 7.26337 21.8673 7.43279 21.834 7.60684C20.6888 13.4865 16.7709 15.5177 11.767 15.5177H9.21926C8.60731 15.5177 8.09165 15.962 7.9963 16.5657L6.69187 24.8385L6.32248 27.1835C6.26045 27.5797 6.56596 27.9371 6.9659 27.9371H11.4847C12.0198 27.9371 12.4743 27.5483 12.5586 27.0206L12.603 26.791L13.4538 21.3918L13.5084 21.0955C13.5917 20.566 14.0472 20.1772 14.5823 20.1772H15.2582C19.6362 20.1772 23.0635 18.3996 24.0652 13.256C24.4836 11.1072 24.267 9.31306 23.1597 8.05121C22.8246 7.67072 22.4089 7.35502 21.9229 7.09766Z" fill="white"/>
<path d="M20.7247 6.62003C20.5497 6.56912 20.3692 6.52283 20.1841 6.48117C19.998 6.44043 19.8073 6.40433 19.611 6.37285C18.9241 6.26175 18.1714 6.20898 17.365 6.20898H10.5587C10.3911 6.20898 10.2319 6.24694 10.0893 6.31545C9.77545 6.46635 9.54216 6.76353 9.48568 7.12736L8.03775 16.2982L7.99609 16.5657C8.09145 15.9621 8.60711 15.5178 9.21906 15.5178H11.7668C16.7707 15.5178 20.6886 13.4857 21.8338 7.60692C21.8681 7.43287 21.8968 7.26345 21.9227 7.09774C21.6329 6.94406 21.3191 6.8126 20.9812 6.70058C20.8978 6.6728 20.8117 6.64596 20.7247 6.62003Z" fill="white"/>
<path d="M9.48643 7.12762C9.5429 6.76379 9.7762 6.46661 10.09 6.31663C10.2335 6.24813 10.3918 6.21017 10.5594 6.21017H17.3658C18.1721 6.21017 18.9248 6.26294 19.6117 6.37403C19.808 6.40551 19.9987 6.44161 20.1848 6.48235C20.37 6.52401 20.5505 6.5703 20.7255 6.62122C20.8125 6.64714 20.8986 6.67399 20.9828 6.70083C21.3207 6.81285 21.6346 6.94524 21.9244 7.098C22.265 4.92518 21.9216 3.44577 20.7468 2.10616C19.4516 0.631386 17.114 0 14.1228 0H5.43889C4.82788 0 4.30666 0.444377 4.21223 1.04891L0.595185 23.976C0.5239 24.4296 0.873846 24.8388 1.33118 24.8388H6.69241L8.0385 16.2985L9.48643 7.12762Z" fill="white"/>
</svg>
