<svg width="70" height="70" viewBox="0 0 70 70" fill="none" xmlns="http://www.w3.org/2000/svg">
<path fill-rule="evenodd" clip-rule="evenodd" d="M70 70H0V0H70V70ZM25.2282 25.4724V22.0326H28.1308C30.3214 22.0326 30.4683 22.9654 30.7165 24.5408L30.7188 24.5555H31.9504V20.8119H16.9326V22.0326H17.7301C18.3107 22.0326 18.4354 22.2713 18.4354 22.5317C18.4354 22.724 18.3836 22.8785 18.3238 23.0569C18.3195 23.0698 18.3151 23.0828 18.3107 23.096L16.2056 29.0641H16.1731L14.361 22.9549L14.3586 22.9481C14.3044 22.7909 14.2253 22.5619 14.2253 22.3961C14.2253 22.1791 14.3555 22.0326 14.6919 22.0326H15.5654V20.8119H10.6228V22.0326H11.0134C11.4963 22.0326 11.8272 22.1574 11.9954 22.6457L12.2721 23.427L10.2972 29.1726H10.2647L8.19217 23.0634C8.1054 22.8356 8.04568 22.6294 8.04568 22.4666C8.04568 22.2496 8.19217 22.0326 8.55568 22.0326H9.25014V20.8119H4.46484V22.0326H4.69271C5.32206 22.0326 5.55531 22.1682 5.69101 22.6186L8.79439 31.7605H11.0948L13.0155 26.0746H13.048L14.7787 31.7605H17.052L20.0415 23.0363C20.3182 22.2171 20.6925 22.0326 21.4792 22.0326H21.8156C22.5806 22.0326 22.9061 22.2496 22.9061 22.9658V29.3842C22.9061 30.377 22.6023 30.5344 22.0326 30.5344H21.1157V31.7605H31.9505V27.6426H30.7514C30.5724 29.5415 30.0298 30.5344 28.5269 30.5344H25.2282V26.6877H26.0149C27.0078 26.6877 27.4581 27.1977 27.4581 28.5378V28.7657H28.6138V23.427H27.4581V23.6386C27.4581 24.9895 27.0078 25.4724 26.0149 25.4724H25.2282ZM43.2247 27.6426V31.7605H33.1007V30.5344H34.1586C34.6252 30.5344 34.9399 30.377 34.9399 29.8019V22.7488C34.9399 22.2496 34.7175 22.0326 34.0555 22.0326H33.1007V20.8119H39.1501V22.0326H38.2223C37.4953 22.0326 37.2458 22.1845 37.2458 22.7922V30.5344H39.7361C41.4505 30.5344 41.7923 29.5252 41.9605 27.6426H43.2247ZM54.4609 27.6426V31.7605H44.326V30.5344H45.3949C45.8561 30.5344 46.1762 30.377 46.1762 29.8019V22.7488C46.1762 22.2496 45.9537 22.0326 45.2864 22.0326H44.326V20.8119H50.3809V22.0326H49.4586C48.7316 22.0326 48.482 22.1845 48.482 22.7922V30.5344H50.9777C52.6705 30.5344 53.0231 29.5252 53.1913 27.6426H54.4609ZM62.7888 21.6308L62.7945 21.6365L63.3425 20.8119H64.2323V24.5555H63.0007C62.5829 23.172 61.8016 21.8861 59.7779 21.8861C58.4324 21.8861 57.5372 22.4666 57.5372 23.313C57.5372 24.2896 58.4107 24.626 59.7725 24.919C59.9454 24.9587 60.1102 24.9924 60.273 25.0256C60.4884 25.0696 60.7002 25.1129 60.9227 25.1685C63.1146 25.608 64.9105 26.5412 64.9105 28.7114C64.9105 30.9521 62.9844 32.0861 60.4344 32.0861C58.5559 32.0861 57.5134 31.1403 57.1722 30.8309C57.1498 30.8105 57.1304 30.7929 57.114 30.7785L56.7505 31.7605H55.6274V27.6426H56.897C57.1628 29.4818 58.4432 30.6863 60.6026 30.6863C62.1489 30.6863 62.9301 29.8942 62.9301 29.1563C62.9301 28.1851 61.997 27.7619 60.5972 27.4635C60.3122 27.4033 60.0771 27.3554 59.8344 27.3061C59.5966 27.2577 59.3516 27.2079 59.0455 27.1434C57.1791 26.7419 55.5569 25.8142 55.5569 23.7796C55.5569 21.5335 57.6457 20.4863 59.7128 20.4863C61.6505 20.4863 62.6586 21.4999 62.7888 21.6308ZM12.5434 47.5976V48.8292H6.48852V47.5976H7.51936C8.10532 47.5976 8.35489 47.2504 8.35489 46.7892V39.7144C8.35489 39.3183 8.07819 39.0958 7.58447 39.0958H6.48852V37.8751H16.8512V41.6133H15.6685C15.5057 40.3166 15.2507 39.0958 12.8255 39.0958H10.6716V42.5465H11.4474C12.5108 42.5465 12.8201 41.7652 12.8201 40.9134V40.6964H13.9703V45.7367H12.8201V45.3732C12.8201 44.2121 12.3752 43.7672 11.3498 43.7672H10.6716V46.7512C10.6716 47.3698 10.9537 47.5976 11.7187 47.5976H12.5434ZM52.4264 43.3494C52.4264 40.0562 54.8027 37.5441 58.3944 37.5441C61.9753 37.5441 64.3571 40.0562 64.3571 43.3494C64.3571 46.6373 61.9753 49.171 58.3944 49.171C54.8027 49.171 52.4264 46.6373 52.4264 43.3494ZM61.7637 43.3494C61.7637 40.9893 60.9878 38.8354 58.3944 38.8354C55.7847 38.8354 55.0143 40.9893 55.0143 43.3494C55.0143 45.7095 55.7847 47.8689 58.3944 47.8689C60.9878 47.8689 61.7637 45.7095 61.7637 43.3494ZM48.2544 38.7364C48.2686 38.7493 48.2812 38.7606 48.2921 38.7703L48.699 37.8751H49.8546V41.6133H48.4983L48.498 41.6124C48.2535 40.9442 47.5316 38.9711 45.4111 38.9711C43.3766 38.9711 42.324 40.87 42.324 43.3495C42.324 45.8669 43.3766 47.755 45.4763 47.755C47.1527 47.755 47.9232 46.8815 47.9232 45.6282V44.988C47.9232 44.4563 47.5922 44.2121 47.0497 44.2121H46.3009V42.9859H51.3575V44.2121H51.0537C50.4135 44.2121 50.1748 44.3857 50.1748 45.0314V48.8292H49.0517L48.4386 47.9937C48.1836 48.227 47.0659 49.171 45.0042 49.171C41.7978 49.171 39.7306 46.7133 39.7306 43.3495C39.7306 40.0128 41.7652 37.5442 45.0042 37.5442C46.9355 37.5442 47.9576 38.4681 48.2544 38.7364ZM39.1827 46.5559V46.2575H38.0922V46.5559C38.0922 47.2884 37.886 47.5976 37.4954 47.5976C37.0993 47.5976 36.8606 47.3481 36.8606 46.225V45.5848C36.8606 43.8974 35.884 43.42 34.7284 43.3332V43.306C35.7158 43.2518 37.8263 42.834 37.8263 40.7127C37.8263 39.0036 36.7032 37.8751 34.316 37.8751H27.1218V39.0959H28.272C28.7874 39.0959 28.9556 39.2532 28.9556 39.6927V47.0063C28.9556 47.4457 28.744 47.5976 28.272 47.5976H27.8271C26.9536 47.5976 26.3893 47.4837 26.0909 46.7079L22.5101 37.8751H20.4104L16.9164 46.7079C16.6071 47.4729 16.0537 47.5976 15.1802 47.5976V48.8292H20.3345V47.5976H19.1734C18.8479 47.5976 18.6526 47.5217 18.6526 47.2884C18.6526 47.131 18.6959 46.9954 18.7502 46.8326C18.8316 46.6156 19.3145 45.3135 19.3145 45.3135H23.2208C23.2208 45.3135 23.7362 46.7241 23.7959 46.8706C23.8611 47.0497 23.8936 47.2178 23.8936 47.3209C23.8936 47.5163 23.7688 47.5976 23.4324 47.5976H22.2171V48.8292H33.1549V47.5976H31.9505C31.473 47.5976 31.2723 47.4457 31.2723 47.0063V43.6967H32.1404C33.9742 43.6967 34.7771 44.4563 34.7771 46.3389V46.9086C34.7771 48.4006 35.3143 49.171 36.9148 49.171C38.282 49.171 39.1827 48.444 39.1827 46.5559ZM21.2947 40.1104L22.7705 44.0982H19.7702L21.246 40.1104H21.2947ZM33.3068 39.0959C34.8368 39.0959 35.5259 39.8229 35.5259 40.7832C35.5259 41.8412 34.7175 42.4759 33.3068 42.4759H31.2723V39.0959H33.3068Z" fill="white"/>
</svg>
