<svg width="64" height="64" viewBox="0 0 64 64" fill="none" xmlns="http://www.w3.org/2000/svg">
<path d="M16.1107 34.5292C16.1107 35.2915 15.6414 35.9752 14.93 36.2491L5.27539 39.9667V19.1061C5.27539 17.4624 6.15102 15.9432 7.57328 15.1192L30.4614 1.85938L31.7644 9.50362L16.1107 21.649V34.5292Z" fill="url(#paint0_linear_4987_38271)"/>
<path d="M16.041 11.4586C16.0401 14.4989 16.1114 22.8032 16.1114 22.8032L32.6645 12.7862V4.96913C32.6645 2.80172 30.2839 1.47726 28.4423 2.62007L17.9084 9.1567C16.5881 9.88636 16.0414 10.3011 16.041 11.4586Z" fill="url(#paint1_linear_4987_38271)"/>
<path d="M42.2317 45.5279C42.8984 45.1581 43.7239 45.2369 44.3085 45.7262L52.2424 52.3658L34.0001 62.4841C32.5627 63.2814 30.8094 63.2526 29.399 62.4085L6.70162 48.8247L12.7544 43.9775L30.9682 51.7753L42.2317 45.5279Z" fill="url(#paint2_linear_4987_38271)"/>
<path d="M22.0869 56.7779C24.746 55.304 31.9734 51.2138 31.9734 51.2138L14.2868 40.7813L7.29762 44.6579C5.41219 45.7037 5.39626 48.4093 7.26924 49.4772L19.1681 56.2614C20.4466 57.0622 21.0744 57.3391 22.0869 56.7779Z" fill="url(#paint3_linear_4987_38271)"/>
<path d="M36.7688 16.6156C36.1033 16.2437 35.7353 15.5006 35.8432 14.7459L37.3064 4.5043L55.5177 14.6783C56.9527 15.48 57.8519 16.9854 57.8776 18.6289L58.2906 45.0773L50.9817 42.4866L48.0132 22.8974L36.7688 16.6156Z" fill="url(#paint4_linear_4987_38271)"/>
<path d="M56.9407 27.8104C54.2869 26.3268 47.0025 22.3389 47.0025 22.3389L47.454 42.8682L54.4313 46.7661C56.3135 47.8177 58.6215 46.4057 58.5423 44.2512L58.0395 30.5634C58.0465 29.0548 57.9511 28.3753 56.9407 27.8104Z" fill="url(#paint5_linear_4987_38271)"/>
<path d="M31.6831 43.0096L31.6556 32.5277L40.7726 27.2661L40.8033 37.7424L31.6831 43.0096Z" fill="#7D95DD"/>
<path d="M31.6779 43.0065L22.6197 37.7397L22.5835 27.2602L31.6504 32.5247L31.6779 43.0065Z" fill="white"/>
<path d="M31.6521 32.5258L22.5851 27.2613L31.7109 21.9973L40.7691 27.2642L31.6521 32.5258Z" fill="#B7D6FF"/>
<defs>
<linearGradient id="paint0_linear_4987_38271" x1="18.5199" y1="1.85941" x2="18.5199" y2="38.8288" gradientUnits="userSpaceOnUse">
<stop stop-color="#E9EAFF"/>
<stop offset="1" stop-color="#BADBFF"/>
</linearGradient>
<linearGradient id="paint1_linear_4987_38271" x1="27.2029" y1="-2.78726" x2="20.9921" y2="21.6653" gradientUnits="userSpaceOnUse">
<stop stop-color="#E9EAFF"/>
<stop offset="1" stop-color="#8DA5E5"/>
</linearGradient>
<linearGradient id="paint2_linear_4987_38271" x1="12.4938" y1="59.2674" x2="44.8232" y2="41.3356" gradientUnits="userSpaceOnUse">
<stop stop-color="#E9EAFF"/>
<stop offset="1" stop-color="#BADBFF"/>
</linearGradient>
<linearGradient id="paint3_linear_4987_38271" x1="4.21498" y1="53.9269" x2="28.611" y2="47.4975" gradientUnits="userSpaceOnUse">
<stop stop-color="#E9EAFF"/>
<stop offset="1" stop-color="#8DA5E5"/>
</linearGradient>
<linearGradient id="paint4_linear_4987_38271" x1="64.1146" y1="34.6523" x2="31.8402" y2="16.6217" gradientUnits="userSpaceOnUse">
<stop stop-color="#E9EAFF"/>
<stop offset="1" stop-color="#BADBFF"/>
</linearGradient>
<linearGradient id="paint5_linear_4987_38271" x1="63.9335" y1="44.5027" x2="45.6155" y2="27.1548" gradientUnits="userSpaceOnUse">
<stop stop-color="#E9EAFF"/>
<stop offset="1" stop-color="#8DA5E5"/>
</linearGradient>
</defs>
</svg>
