<svg width="42" height="42" viewBox="0 0 42 42" fill="none" xmlns="http://www.w3.org/2000/svg">
<rect width="42" height="42" rx="21" fill="#0C111B"/>
<path d="M21.0011 15.7969C18.1786 15.7969 15.8398 18.0953 15.8398 20.9582C15.8398 23.8211 18.1382 26.1195 21.0011 26.1195C23.864 26.1195 26.1624 23.7807 26.1624 20.9582C26.1624 18.1356 23.8237 15.7969 21.0011 15.7969ZM21.0011 24.2646C19.1866 24.2646 17.6947 22.7727 17.6947 20.9582C17.6947 19.1436 19.1866 17.6517 21.0011 17.6517C22.8157 17.6517 24.3076 19.1436 24.3076 20.9582C24.3076 22.7727 22.8157 24.2646 21.0011 24.2646Z" fill="#833AB4"/>
<path d="M26.3627 16.8465C27.0085 16.8465 27.5321 16.323 27.5321 15.6772C27.5321 15.0314 27.0085 14.5078 26.3627 14.5078C25.7169 14.5078 25.1934 15.0314 25.1934 15.6772C25.1934 16.323 25.7169 16.8465 26.3627 16.8465Z" fill="#833AB4"/>
<path d="M29.3871 12.6532C28.3387 11.5645 26.8468 11 25.1532 11H16.8468C13.3387 11 11 13.3387 11 16.8468V25.1129C11 26.8468 11.5645 28.3387 12.6935 29.4274C13.7823 30.4758 15.2339 31 16.8871 31H25.1129C26.8468 31 28.2984 30.4355 29.3468 29.4274C30.4355 28.379 31 26.8871 31 25.1532V16.8468C31 15.1532 30.4355 13.7016 29.3871 12.6532ZM29.2258 25.1532C29.2258 26.4032 28.7823 27.4113 28.0565 28.0968C27.3306 28.7823 26.3226 29.1452 25.1129 29.1452H16.8871C15.6774 29.1452 14.6694 28.7823 13.9435 28.0968C13.2177 27.371 12.8548 26.3629 12.8548 25.1129V16.8468C12.8548 15.6371 13.2177 14.629 13.9435 13.9032C14.629 13.2177 15.6774 12.8548 16.8871 12.8548H25.1935C26.4032 12.8548 27.4113 13.2177 28.1371 13.9435C28.8226 14.6694 29.2258 15.6774 29.2258 16.8468V25.1532Z" fill="#833AB4"/>
</svg>
