<svg width="42" height="42" viewBox="0 0 42 42" fill="none" xmlns="http://www.w3.org/2000/svg">
<rect width="42" height="42" rx="21" fill="#0C111B"/>
<path d="M13.3642 11C11.9332 11 11 11.9153 11 13.1358C11 14.3562 11.9332 15.2715 13.3642 15.2715C14.8573 15.2715 15.7284 14.2952 15.7284 13.1358C15.7284 11.9153 14.8573 11 13.3642 11Z" fill="#6B7280"/>
<path d="M25.8695 16.7363C23.6298 16.7363 22.6343 17.9568 22.0744 18.8111V16.9804H17.8438C17.906 18.1398 17.8438 29.4289 17.8438 29.4289H22.0744V22.5334C22.0744 22.1673 22.0744 21.8011 22.1988 21.496C22.5099 20.7638 23.1943 19.9705 24.3763 19.9705C25.9317 19.9705 26.4917 21.1299 26.4917 22.7775V29.4289H30.7223V22.3503C30.7223 18.506 28.607 16.7363 25.8695 16.7363Z" fill="#6B7280"/>
<path d="M15.4806 16.9805H11.25V29.4289H15.4806V16.9805Z" fill=""/>
<path d="M15.4795 29.4896H11.2489V16.9801H15.4795V29.4896ZM13.3642 15.3325C11.9332 15.3325 11 14.3562 11 13.1358C11 11.9153 11.9332 11 13.3642 11C14.7951 11 15.7284 11.9153 15.7284 13.1358C15.7284 14.3562 14.8573 15.3325 13.3642 15.3325ZM30.7222 29.4896H26.4916V22.7772C26.4916 21.1296 25.8694 19.9702 24.3763 19.9702C23.1942 19.9702 22.5098 20.7635 22.1987 21.4957C22.0743 21.7398 22.0743 22.106 22.0743 22.5331V29.4896H17.8437C17.8437 29.4896 17.9059 18.2006 17.8437 17.0412H22.0743V18.8108C22.6342 17.9565 23.6297 16.736 25.8694 16.736C28.6691 16.736 30.7222 18.5057 30.7222 22.35V29.4896Z" fill="#00acee"/>
</svg>
