<svg width="30" height="30" viewBox="0 0 30 30" fill="none" xmlns="http://www.w3.org/2000/svg">
<path d="M25 24.6562V23.4062C25 22.6562 24.5 22.1562 23.75 22.1562H6.25C5.5 22.1562 5 22.6562 5 23.4062V24.6562H3.75C3 24.6562 2.5 25.1562 2.5 25.9062V27.1562H27.5V25.9062C27.5 25.1562 27 24.6562 26.25 24.6562H25Z" fill="#D1D5DB"/>
<path opacity="0.3" d="M27.5 8.40625V9.65625C27.5 10.4062 27 10.9062 26.25 10.9062H22.5C23.25 10.9062 23.75 11.4062 23.75 12.1562C23.75 12.9063 23.25 13.4062 22.5 13.4062V19.6562C23.25 19.6562 23.75 20.1562 23.75 20.9062V22.1562H18.75V20.9062C18.75 20.1562 19.25 19.6562 20 19.6562V13.4062C19.25 13.4062 18.75 12.9063 18.75 12.1562C18.75 11.4062 19.25 10.9062 20 10.9062H16.25C17 10.9062 17.5 11.4062 17.5 12.1562C17.5 12.9063 17 13.4062 16.25 13.4062V19.6562C17 19.6562 17.5 20.1562 17.5 20.9062V22.1562H12.5V20.9062C12.5 20.1562 13 19.6562 13.75 19.6562V13.4062C13 13.4062 12.5 12.9063 12.5 12.1562C12.5 11.4062 13 10.9062 13.75 10.9062H10C10.75 10.9062 11.25 11.4062 11.25 12.1562C11.25 12.9063 10.75 13.4062 10 13.4062V19.6562C10.75 19.6562 11.25 20.1562 11.25 20.9062V22.1562H6.25V20.9062C6.25 20.1562 6.75 19.6562 7.5 19.6562V13.4062C6.75 13.4062 6.25 12.9063 6.25 12.1562C6.25 11.4062 6.75 10.9062 7.5 10.9062H3.75C3 10.9062 2.5 10.4062 2.5 9.65625V8.40625L13.75 2.78125C14.5 2.40625 15.5 2.40625 16.375 2.78125L27.5 8.40625ZM15 4.65625C14 4.65625 13.125 5.53125 13.125 6.53125C13.125 7.53125 14 8.40625 15 8.40625C16 8.40625 16.875 7.53125 16.875 6.53125C16.875 5.53125 16 4.65625 15 4.65625Z" fill="#D1D5DB"/>
</svg>
