<svg width="30" height="30" viewBox="0 0 30 30" fill="none" xmlns="http://www.w3.org/2000/svg">
<path fill-rule="evenodd" clip-rule="evenodd" d="M15 27C21.6274 27 27 21.6274 27 15C27 8.37258 21.6274 3 15 3C8.37258 3 3 8.37258 3 15C3 21.6274 8.37258 27 15 27ZM16.5 9C16.5 8.17157 15.8284 7.5 15 7.5C14.1716 7.5 13.5 8.17157 13.5 9V15C13.5 15.3978 13.658 15.7794 13.9393 16.0607L18.182 20.3033C18.7678 20.8891 19.7175 20.8891 20.3033 20.3033C20.8891 19.7175 20.8891 18.7678 20.3033 18.182L16.5 14.3787V9Z" fill="#D1D5DB"/>
</svg>
