<svg width="30" height="30" viewBox="0 0 30 30" fill="none" xmlns="http://www.w3.org/2000/svg">
<g clip-path="url(#clip0_5257_4341)">
<path opacity="0.3" fill-rule="evenodd" clip-rule="evenodd" d="M4.84608 4.6829L27.7868 10.8299C28.4536 11.0085 28.8494 11.6939 28.6707 12.3608L25.4355 24.4349C25.2568 25.1017 24.5714 25.4974 23.9045 25.3187L0.963793 19.1718C0.29696 18.9931 -0.0987676 18.3077 0.0799098 17.6409L3.31515 5.56678C3.49383 4.89995 4.17925 4.50422 4.84608 4.6829ZM13.0812 19.8304C15.7485 20.5452 18.4902 18.9622 19.2049 16.2949C19.9196 13.6276 18.3367 10.8859 15.6694 10.1712C13.0021 9.45648 10.2604 11.0394 9.54568 13.7067C8.83097 16.3741 10.4139 19.1157 13.0812 19.8304Z" fill="#D1D5DB"/>
<path fill-rule="evenodd" clip-rule="evenodd" d="M2.5 7.5H26.25C26.9404 7.5 27.5 8.05964 27.5 8.75V21.25C27.5 21.9404 26.9404 22.5 26.25 22.5H2.5C1.80964 22.5 1.25 21.9404 1.25 21.25V8.75C1.25 8.05964 1.80964 7.5 2.5 7.5ZM14.375 20C17.1364 20 19.375 17.7614 19.375 15C19.375 12.2386 17.1364 10 14.375 10C11.6136 10 9.375 12.2386 9.375 15C9.375 17.7614 11.6136 20 14.375 20ZM14.375 17.5C15.7557 17.5 16.875 16.3807 16.875 15C16.875 13.6193 15.7557 12.5 14.375 12.5C12.9943 12.5 11.875 13.6193 11.875 15C11.875 16.3807 12.9943 17.5 14.375 17.5Z" fill="#D1D5DB"/>
</g>
<defs>
<clipPath id="clip0_5257_4341">
<rect width="30" height="30" fill="white"/>
</clipPath>
</defs>
</svg>
