<svg width="30" height="30" viewBox="0 0 30 30" fill="none" xmlns="http://www.w3.org/2000/svg">
<path opacity="0.3" d="M21.25 10.0009C20.5596 10.0009 20 9.44122 20 8.75087C20 8.06051 20.5596 7.50087 21.25 7.50087H22.5C25.2614 7.50087 27.5 9.73944 27.5 12.5009V22.5009C27.5 25.2623 25.2614 27.5009 22.5 27.5009H7.5C4.73858 27.5009 2.5 25.2623 2.5 22.5009V12.4922C2.5 9.73076 4.73858 7.49219 7.5 7.49219H8.75001C9.44036 7.49219 10 8.05183 10 8.74219C10 9.43254 9.44036 9.99219 8.75001 9.99219H7.5C6.11929 9.99219 5 11.1115 5 12.4922V22.5009C5 23.8816 6.11929 25.0009 7.5 25.0009H22.5C23.8807 25.0009 25 23.8816 25 22.5009V12.5009C25 11.1202 23.8807 10.0009 22.5 10.0009H21.25Z" fill="#D1D5DB"/>
<path opacity="0.3" d="M13.75 3.75C13.75 3.05964 14.3096 2.5 15 2.5C15.6904 2.5 16.25 3.05964 16.25 3.75V16.25C16.25 16.9404 15.6904 17.5 15 17.5C14.3096 17.5 13.75 16.9404 13.75 16.25L13.75 3.75Z" fill="#D1D5DB"/>
<path d="M15 3.01777L17.8661 5.88388C18.3543 6.37204 19.1457 6.37204 19.6339 5.88388C20.122 5.39573 20.122 4.60427 19.6339 4.11612L15.8839 0.366117C15.3957 -0.122039 14.6043 -0.122039 14.1161 0.366117L10.3661 4.11612C9.87796 4.60427 9.87796 5.39573 10.3661 5.88388C10.8543 6.37204 11.6457 6.37204 12.1339 5.88388L15 3.01777Z" fill="#D1D5DB"/>
</svg>
