<svg width="30" height="30" viewBox="0 0 30 30" fill="none" xmlns="http://www.w3.org/2000/svg">
<path fill-rule="evenodd" clip-rule="evenodd" d="M15 10.0002H10C7.23858 10.0002 5 12.2388 5 15.0002V16.2502C5 18.3213 6.67893 20.0002 8.75 20.0002V22.5002C5.29822 22.5002 2.5 19.702 2.5 16.2502V15.0002C2.5 10.8581 5.85786 7.5002 10 7.5002H15V5.91019C15 5.77539 15.0436 5.64419 15.1243 5.53618C15.3308 5.25963 15.7225 5.20289 15.999 5.40945L19.5703 8.07691C19.6189 8.11322 19.662 8.15642 19.6982 8.20515C19.9039 8.48232 19.846 8.87379 19.5688 9.07951L15.9975 11.7302C15.8898 11.8102 15.7592 11.8534 15.625 11.8534C15.2798 11.8534 15 11.5736 15 11.2284V10.0002Z" fill="#E5E7EB"/>
<path opacity="0.3" fill-rule="evenodd" clip-rule="evenodd" d="M15.0733 20H20.0004C22.7618 20 25.0004 17.7614 25.0004 15V13.75C25.0004 11.6789 23.3215 10 21.2504 10V7.5C24.7022 7.5 27.5004 10.2982 27.5004 13.75V15C27.5004 19.1421 24.1425 22.5 20.0004 22.5H15.0733V23.7282C15.0733 24.0734 14.7935 24.3532 14.4483 24.3532C14.3141 24.3532 14.1835 24.31 14.0758 24.23L10.5045 21.5793C10.2273 21.3736 10.1694 20.9821 10.3751 20.7049C10.4113 20.6562 10.4544 20.613 10.503 20.5767L14.0743 17.9093C14.3508 17.7027 14.7425 17.7594 14.949 18.036C15.0297 18.144 15.0733 18.2752 15.0733 18.41V20Z" fill="#E5E7EB"/>
</svg>
