<svg width="30" height="30" viewBox="0 0 30 30" fill="none" xmlns="http://www.w3.org/2000/svg">
<path fill-rule="evenodd" clip-rule="evenodd" d="M8.75 3.75H21.25C24.0114 3.75 26.25 5.98858 26.25 8.75C26.25 11.5114 24.0114 13.75 21.25 13.75H8.75C5.98858 13.75 3.75 11.5114 3.75 8.75C3.75 5.98858 5.98858 3.75 8.75 3.75ZM8.75 11.25C10.1307 11.25 11.25 10.1307 11.25 8.75C11.25 7.36929 10.1307 6.25 8.75 6.25C7.36929 6.25 6.25 7.36929 6.25 8.75C6.25 10.1307 7.36929 11.25 8.75 11.25Z" fill="#D1D5DB"/>
<path opacity="0.3" fill-rule="evenodd" clip-rule="evenodd" d="M8.75 16.25H21.25C24.0114 16.25 26.25 18.4886 26.25 21.25C26.25 24.0114 24.0114 26.25 21.25 26.25H8.75C5.98858 26.25 3.75 24.0114 3.75 21.25C3.75 18.4886 5.98858 16.25 8.75 16.25ZM21.25 23.75C22.6307 23.75 23.75 22.6307 23.75 21.25C23.75 19.8693 22.6307 18.75 21.25 18.75C19.8693 18.75 18.75 19.8693 18.75 21.25C18.75 22.6307 19.8693 23.75 21.25 23.75Z" fill="#D1D5DB"/>
</svg>
