<svg width="30" height="30" viewBox="0 0 30 30" fill="none" xmlns="http://www.w3.org/2000/svg">
<path opacity="0.3" d="M18.1247 25.9074C18.2497 26.5324 17.7497 27.2825 17.1247 27.4075C16.4997 27.5325 15.7497 27.5324 15.1247 27.5324C11.8747 27.5324 8.62466 26.2824 6.24966 23.9074C1.74966 19.4074 1.37463 12.1574 5.37463 7.2824L7.12467 9.03244C4.12467 12.9074 4.49964 18.5324 7.99964 22.1574C10.2496 24.4074 13.4997 25.5325 16.7497 24.9075C17.3747 24.7825 17.9997 25.2824 18.1247 25.9074ZM22.9997 21.0324L24.7497 22.7824C28.6247 17.9074 28.3747 10.6574 23.7497 6.15742C20.8747 3.28242 16.8747 2.03243 12.8747 2.65743C12.2496 2.78243 11.7497 3.40744 11.8747 4.03244C11.9997 4.65744 12.6247 5.15743 13.2497 5.03243C16.3747 4.53243 19.6247 5.53244 21.9997 7.78244C25.6247 11.5324 25.8747 17.1574 22.9997 21.0324Z" fill="#D1D5DB"/>
<path d="M2.5 4.5332H8.75C9.5 4.5332 10 5.0332 10 5.7832V12.0332L2.5 4.5332ZM20 18.0332V24.2832C20 25.0332 20.5 25.5332 21.25 25.5332H27.5L20 18.0332Z" fill="#D1D5DB"/>
</svg>
