<svg width="30" height="30" viewBox="0 0 30 30" fill="none" xmlns="http://www.w3.org/2000/svg">
<path opacity="0.3" d="M21.25 10.25V4H8.75V10.25C8.75 10.625 8.875 10.875 9.125 11.125L13.25 15.25L9.125 19.375C8.875 19.625 8.75 19.875 8.75 20.25V26.5H21.25V20.25C21.25 19.875 21.125 19.625 20.875 19.375L16.75 15.25L20.875 11.125C21.125 10.875 21.25 10.625 21.25 10.25Z" fill="#D1D5DB"/>
<path d="M22.5 5.25H7.5C6.75 5.25 6.25 4.75 6.25 4C6.25 3.25 6.75 2.75 7.5 2.75H22.5C23.25 2.75 23.75 3.25 23.75 4C23.75 4.75 23.25 5.25 22.5 5.25ZM22.5 25.25H18.75V22.75L15.875 19.875C15.375 19.375 14.625 19.375 14.125 19.875L11.25 22.75V25.25H7.5C6.75 25.25 6.25 25.75 6.25 26.5C6.25 27.25 6.75 27.75 7.5 27.75H22.5C23.25 27.75 23.75 27.25 23.75 26.5C23.75 25.75 23.25 25.25 22.5 25.25ZM11.75 10.25L14.125 12.625C14.625 13.125 15.375 13.125 15.875 12.625L18.25 10.25H11.75Z" fill="#D1D5DB"/>
</svg>
