<svg width="18" height="18" viewBox="0 0 18 18" fill="none" xmlns="http://www.w3.org/2000/svg">
<path fill-rule="evenodd" clip-rule="evenodd" d="M8.91346 0.125C6.37173 2.2985 2.25 2.43023 2.25 2.43023V8.22623C2.25 11.7829 8.91346 15.875 8.91346 15.875C8.91346 15.875 15.5769 11.7829 15.5769 8.22623V2.43023C15.5769 2.43023 11.4552 2.2985 8.91346 0.125ZM7.27807 6.98127L8.46511 7.67144L10.8693 6.27095L7.33324 4.21219C7.27974 4.18197 7.21286 4.19876 7.1811 4.25249C7.17107 4.26929 7.16605 4.28944 7.16605 4.30959V6.78648C7.16605 6.86708 7.20785 6.94097 7.27807 6.98127ZM7.16602 9.10465C7.16602 9.02404 7.20781 8.95016 7.27803 8.90985L11.3357 6.54883V9.28601C11.334 9.32631 11.3123 9.36325 11.2772 9.3834L7.3332 11.6789C7.2797 11.7092 7.21116 11.6924 7.18106 11.6386C7.17103 11.6218 7.16602 11.6017 7.16602 11.5815V9.10465Z" fill="#0089CF"/>
</svg>
