<svg width="76" height="76" viewBox="0 0 76 76" fill="none" xmlns="http://www.w3.org/2000/svg">
<path d="M35 1.73205C36.8564 0.660253 39.1436 0.660254 41 1.73205L67.909 17.268C69.7654 18.3397 70.909 20.3205 70.909 22.4641V53.5359C70.909 55.6795 69.7654 57.6603 67.909 58.7321L41 74.268C39.1436 75.3397 36.8564 75.3397 35 74.268L8.09103 58.7321C6.23463 57.6603 5.09103 55.6795 5.09103 53.5359V22.4641C5.09103 20.3205 6.23463 18.3397 8.09103 17.268L35 1.73205Z" fill="#0C111B"/>
<path d="M37.7086 25.2676L48.63 31.5731V44.184L37.7086 50.4895L26.7872 44.184V31.5731L37.7086 25.2676Z" fill="url(#paint0_linear_4913_36380)"/>
<path d="M37.707 37.8792L48.6283 31.5762V44.1822L37.707 50.503L37.707 37.8792Z" fill="url(#paint1_linear_4913_36380)"/>
<path d="M37.7075 44.8145L43.7143 41.3464L43.7143 34.4104L37.7075 30.9424L31.7007 34.4104L31.7007 41.3464L37.7075 44.8145Z" fill="url(#paint2_linear_4913_36380)"/>
<path opacity="0.4" fill-rule="evenodd" clip-rule="evenodd" d="M37.7074 18.2617L54.6961 28.0701V47.687L37.7074 57.4954L20.7188 47.687V28.0701L37.7074 18.2617ZM21.3299 28.423V47.3341L37.7074 56.7897L54.085 47.3341V28.423L37.7074 18.9674L21.3299 28.423Z" fill="#BEDCFF"/>
<circle cx="37.708" cy="18.503" r="1.89164" fill="#3290FF"/>
<circle cx="37.708" cy="57.1202" r="1.89164" fill="#3290FF"/>
<circle cx="21.3135" cy="28.2745" r="1.89164" fill="#3290FF"/>
<circle cx="54.1026" cy="28.2745" r="1.89164" fill="#3290FF"/>
<circle cx="21.3135" cy="47.3487" r="1.89164" fill="#3290FF"/>
<circle cx="54.1026" cy="47.3487" r="1.89164" fill="#3290FF"/>
<defs>
<linearGradient id="paint0_linear_4913_36380" x1="37.6862" y1="25.2069" x2="39.5088" y2="50.7096" gradientUnits="userSpaceOnUse">
<stop stop-color="#3099FF"/>
<stop offset="1" stop-color="#3D5CFF"/>
</linearGradient>
<linearGradient id="paint1_linear_4913_36380" x1="38.9149" y1="41.0562" x2="43.1677" y2="50.503" gradientUnits="userSpaceOnUse">
<stop stop-color="#003FD0"/>
<stop offset="1" stop-color="#2A60DD" stop-opacity="0"/>
</linearGradient>
<linearGradient id="paint2_linear_4913_36380" x1="35.458" y1="32.8054" x2="35.458" y2="44.8145" gradientUnits="userSpaceOnUse">
<stop stop-color="#2CB2FF" stop-opacity="0"/>
<stop offset="1" stop-color="#1FAEFF"/>
</linearGradient>
</defs>
</svg>
