<svg width="76" height="76" viewBox="0 0 76 76" fill="none" xmlns="http://www.w3.org/2000/svg">
<path d="M35 1.73205C36.8564 0.660253 39.1436 0.660254 41 1.73205L67.909 17.268C69.7654 18.3397 70.909 20.3205 70.909 22.4641V53.5359C70.909 55.6795 69.7654 57.6603 67.909 58.7321L41 74.268C39.1436 75.3397 36.8564 75.3397 35 74.268L8.09103 58.7321C6.23463 57.6603 5.09103 55.6795 5.09103 53.5359V22.4641C5.09103 20.3205 6.23463 18.3397 8.09103 17.268L35 1.73205Z" fill="#0C111B"/>
<path d="M55.1076 27.8475C55.9224 27.3731 56.9448 27.9609 56.9448 28.9037V45.1607C56.9448 45.8122 56.5991 46.4147 56.0368 46.7435L36.6906 58.0536C35.8758 58.5299 34.8516 57.9422 34.8516 56.9984V41.7487C34.8516 40.4435 35.5454 39.2367 36.6734 38.58L55.1076 27.8475Z" fill="url(#paint0_linear_4913_36414)" fill-opacity="0.91"/>
<path opacity="0.4" d="M47.3088 23.1131C48.1236 22.6387 49.146 23.2265 49.146 24.1694V39.3304C49.146 40.6311 48.4569 41.8345 47.335 42.4928L28.8935 53.3142C28.0787 53.7923 27.0527 53.2047 27.0527 52.26V37.0144C27.0527 35.7091 27.7466 34.5023 28.8745 33.8456L47.3088 23.1131Z" fill="url(#paint1_linear_4913_36414)" fill-opacity="0.91"/>
<path opacity="0.4" d="M39.51 18.3787C40.3248 17.9044 41.3472 18.4922 41.3472 19.435V34.596C41.3472 35.8968 40.658 37.1002 39.5362 37.7584L21.0947 48.5798C20.2799 49.0579 19.2539 48.4704 19.2539 47.5257V32.28C19.2539 30.9748 19.9477 29.768 21.0757 29.1112L39.51 18.3787Z" fill="url(#paint2_linear_4913_36414)" fill-opacity="0.91"/>
<defs>
<linearGradient id="paint0_linear_4913_36414" x1="30.3601" y1="65.8059" x2="62.6263" y2="26.7778" gradientUnits="userSpaceOnUse">
<stop stop-color="#0295C9"/>
<stop offset="1" stop-color="#0CD2E1"/>
</linearGradient>
<linearGradient id="paint1_linear_4913_36414" x1="45.6379" y1="44.417" x2="45.0268" y2="23.6392" gradientUnits="userSpaceOnUse">
<stop stop-color="#00A1D3"/>
<stop offset="1" stop-color="#00DBEC"/>
</linearGradient>
<linearGradient id="paint2_linear_4913_36414" x1="37.8391" y1="39.6828" x2="37.228" y2="18.905" gradientUnits="userSpaceOnUse">
<stop stop-color="#00A1D3"/>
<stop offset="1" stop-color="#00DBEC"/>
</linearGradient>
</defs>
</svg>
