<svg width="42" height="42" viewBox="0 0 42 42" fill="none" xmlns="http://www.w3.org/2000/svg">
<rect width="42" height="42" rx="21" fill="#0C111B"/>
<path d="M31 14.9236C30.2648 15.2503 29.4735 15.4707 28.6433 15.5694C29.491 15.062 30.1409 14.2583 30.4475 13.2996C29.6546 13.77 28.7768 14.1114 27.8418 14.2956C27.0936 13.4985 26.0271 13 24.8469 13C22.5811 13 20.744 14.8367 20.744 17.1025C20.744 17.4236 20.7802 17.7365 20.8504 18.0373C17.4401 17.866 14.4164 16.233 12.3925 13.7509C12.0393 14.3565 11.8371 15.0612 11.8371 15.8137C11.8371 17.2368 12.5614 18.4927 13.6624 19.2282C12.9901 19.2067 12.3572 19.022 11.8038 18.7147C11.8034 18.7318 11.8034 18.7492 11.8034 18.7667C11.8034 20.754 13.2179 22.4117 15.0952 22.7892C14.7509 22.8826 14.3883 22.9329 14.014 22.9329C13.7493 22.9329 13.4923 22.9073 13.2418 22.859C13.7643 24.4887 15.2795 25.6752 17.0747 25.7081C15.6704 26.8085 13.9016 27.4644 11.9788 27.4644C11.648 27.4644 11.3211 27.4449 11 27.4068C12.8164 28.5713 14.973 29.25 17.2899 29.25C24.8376 29.25 28.9644 22.9991 28.9644 17.5778C28.9644 17.4 28.9607 17.2226 28.953 17.0465C29.7544 16.4693 30.4503 15.7464 31 14.9236Z" fill="#0e76a8"/>
</svg>
