<svg width="42" height="42" viewBox="0 0 42 42" fill="none" xmlns="http://www.w3.org/2000/svg">
<rect width="42" height="42" rx="21" fill="#0C111B"/>
<path fill-rule="evenodd" clip-rule="evenodd" d="M30.0053 14.1191C30.6049 14.7668 30.7999 16.2379 30.7999 16.2379C30.7999 16.2379 31 17.9641 31 19.6908V21.3088C31 23.0356 30.7999 24.7618 30.7999 24.7618C30.7999 24.7618 30.6043 26.2323 30.0053 26.8787C29.3194 27.6441 28.5592 27.7236 28.1299 27.7684C28.083 27.7733 28.04 27.7778 28.0016 27.7827C25.2026 27.9972 21 28.0047 21 28.0047C21 28.0047 15.7996 27.954 14.1997 27.7902C14.124 27.7751 14.0323 27.7634 13.9284 27.75C13.4218 27.6849 12.6266 27.5827 11.9947 26.8781C11.3951 26.2316 11.2001 24.7612 11.2001 24.7612C11.2001 24.7612 11 23.0356 11 21.3082V19.6902C11 17.9641 11.2001 16.2379 11.2001 16.2379C11.2001 16.2379 11.3957 14.7668 11.9947 14.1191C12.6836 13.351 13.4463 13.2737 13.8747 13.2303C13.9198 13.2257 13.9612 13.2215 13.9984 13.2169C16.7968 13 20.995 13 20.995 13H21.0044C21.0044 13 25.2026 13 28.0016 13.2169C28.0388 13.2215 28.0802 13.2257 28.1254 13.2303C28.5539 13.2737 29.317 13.351 30.0053 14.1191ZM24.7539 20.5012L18.502 24.2523V16.75L24.7539 20.5012Z" fill="#c4302b"/>
</svg>
