<svg width="30" height="30" viewBox="0 0 30 30" fill="none" xmlns="http://www.w3.org/2000/svg">
<path d="M26.25 8.75H3.75C3 8.75 2.5 8.25 2.5 7.5V5C2.5 4.25 3 3.75 3.75 3.75H26.25C27 3.75 27.5 4.25 27.5 5V7.5C27.5 8.25 27 8.75 26.25 8.75Z" fill="#D1D5DB"/>
<path opacity="0.3" d="M26.25 17.5H3.75C3 17.5 2.5 17 2.5 16.25V13.75C2.5 13 3 12.5 3.75 12.5H26.25C27 12.5 27.5 13 27.5 13.75V16.25C27.5 17 27 17.5 26.25 17.5ZM27.5 25V22.5C27.5 21.75 27 21.25 26.25 21.25H3.75C3 21.25 2.5 21.75 2.5 22.5V25C2.5 25.75 3 26.25 3.75 26.25H26.25C27 26.25 27.5 25.75 27.5 25Z" fill="#D1D5DB"/>
</svg>
