<svg width="30" height="30" viewBox="0 0 30 30" fill="none" xmlns="http://www.w3.org/2000/svg">
<path fill-rule="evenodd" clip-rule="evenodd" d="M15 27C21.6274 27 27 21.6274 27 15C27 8.37258 21.6274 3 15 3C8.37258 3 3 8.37258 3 15C3 21.6274 8.37258 27 15 27ZM14.3321 10.7519C13.8718 10.4451 13.2799 10.4165 12.7922 10.6775C12.3045 10.9385 12 11.4468 12 12V18C12 18.5532 12.3045 19.0615 12.7922 19.3225C13.2799 19.5835 13.8718 19.5549 14.3321 19.2481L18.8321 16.2481C19.2493 15.9699 19.5 15.5015 19.5 15C19.5 14.4985 19.2493 14.0301 18.8321 13.7519L14.3321 10.7519Z" fill="#2563eb"/>
</svg>
