<svg width="30" height="30" viewBox="0 0 30 30" fill="none" xmlns="http://www.w3.org/2000/svg">
<path opacity="0.3" fill-rule="evenodd" clip-rule="evenodd" d="M23.125 10C21.3991 10 20 8.60089 20 6.875C20 5.14911 21.3991 3.75 23.125 3.75C24.8509 3.75 26.25 5.14911 26.25 6.875C26.25 8.60089 24.8509 10 23.125 10ZM23.125 26.25C21.3991 26.25 20 24.8509 20 23.125C20 21.3991 21.3991 20 23.125 20C24.8509 20 26.25 21.3991 26.25 23.125C26.25 24.8509 24.8509 26.25 23.125 26.25ZM6.875 26.25C5.14911 26.25 3.75 24.8509 3.75 23.125C3.75 21.3991 5.14911 20 6.875 20C8.60089 20 10 21.3991 10 23.125C10 24.8509 8.60089 26.25 6.875 26.25Z" fill="#D1D5DB"/>
<path fill-rule="evenodd" clip-rule="evenodd" d="M6.875 10C5.14911 10 3.75 8.60089 3.75 6.875C3.75 5.14911 5.14911 3.75 6.875 3.75C8.60089 3.75 10 5.14911 10 6.875C10 8.60089 8.60089 10 6.875 10ZM13.75 5H16.25C16.9404 5 17.5 5.55964 17.5 6.25C17.5 6.94036 16.9404 7.5 16.25 7.5H13.75C13.0596 7.5 12.5 6.94036 12.5 6.25C12.5 5.55964 13.0596 5 13.75 5ZM13.75 22.5H16.25C16.9404 22.5 17.5 23.0596 17.5 23.75C17.5 24.4404 16.9404 25 16.25 25H13.75C13.0596 25 12.5 24.4404 12.5 23.75C12.5 23.0596 13.0596 22.5 13.75 22.5ZM6.25 12.5C6.94036 12.5 7.5 13.0596 7.5 13.75V16.25C7.5 16.9404 6.94036 17.5 6.25 17.5C5.55964 17.5 5 16.9404 5 16.25V13.75C5 13.0596 5.55964 12.5 6.25 12.5ZM23.75 12.5C24.4404 12.5 25 13.0596 25 13.75V16.25C25 16.9404 24.4404 17.5 23.75 17.5C23.0596 17.5 22.5 16.9404 22.5 16.25V13.75C22.5 13.0596 23.0596 12.5 23.75 12.5Z" fill="#D1D5DB"/>
</svg>
