<svg width="116" height="14" viewBox="0 0 116 14" fill="none" xmlns="http://www.w3.org/2000/svg">
<path d="M0 0C0.241509 0.0746548 0.478736 0.162517 0.710609 0.263189L4.12329 1.59668L6.86045 2.63189L8.20271 3.15826L8.32553 3.2109L7.89566 3.43023C7.40437 3.64955 6.91309 3.88642 6.43935 4.14083C5.96561 4.39525 5.41291 4.71108 4.91286 5.01813C4.4128 5.32518 4.16715 5.51819 3.80746 5.79015C3.74605 5.79015 3.70219 5.84279 3.64955 5.79015C3.10188 5.19153 2.58927 4.56175 2.11428 3.90396C1.66714 3.2927 1.25418 2.65715 0.877296 2.00023C0.577661 1.44096 0.319623 0.860371 0.105275 0.263189L0 0Z" fill="white"/>
<path d="M17.1168 6.68436L16.2395 7.03528L14.634 7.65815L12.8268 8.35999L10.9845 9.08815C10.3967 9.31624 9.79136 9.52679 9.22989 9.78121C9.12845 9.82922 9.01566 9.84807 8.90411 9.83568C8.79257 9.82329 8.68667 9.78013 8.59824 9.71103L7.61567 9.10569C7.10484 8.78931 6.61274 8.44367 6.14181 8.07048C5.7558 7.7722 5.37856 7.45638 5.01887 7.13178C4.88422 6.9938 4.74062 6.86485 4.589 6.74577C4.53636 6.7019 4.54513 6.65804 4.589 6.61417L5.26451 6.01761L5.93126 5.46492C6.28218 5.17541 6.65064 4.91222 7.02788 4.64903C7.6102 4.23794 8.21342 3.85726 8.83511 3.50855C8.8628 3.49147 8.89469 3.48242 8.92722 3.48242C8.95976 3.48242 8.99165 3.49147 9.01934 3.50855L10.5985 4.12265L13.5199 5.26314L16.9501 6.59663C17.0027 6.63172 17.0641 6.63172 17.1168 6.68436Z" fill="white"/>
<path d="M0 13.3613C0 13.3613 0 13.2999 0 13.2648C0.18904 12.721 0.420784 12.1929 0.693063 11.6857C1.03763 11.0137 1.42746 10.3659 1.85987 9.74684C2.15815 9.31696 2.48275 8.86954 2.82489 8.48353C3.16704 8.09752 3.32495 7.89574 3.57937 7.60624C3.64955 7.51851 3.71096 7.50973 3.80746 7.60624C4.59505 8.20448 5.43141 8.73564 6.30775 9.19414C6.93458 9.53468 7.57882 9.84215 8.23781 10.1153H8.28167L0 13.3613Z" fill="white"/>
<path d="M64.2479 10.8168H65.1866C65.2656 10.8168 65.3007 10.8168 65.3007 10.7027V4.56167C65.3007 4.56167 65.3007 4.56167 65.248 4.51781L61.9143 11.8432L58.4051 4.30726V4.38621C58.4051 6.46833 58.4051 8.54752 58.4051 10.6238C58.4051 10.7729 58.4051 10.808 58.5894 10.808C58.7736 10.808 59.107 10.808 59.3614 10.808C59.4579 10.808 59.493 10.808 59.493 10.9308C59.4798 11.0797 59.4798 11.2294 59.493 11.3783C59.493 11.5011 59.493 11.5274 59.3351 11.5274H56.3961C56.3654 11.2886 56.3654 11.0468 56.3961 10.808H57.4313C57.4313 10.7641 57.4313 10.7115 57.4313 10.6589V2.84217C57.4313 2.78953 57.4313 2.7369 57.4313 2.69303H56.3873C56.3742 2.48854 56.3742 2.28342 56.3873 2.07892C56.3873 1.99119 56.3873 1.98242 56.5014 1.98242H58.9139C58.9754 1.98242 59.0543 1.98242 59.0982 2.03506C59.2392 2.409 59.4003 2.77507 59.5807 3.13168C60.3966 4.88627 61.2212 6.64086 62.0459 8.39545L62.2038 8.72882C62.2038 8.79901 62.2564 8.84287 62.3091 8.72882C62.467 8.36913 62.6425 8.00944 62.8091 7.64975L63.2917 6.597C63.4671 6.21976 63.6338 5.83375 63.8093 5.44774C63.9233 5.19332 64.0549 4.94768 64.169 4.69326C64.4497 4.0967 64.7216 3.49137 65.0462 2.93867C65.1866 2.63162 65.3094 2.31579 65.4761 2.06138H67.9413C67.9413 2.06138 68.0027 2.06138 68.0203 2.06138C68.0203 2.25438 68.0203 2.43862 68.0203 2.63162C68.0203 2.82463 68.0203 2.74567 67.8975 2.74567H67.0903C66.9851 2.74567 66.9412 2.74567 66.9412 2.88604C66.9412 5.51792 66.9412 8.14981 66.9412 10.7817C66.9412 10.8957 66.9412 10.9308 67.0903 10.9221H67.8448C67.9764 10.9221 68.0378 10.9221 68.0203 11.0887C68.0071 11.22 68.0071 11.3523 68.0203 11.4835C68.0203 11.6151 68.0203 11.6414 67.8536 11.6414H64.3444C64.2717 11.3728 64.2392 11.0949 64.2479 10.8168Z" fill="white"/>
<path d="M105.991 10.8149H107.026C107.039 10.7661 107.039 10.7145 107.026 10.6657V3.30522C107.039 3.25338 107.039 3.19914 107.026 3.1473C106.921 2.99816 106.833 2.77007 106.684 2.70866C106.466 2.66839 106.243 2.66839 106.026 2.70866C105.684 2.70866 105.684 2.70866 105.684 2.36651V1.99805C105.684 1.99805 105.745 1.99805 105.78 1.99805H108.079C108.079 1.99805 108.166 1.99805 108.193 1.99805C108.473 2.43669 108.798 2.87534 109.07 3.26135C109.886 4.39306 110.71 5.516 111.535 6.64771C112.009 7.28814 112.483 7.92857 112.948 8.57776C112.948 8.57776 112.948 8.65672 113.035 8.64795C113.123 8.63917 113.035 8.57776 113.035 8.54267C113.035 8.50758 113.035 8.49881 113.035 8.47249C113.035 6.60677 113.035 4.73521 113.035 2.8578C113.035 2.71743 113.035 2.67356 112.86 2.68234C112.684 2.69111 112.342 2.68234 112.079 2.68234C111.974 2.68234 111.947 2.68234 111.947 2.55074C111.947 2.41915 111.947 2.18228 111.947 1.99805C111.991 1.99805 112.035 1.99805 112.079 1.99805H114.834C114.965 1.99805 115.009 1.99805 115 2.16473C114.992 2.33142 115 2.52442 115 2.70866C114.658 2.70866 114.307 2.70866 113.965 2.70866C113.965 2.76129 113.965 2.83148 113.965 2.89289V11.4904C113.965 11.736 113.965 11.7097 113.755 11.7009C113.568 11.7273 113.379 11.7273 113.193 11.7009L112.097 10.2008C111.386 9.23574 110.675 8.27071 109.974 7.29691C109.272 6.32311 108.693 5.54232 108.061 4.66503L107.947 4.38429V10.6131C107.947 10.7622 107.947 10.7973 108.122 10.7973C108.421 10.7973 108.719 10.7973 109 10.7973C109.039 11.0355 109.039 11.2785 109 11.5167H105.982C105.956 11.2833 105.958 11.0475 105.991 10.8149Z" fill="white"/>
<path d="M33.2622 3.15608C33.1569 2.99816 33.078 2.77007 32.92 2.70866C32.7025 2.66859 32.4796 2.66859 32.2621 2.70866C31.9199 2.70866 31.9199 2.70866 31.9199 2.36651V1.99805C31.9199 1.99805 31.9901 1.99805 32.034 1.99805H34.3237C34.3237 1.99805 34.4027 1.99805 34.429 1.99805C34.6746 2.38406 34.9641 2.74375 35.2361 3.11221L37.4469 6.13888L39.2804 8.64795C39.3682 8.64795 39.3418 8.57776 39.3418 8.5339V2.87534C39.3591 2.81515 39.3591 2.7513 39.3418 2.69111H38.4207C38.3154 2.69111 38.2715 2.69111 38.2803 2.55074C38.2891 2.41038 38.2803 2.18228 38.2803 2.00682C38.3242 2.00682 38.368 2.00682 38.4119 2.00682H41.1578C41.2894 2.00682 41.3421 2.00682 41.3245 2.17351C41.307 2.34019 41.3245 2.5332 41.3245 2.71743H40.2805C40.2631 2.78653 40.2631 2.85888 40.2805 2.92798V11.5079C40.2805 11.7536 40.2805 11.7273 40.07 11.7185C39.8838 11.7449 39.6948 11.7449 39.5085 11.7185L38.4119 10.2183C37.6574 9.19479 36.9059 8.16251 36.1573 7.12145L34.4027 4.6738L34.2009 4.38429V4.56852C34.2009 6.5863 34.2009 8.59531 34.2009 10.6131C34.2009 10.7535 34.2009 10.8061 34.3763 10.7973C34.5518 10.7885 34.894 10.7973 35.1484 10.7973C35.2449 10.7973 35.2887 10.7973 35.28 10.9201C35.2711 11.0809 35.2711 11.2419 35.28 11.4027C35.28 11.4904 35.28 11.5167 35.1659 11.5167H32.3322C32.2445 11.5167 32.2094 11.5167 32.2182 11.4027C32.2271 11.2419 32.2271 11.0809 32.2182 10.9201C32.2182 10.8149 32.2182 10.7973 32.3498 10.7973H33.2622C33.2756 10.7485 33.2756 10.697 33.2622 10.6482V3.30522C33.2756 3.25641 33.2756 3.20488 33.2622 3.15608Z" fill="white"/>
<path d="M75.1527 8.14903C75.1527 7.82444 75.1527 7.49984 75.1527 7.18401C75.1527 7.10505 75.1527 7.08751 75.0474 7.08751H72.7401C72.6524 7.08751 72.6436 7.08751 72.6436 7.20156C72.6436 8.35959 72.6436 9.51762 72.6436 10.7107C72.6436 10.7107 72.7314 10.7107 72.7752 10.7107H75.8019C75.8019 10.7107 75.8984 10.7107 75.9335 10.7107V9.47375C76.1848 9.4607 76.4366 9.4607 76.688 9.47375C76.8108 9.47375 76.7757 9.55271 76.7757 9.62289C76.7757 10.0791 76.7757 10.5002 76.7757 11.0002C76.802 11.1835 76.802 11.3696 76.7757 11.5529H70.0205C69.9853 11.3144 69.9853 11.0721 70.0205 10.8336H71.0557C71.0724 10.7853 71.0724 10.7327 71.0557 10.6844V2.85017C71.0557 2.79753 71.0557 2.74489 71.0557 2.69226H70.0117C69.9986 2.48777 69.9986 2.28264 70.0117 2.07815C70.0117 2.00797 70.0117 1.98165 70.1083 1.99042H75.644C75.7047 2.00346 75.7675 2.00346 75.8282 1.99042C75.8282 1.8676 75.8282 1.72723 75.8282 1.60441C76.0851 1.58238 76.3434 1.58238 76.6002 1.60441C76.688 1.60441 76.6704 1.67459 76.6704 1.72723V3.85906C76.6704 3.9117 76.6704 3.97311 76.6704 4.02575H75.9774C75.8809 4.02575 75.8545 4.02575 75.8545 3.90292C75.8545 3.5871 75.8545 3.2625 75.8545 2.94667C75.8545 2.85017 75.8545 2.81508 75.7229 2.81508H72.784C72.705 2.81508 72.67 2.81508 72.67 2.92913C72.67 4.02575 72.67 5.13114 72.67 6.23653C72.67 6.23653 72.7401 6.23653 72.784 6.23653H75.0299C75.0299 6.23653 75.1088 6.23653 75.1439 6.23653C75.1615 5.89754 75.1615 5.55786 75.1439 5.21887C75.4184 5.19697 75.6941 5.19697 75.9686 5.21887V8.15781C75.6976 8.19438 75.4228 8.19143 75.1527 8.14903Z" fill="white"/>
<path d="M45.7989 7.13272L44.2899 4.84298C43.8513 4.15869 43.4126 3.48317 42.9827 2.79888C42.9602 2.76152 42.9278 2.7311 42.8891 2.71097C42.8504 2.69085 42.8069 2.6818 42.7634 2.68483H42.0353C42.0221 2.48034 42.0221 2.27521 42.0353 2.07072C42.0353 2.00054 42.0353 1.97422 42.123 1.98299H45.755C45.8076 1.98299 45.869 1.98299 45.9129 1.98299C45.8954 2.15215 45.8954 2.32266 45.9129 2.49182C45.9129 2.63219 45.9129 2.65851 45.755 2.64974C45.4479 2.64974 45.1409 2.64974 44.8075 2.64974L45.1321 3.15857L46.8867 5.87819C46.9569 5.98346 47.0008 6.02733 47.0885 5.87819C47.5008 5.17635 47.9658 4.48329 48.3518 3.79022C48.5536 3.44808 48.7553 3.09716 48.9659 2.76379C49.0449 2.64974 48.9659 2.64096 48.8957 2.64096H47.8693C47.8561 2.43647 47.8561 2.23135 47.8693 2.02686C47.8693 1.95667 47.8693 1.93036 47.957 1.93913H50.7468C50.8784 1.93913 50.9223 1.93913 50.9047 2.10581C50.8872 2.2725 50.9047 2.46551 50.9047 2.64974C50.7207 2.66288 50.536 2.66288 50.352 2.64974C50.2805 2.63913 50.2075 2.65338 50.1453 2.69011C50.083 2.72683 50.0352 2.7838 50.0099 2.85152L47.4745 6.95726C47.4331 7.01958 47.4117 7.09302 47.4131 7.16781C47.4131 8.33461 47.4131 9.51019 47.4131 10.677C47.4131 10.791 47.4131 10.8261 47.5535 10.8174H48.4834C48.5228 11.0555 48.5228 11.2986 48.4834 11.5367H44.7724C44.733 11.2986 44.733 11.0555 44.7724 10.8174H45.7989C45.8123 10.7745 45.8123 10.7286 45.7989 10.6858V7.27309C45.812 7.22722 45.812 7.17858 45.7989 7.13272Z" fill="white"/>
<path d="M91.0492 2.6833H90.0228C90.0053 2.73749 90.0053 2.79579 90.0228 2.84998C90.0228 5.40584 90.0228 7.95292 90.0228 10.4912C90.0228 10.6842 90.0228 10.6842 90.2246 10.6842H92.9968C93.1284 10.6842 93.1723 10.6842 93.1723 10.5088C93.1723 10.2017 93.1723 9.89467 93.1723 9.57884C93.1723 9.47357 93.1723 9.4297 93.3126 9.43847C93.453 9.44725 93.7864 9.43847 94.0233 9.43847C94.0233 10.0701 94.0233 10.7106 94.0233 11.351C94.0233 11.465 94.0233 11.5001 93.8653 11.5001H87.505C87.3997 11.5001 87.3558 11.5001 87.3646 11.3598C87.3734 11.2194 87.3646 11.0527 87.3646 10.8948C87.3646 10.7369 87.3646 10.7807 87.4786 10.7807H88.2682C88.391 10.7807 88.4349 10.7807 88.4349 10.6316V2.82367C88.4349 2.71839 88.4349 2.67452 88.2945 2.6833H87.4874C87.3909 2.6833 87.3558 2.6833 87.3646 2.56048V1.99023C87.4084 1.99023 87.4611 1.99023 87.5137 1.99023H90.9264C91.0668 1.99023 91.1194 1.99023 91.1106 2.17447C91.1019 2.3587 91.0931 2.50784 91.0492 2.6833Z" fill="white"/>
<path d="M84.9431 10.6742V9.47228C85.1944 9.45903 85.4463 9.45903 85.6976 9.47228C85.8116 9.47228 85.7853 9.55124 85.7853 9.61265V10.9286C85.8074 11.1356 85.8074 11.3444 85.7853 11.5515H79.1617C79.131 11.3127 79.131 11.0709 79.1617 10.8321C79.5039 10.8321 79.8548 10.8321 80.1969 10.8321C80.1969 10.7795 80.1969 10.7268 80.1969 10.6742V2.8487C80.1969 2.79606 80.1969 2.74342 80.1969 2.69956C79.8548 2.69956 79.5039 2.69956 79.1617 2.69956C79.1486 2.49507 79.1486 2.28994 79.1617 2.08545C79.1617 2.01527 79.1617 1.98895 79.2582 1.99772H82.7674C82.7674 1.99772 82.8639 1.99772 82.9078 1.99772C82.9078 2.18195 82.9078 2.37496 82.9078 2.55919C82.9078 2.74342 82.9078 2.68201 82.7762 2.68201H81.9866C81.8638 2.68201 81.8287 2.68201 81.8287 2.83115C81.8287 3.34876 81.8287 3.87513 81.8287 4.39274V10.6742C81.8687 10.6869 81.9116 10.6869 81.9515 10.6742H84.8466C84.8782 10.6832 84.9116 10.6832 84.9431 10.6742Z" fill="white"/>
<path d="M30.4903 8.81564C30.4432 8.23948 30.2026 7.69621 29.8076 7.27413C29.4126 6.85206 28.8864 6.57599 28.3146 6.4908L28.5427 6.40308C29.0461 6.20887 29.4716 5.85432 29.7534 5.39418C29.9955 4.97852 30.0825 4.49055 29.999 4.01683C29.92 3.47177 29.638 2.97669 29.2095 2.6307C28.7488 2.28281 28.1974 2.07563 27.6216 2.03414C27.5811 2.02508 27.5392 2.02508 27.4988 2.03414H22.9193C22.8666 2.03414 22.8403 2.03414 22.8491 2.10433C22.8316 2.31451 22.8316 2.52579 22.8491 2.73598H23.8755C23.893 2.79017 23.893 2.84847 23.8755 2.90267V10.6843C23.893 10.7385 23.893 10.7968 23.8755 10.851H22.8666C22.827 11.0891 22.827 11.3322 22.8666 11.5703H27.7356C27.8058 11.5703 27.8848 11.5703 27.955 11.5703C28.0251 11.5703 28.2795 11.5703 28.4375 11.4914C28.963 11.38 29.4447 11.1178 29.8236 10.7369C30.2162 10.3252 30.4495 9.78719 30.4816 9.21919C30.509 9.08633 30.512 8.94957 30.4903 8.81564ZM25.5248 4.49057V2.97285C25.5248 2.8588 25.5248 2.80616 25.6652 2.81494C26.0512 2.81494 26.4285 2.81494 26.8057 2.81494C27.026 2.80088 27.2466 2.83618 27.4515 2.91826C27.6564 3.00035 27.8403 3.12714 27.99 3.28939C28.1396 3.45164 28.2511 3.64525 28.3164 3.85609C28.3817 4.06694 28.3991 4.2897 28.3673 4.50812C28.3703 4.73497 28.3261 4.95997 28.2377 5.16891C28.1493 5.37785 28.0186 5.56618 27.8537 5.72201C27.6888 5.87783 27.4933 5.99776 27.2797 6.07422C27.0661 6.15067 26.839 6.182 26.6127 6.16621C26.2969 6.16621 25.981 6.16621 25.6652 6.16621C25.5248 6.16621 25.4985 6.16621 25.5073 5.99952L25.5248 4.49057ZM28.455 10.0439C28.1256 10.4119 27.6667 10.6382 27.1742 10.6755C26.6569 10.7018 26.1386 10.7018 25.6213 10.6755C25.4985 10.6755 25.5248 10.5965 25.5248 10.5264V7.14878C25.5248 7.03473 25.5248 6.98209 25.6828 6.99086C26.1917 6.96894 26.7014 6.97773 27.2092 7.01718C27.5419 7.0449 27.8597 7.16692 28.1254 7.36893C28.3912 7.57094 28.5938 7.84456 28.7094 8.15767C28.853 8.46322 28.9053 8.80369 28.8602 9.13825C28.8151 9.47281 28.6744 9.78725 28.455 10.0439Z" fill="white"/>
<path d="M104.428 6.35151C104.428 6.2901 104.428 6.22869 104.428 6.16728C104.424 6.10594 104.424 6.04439 104.428 5.98305C104.284 4.92827 103.801 3.94903 103.051 3.19325C102.277 2.40482 101.248 1.91675 100.147 1.8159C99.896 1.79835 99.6439 1.79835 99.3927 1.8159C99.1822 1.8159 98.9716 1.87731 98.7699 1.92117C98.0445 2.07632 97.3673 2.40437 96.7959 2.87742C96.3463 3.24336 95.9686 3.68956 95.6818 4.19337C95.302 4.78034 95.0619 5.44663 94.9799 6.14096C94.9799 6.20237 94.9799 6.26378 94.9799 6.32519V6.58838C94.9624 6.71352 94.9624 6.84049 94.9799 6.96562V7.22881C94.9799 7.29022 94.9799 7.35163 94.9799 7.41304C94.9713 7.48589 94.9713 7.55951 94.9799 7.63236C95.0743 8.13456 95.2366 8.62155 95.4625 9.0799C95.7576 9.66117 96.1628 10.1796 96.6556 10.6064C97.3469 11.2069 98.2027 11.5859 99.112 11.6942C99.1646 11.6942 99.2348 11.6942 99.2962 11.6942H100.059C100.121 11.6942 100.182 11.6942 100.244 11.6942C100.542 11.6567 100.836 11.5891 101.121 11.4925C102.118 11.1658 102.979 10.5179 103.569 9.65014C104.035 8.97175 104.335 8.19352 104.446 7.37795C104.446 7.31654 104.446 7.25513 104.446 7.19372L104.428 6.35151ZM102.297 8.86058C102.169 9.23979 101.968 9.59003 101.704 9.89115C101.441 10.1923 101.12 10.4383 100.761 10.6152C100.171 10.8767 99.5053 10.9121 98.8907 10.7148C98.276 10.5175 97.7553 10.1011 97.4276 9.54487C96.9233 8.71648 96.6704 7.75952 96.6994 6.79016C96.657 5.87963 96.8665 4.97503 97.3048 4.17582C97.4883 3.82481 97.747 3.5186 98.0624 3.27901C98.3778 3.03942 98.7422 2.87234 99.1296 2.78969C99.6406 2.67342 100.175 2.71615 100.661 2.91215C101.147 3.10815 101.562 3.44806 101.849 3.88631C102.259 4.48061 102.512 5.16851 102.586 5.88655C102.754 6.88608 102.654 7.91211 102.297 8.86058Z" fill="white"/>
</svg>
