<svg width="114" height="12" viewBox="0 0 114 12" fill="none" xmlns="http://www.w3.org/2000/svg">
<path d="M103.439 11.4168C106.764 8.56679 111.435 5.79598 114 4.79848C113.604 4.54515 112.987 4.18099 112.29 3.78516C108.981 4.87765 105.118 7.30014 101.666 10.0393C102.252 10.4826 102.869 10.9418 103.439 11.4168Z" fill="white"/>
<path d="M101.918 3.67455C101.427 3.43705 100.889 3.21539 100.477 3.02539C99.2262 3.64289 97.5954 4.57705 95.5371 6.04954C95.9804 6.28704 96.4554 6.57204 96.9621 6.85703C98.5454 5.68537 100.145 4.57705 101.918 3.67455Z" fill="white"/>
<path d="M104.88 2.31192C104.278 1.97942 102.188 1.20359 100.747 0.871094C100.32 1.02943 99.7183 1.26692 99.3066 1.44109C99.8291 1.58359 101.777 2.10609 103.439 2.94525C103.867 2.73942 104.468 2.48608 104.88 2.31192Z" fill="white"/>
<path d="M97.8022 2.10547C95.9497 2.96046 94.0022 4.13212 92.9414 4.81295C93.3214 4.98712 93.7014 5.12962 94.2239 5.38295C96.5672 3.79963 98.4039 2.8338 99.1322 2.51713C98.6097 2.32713 98.1189 2.20047 97.8022 2.10547Z" fill="white"/>
<path d="M106.273 1.82082C106.7 1.67832 107.191 1.55166 107.618 1.42499C106.383 0.902495 104.832 0.348331 103.438 0C103.217 0.063333 102.552 0.237499 102.093 0.379998C102.568 0.522497 104.135 0.886661 106.273 1.82082ZM98.4668 7.77412C98.9735 8.07495 99.5118 8.48662 100.034 8.83495C103.502 6.1433 106.922 4.06914 110.674 2.89748C110.152 2.62832 109.693 2.39082 109.107 2.10582C106.858 2.67582 103.011 4.21164 98.4668 7.77412Z" fill="white"/>
<path d="M0 10.5937H2.53332C3.81581 10.5937 4.41747 9.92872 4.41747 8.99456C4.41747 8.23456 4.02164 7.7279 3.19832 7.56957C3.92664 7.3954 4.25914 6.95207 4.25914 6.30291C4.25914 5.47958 3.65748 4.81458 2.37499 4.81458H0.0158332V10.5937H0ZM2.20082 8.13956C2.67582 8.13956 3.00832 8.37706 3.00832 8.85206C3.00832 9.35872 2.69165 9.56456 2.20082 9.56456H1.37749V8.12373H2.20082V8.13956ZM2.04249 5.82791C2.51749 5.82791 2.84998 6.03374 2.84998 6.50874C2.84998 6.98374 2.53332 7.18957 2.04249 7.18957H1.37749V5.82791H2.04249ZM9.53161 4.79875H8.10662L5.93747 10.5937H7.37829L7.77412 9.39039H9.86411L10.2599 10.5937H11.7166L9.53161 4.79875ZM8.81912 6.19207L9.49995 8.32956H8.10662L8.81912 6.19207ZM18.9366 4.79875H17.6224V8.67789L15.1524 4.79875H13.6799V10.5937H14.9941V6.7304L17.4641 10.5937H18.9366V4.79875ZM25.0007 10.5937L23.1007 7.64873V10.5937H21.6915V4.79875H23.1007V7.5854L24.9057 4.79875H26.4732L24.5732 7.5854L26.6473 10.5937H25.0007ZM31.6348 7.69623C31.6348 8.85206 32.3315 9.56456 33.234 9.56456C34.1365 9.56456 34.8331 8.85206 34.8331 7.69623C34.8331 6.54041 34.1365 5.82791 33.234 5.82791C32.3315 5.82791 31.6348 6.54041 31.6348 7.69623ZM30.1465 7.69623C30.1623 6.00208 31.3498 4.67208 33.234 4.67208C35.1181 4.67208 36.3056 6.00208 36.3215 7.69623C36.3056 9.39039 35.1181 10.7204 33.234 10.7204C31.3498 10.7204 30.1623 9.39039 30.1465 7.69623ZM38.2531 10.5937H39.6623V8.31373H41.4989V7.2054H39.6623V5.90708H41.8789L42.1323 4.79875H38.2531V10.5937ZM48.7031 4.79875H47.2781L45.1089 10.5937H46.5497L46.9456 9.39039H49.0356L49.4314 10.5937H50.888L48.7031 4.79875ZM47.9906 6.19207L48.6714 8.32956H47.2781L47.9906 6.19207ZM59.248 4.79875H57.6013L56.0972 7.93373L54.593 4.79875H52.9464V10.5937H54.213V6.71457L56.0813 10.5937L57.9497 6.71457V10.5937H59.2638L59.248 4.79875ZM61.9871 10.5937H65.9455V9.48539H63.3963V8.18706H65.4071V7.1104H63.3963V5.90708H65.7238L65.9771 4.79875H61.9871V10.5937ZM71.3129 10.5937H72.8487L71.4079 8.13956C72.1996 7.9179 72.5796 7.36373 72.5796 6.55624C72.5796 5.51125 71.9463 4.81458 70.5213 4.81458H68.2888V10.6095H69.6663V8.32956H70.0463L71.3129 10.5937ZM70.2521 5.87541C70.8379 5.87541 71.1388 6.12874 71.1388 6.61957C71.1388 7.1104 70.8379 7.36373 70.2521 7.36373H69.6504V5.87541H70.2521ZM74.9546 10.5937H76.3637V4.81458H74.9546V10.5937ZM83.2987 9.04206C82.7604 9.42206 82.2854 9.54872 81.7945 9.54872C80.7179 9.54872 79.9579 8.80456 79.9579 7.69623C79.9579 6.58791 80.702 5.84374 81.747 5.84374C82.222 5.84374 82.697 5.97041 83.2195 6.35041V5.03625C82.7445 4.76708 82.1904 4.65625 81.5729 4.65625C79.657 4.65625 78.4537 5.98624 78.4379 7.6804C78.4537 9.39039 79.6254 10.7045 81.5729 10.7045C82.222 10.7045 82.7762 10.5937 83.2829 10.3245V9.04206H83.2987ZM88.4603 4.79875H87.0353L84.8662 10.5937H86.307L86.7028 9.39039H88.7928L89.1887 10.5937H90.6453L88.4603 4.79875ZM87.7478 6.19207L88.4287 8.32956H87.0353L87.7478 6.19207Z" fill="white"/>
</svg>
