<svg width="115" height="19" viewBox="0 0 115 19" fill="none" xmlns="http://www.w3.org/2000/svg">
<path d="M33.4329 13.6146C32.8232 13.9194 32.1945 14.1481 31.5467 14.3005C30.8989 14.4529 30.213 14.5101 29.5461 14.5101C28.8221 14.5101 28.1362 14.3958 27.5455 14.1671C26.9358 13.9575 26.4024 13.6146 25.9451 13.1954C25.5069 12.7572 25.1449 12.2618 24.8972 11.6521C24.6495 11.0424 24.5352 10.3756 24.5352 9.61344C24.5352 8.85132 24.6495 8.18446 24.8972 7.57476C25.1449 6.96506 25.5069 6.46968 25.9451 6.03146C26.3833 5.59324 26.9168 5.28839 27.5455 5.05975C28.1552 4.85017 28.8221 4.7168 29.5461 4.7168C30.2892 4.7168 30.9751 4.81206 31.6039 4.98354C32.2326 5.15502 32.7851 5.45987 33.2424 5.89809L31.7944 7.46044C31.5086 7.17464 31.1847 6.94601 30.8608 6.81264C30.5369 6.67926 30.0606 6.60305 29.5652 6.60305C29.127 6.60305 28.7268 6.67926 28.3839 6.81264C28.0219 6.96506 27.7361 7.17464 27.4693 7.44139C27.2026 7.70813 27.0121 8.01298 26.8977 8.37499C26.7453 8.737 26.7072 9.15617 26.7072 9.55628C26.7072 9.9945 26.7834 10.3946 26.8977 10.7566C27.0502 11.1186 27.2407 11.4425 27.4693 11.6902C27.7361 11.957 28.0219 12.1666 28.3839 12.319C28.7459 12.4714 29.127 12.5286 29.5652 12.5286C30.0034 12.5286 30.3845 12.4714 30.7274 12.3761C31.0323 12.2809 31.299 12.1856 31.5086 12.0713V10.5661H29.851V8.67984H33.4711V13.6146H33.4329Z" fill="white"/>
<path d="M45.0564 10.6988C45.0564 11.2514 44.9802 11.7658 44.8087 12.2231C44.6373 12.6803 44.3896 13.0995 44.0657 13.4234C43.7227 13.7664 43.3226 14.0331 42.8272 14.2236C42.3509 14.4142 41.7602 14.5094 41.1315 14.5094C40.4837 14.5094 39.9311 14.4142 39.4167 14.2236C38.9404 14.0331 38.5212 13.7664 38.1783 13.4234C37.8353 13.0805 37.6067 12.6803 37.4352 12.2231C37.2637 11.7658 37.1875 11.2514 37.1875 10.6988V5.00195H39.2452V10.6226C39.2452 10.9084 39.3024 11.1752 39.3977 11.4228C39.4929 11.6705 39.6072 11.8801 39.7787 12.0516C39.9502 12.2231 40.1407 12.3564 40.3884 12.4708C40.6361 12.566 40.8647 12.6232 41.1315 12.6232C41.3982 12.6232 41.665 12.566 41.8746 12.4708C42.0841 12.3755 42.3128 12.2231 42.4462 12.0516C42.6176 11.8801 42.7319 11.6705 42.8272 11.4228C42.9225 11.1752 42.9796 10.9084 42.9796 10.6226V5.00195H45.0374V10.6988H45.0564Z" fill="white"/>
<path d="M48.9043 4.96289H50.962V14.2608H48.9043V4.96289Z" fill="white"/>
<path d="M54.7734 4.96289H57.841C58.5841 4.96289 59.289 5.03911 59.9749 5.21058C60.6608 5.38206 61.2324 5.6488 61.7469 6.01081C62.2613 6.37282 62.6424 6.84915 62.9282 7.45885C63.214 8.06854 63.3664 8.79256 63.3664 9.6309C63.3664 10.374 63.214 11.0599 62.9282 11.6124C62.6424 12.184 62.2422 12.6794 61.7659 13.0605C61.2896 13.4415 60.718 13.7464 60.1083 13.9559C59.4795 14.1465 58.8317 14.2417 58.1268 14.2417H54.7734V4.96289ZM56.8312 12.3745H57.8981C58.3745 12.3745 58.8127 12.3174 59.2319 12.2221C59.651 12.1269 59.9749 11.9554 60.2988 11.7458C60.5846 11.5362 60.8323 11.2314 61.0038 10.8693C61.1753 10.5073 61.2705 10.0691 61.2705 9.53563C61.2705 9.07836 61.1753 8.6973 61.0038 8.35434C60.8323 8.01139 60.5846 7.74465 60.2988 7.51601C60.013 7.30642 59.6701 7.13495 59.289 7.03968C58.908 6.92536 58.4888 6.8682 58.0506 6.8682H56.8502L56.8312 12.3745Z" fill="white"/>
<path d="M66.7754 4.96289H73.082V6.84915H68.8141V8.58298H72.8533V10.4692H68.8141V12.3555H73.3106V14.2417H66.7944V4.96289H66.7754Z" fill="white"/>
<path d="M75.9785 4.96289H78.2077L79.6748 10.9265H79.6939L81.6182 4.96289H83.5235L85.4479 11.0789H85.467L87.0293 4.96289H89.1061L86.4006 14.2608H84.5715L82.5137 7.83991H82.4947L80.4369 14.2608H78.665L75.9785 4.96289Z" fill="white"/>
<path d="M92.0215 4.96289H94.0792V14.2608H92.0215V4.96289Z" fill="white"/>
<path d="M97.8887 4.96289H101.49C101.966 4.96289 102.404 5.02005 102.842 5.11532C103.281 5.21058 103.643 5.36301 103.948 5.57259C104.252 5.78218 104.519 6.08703 104.729 6.44903C104.938 6.81104 105.015 7.26832 105.015 7.80181C105.015 8.44961 104.843 9.00215 104.5 9.45942C104.157 9.91669 103.662 10.2025 102.995 10.3359L105.357 14.2417H102.9L100.975 10.5264H99.9655V14.2417H97.9077L97.8887 4.96289ZM99.9464 8.81162H101.147C101.337 8.81162 101.528 8.81162 101.718 8.79256C101.928 8.77351 102.099 8.7354 102.271 8.67824C102.442 8.62108 102.576 8.50677 102.69 8.3734C102.804 8.22097 102.862 8.03044 102.862 7.80181C102.862 7.55412 102.804 7.36358 102.709 7.24926C102.614 7.09684 102.5 7.00158 102.347 6.94442C102.195 6.88726 102.042 6.83009 101.833 6.79199C101.642 6.77294 101.452 6.73483 101.28 6.73483H99.9464V8.83067V8.81162Z" fill="white"/>
<path d="M108.445 4.96289H114.752V6.84915H110.503V8.58298H114.542V10.4692H110.503V12.3555H115V14.2417H108.445V4.96289Z" fill="white"/>
<path d="M18.6487 3.70846V0.107422H4.28267H0.681641V3.70846V14.4925V18.0935H4.28267H11.4657V14.4925H4.28267V3.70846H18.6487Z" fill="white"/>
<path d="M18.6493 7.31055V10.8925V18.0946H15.0482V10.8925H7.86523V7.31055H18.6493Z" fill="white"/>
</svg>
