<svg width="112" height="23" viewBox="0 0 112 23" fill="none" xmlns="http://www.w3.org/2000/svg">
<path d="M10.968 0C10.831 0.620314 10.5911 1.65384 10.3512 2.75624H5.65533C5.86098 1.79159 5.99801 0.895805 6.13507 0H10.968ZM10.3169 3.65251C9.56262 7.13235 8.94582 10.5782 8.26002 15.0921C7.91736 17.1936 7.09497 18.7443 3.59884 18.7443C2.36498 18.7443 1.16533 18.641 0 18.4342L0.20565 14.8161C0.616945 14.9539 1.02825 15.0577 1.47381 15.0577C2.67341 15.0577 3.22183 14.5407 3.56457 13.3345C4.11298 11.3363 4.62688 8.26964 5.34694 3.65251H10.3169Z" fill="white"/>
<path d="M21.3874 13.8863C22.107 10.0616 22.8266 6.2714 23.4438 3.99725C21.6958 3.65291 19.9477 3.37695 17.6857 3.37695C13.5038 3.37695 10.5564 5.78885 10.0077 9.37248C9.59652 11.8877 10.8648 13.9552 13.5038 13.9552C14.6351 13.9552 15.7316 13.5764 16.76 12.9561C16.6914 13.3004 16.623 13.6108 16.5202 13.8863H21.3874ZM17.9941 7.06388C17.8226 8.20117 17.274 10.4753 15.7316 10.4753C14.9777 10.4753 14.7379 9.7517 14.8407 9.06254C15.0121 7.85637 16.0747 6.96056 17.274 6.96056C17.5139 6.96056 17.7542 6.99501 17.9941 7.06388Z" fill="white"/>
<path d="M30.9846 13.7486C29.8876 14.024 28.7911 14.1618 27.7284 14.1618C23.0668 14.1618 22.8612 10.923 23.1353 9.02809C23.684 5.65107 25.7405 3.37695 29.8876 3.37695C31.0532 3.37695 32.1497 3.51471 33.2124 3.79066L32.8355 7.47758C32.0812 7.20163 31.293 6.96056 30.4359 6.96056C29.2023 6.96056 28.3109 7.54643 28.1053 8.82101C27.9341 9.99274 28.5165 10.5786 29.6478 10.5786C30.4016 10.5786 31.3958 10.3371 32.184 10.0272L30.9846 13.7486Z" fill="white"/>
<path d="M41.8168 3.6517H47.1656L43.4616 8.16552L45.3467 13.8851H40.1373L38.5606 8.13063L41.8168 3.6517ZM32.3223 13.8851C33.522 9.37123 34.3791 4.78852 35.0987 0.240234H40.0002C38.9032 4.78852 37.9433 9.33679 37.2237 13.8851H32.3223Z" fill="white"/>
<path d="M57.4817 0.240234C57.1025 1.75633 56.6913 3.27242 56.4537 4.71964C57.0705 4.23707 58.3726 3.37573 60.3601 3.37573C63.1699 3.37573 63.9238 4.71965 63.6496 6.37349C63.5446 7.2004 62.6902 10.8184 62.1739 13.8851H57.2076C57.5503 12.3345 57.9615 10.8185 58.199 9.26794C58.3361 8.54432 58.5097 7.26928 57.5502 7.26928C56.5223 7.26928 55.974 8.3377 55.6998 9.16463C55.147 10.7152 54.9094 12.3345 54.5668 13.8851H49.5273C50.6239 9.64672 51.5513 5.6843 52.4423 0.240234H57.4817Z" fill="white"/>
<path d="M75.1662 9.51021C75.3352 8.95923 75.4723 8.44222 75.5773 7.95967C76.089 4.54868 73.7224 3.37695 70.707 3.37695C65.2929 3.37695 63.9542 7.4087 63.6801 9.16585C62.8942 14.1618 67.6915 14.1618 69.3043 14.1618C70.5699 14.1618 71.84 14.0241 73.1056 13.783L74.2387 10.3027C73.0371 10.6131 71.6664 10.9574 70.4328 10.9574C69.4048 10.9574 68.2078 10.8197 68.4134 9.51021H75.1662ZM68.788 7.64976C68.9937 6.92614 69.4048 6.16809 70.2638 6.16809C70.9491 6.16809 71.1867 6.65068 71.0861 7.27051L71.0175 7.64976H68.788Z" fill="white"/>
<path d="M81.746 4.72086C82.3628 4.23829 83.633 3.37695 85.6524 3.37695C88.4303 3.37695 89.1841 4.72086 88.91 6.40913C88.805 7.23604 87.9505 10.8197 87.4342 13.8863H82.4999C82.8425 12.3702 83.2172 10.8197 83.4594 9.30358C83.5964 8.54552 83.77 7.27051 82.806 7.27051C81.8145 7.27051 81.2298 8.37333 80.9556 9.20027C80.4074 10.7508 80.1697 12.3358 79.8271 13.8863H74.8242C75.8156 10.5097 76.469 7.09833 77.0858 3.65293H81.9836L81.746 4.72086Z" fill="white"/>
<path d="M94.4983 4.58313C95.3207 3.89395 96.0746 3.37695 97.1026 3.37695C97.3767 3.37695 97.6143 3.4114 97.8565 3.48027L97.3402 7.5809C97.0341 7.47759 96.6914 7.40868 96.3487 7.40868C95.2157 7.40868 94.3613 7.92523 93.845 9.02809C93.4703 9.85499 93.1962 11.5089 93.0592 12.4047C92.9542 12.8872 92.9222 13.4037 92.8855 13.8863H87.9512C88.6 11.1989 89.1848 8.7866 89.9706 3.65293H94.6354L94.4983 4.58313Z" fill="white"/>
<path d="M103.406 3.65234H98.5724L100.322 14.0579C100.012 15.0919 99.1206 15.5051 98.2663 15.5051C97.5124 15.5051 96.8591 15.2641 96.2788 14.8848L96.2422 18.434C97.1011 18.6408 98.0241 18.7441 98.9515 18.7441C100.87 18.7441 102.858 18.3651 104.402 15.6773L111.392 3.65234H106.664L103.717 9.88888L103.406 3.65234Z" fill="white"/>
<path d="M13.5732 18.8483C14.2248 19.7787 14.9101 20.6401 15.5954 21.5015C15.4584 21.6392 14.773 22.3285 13.9164 22.3285C13.025 22.3285 12.3396 21.6393 12.3396 20.709C12.3396 19.882 12.8536 19.3307 13.5047 18.9172C13.5389 18.8828 13.5733 18.8828 13.5733 18.8484L13.5732 18.8483ZM16.384 21.088C16.898 20.4334 17.3777 19.7787 17.8236 19.0551C17.6866 18.9518 17.5148 18.7449 17.412 18.6072C17.0693 19.2963 16.5896 20.1233 16.1441 20.7779L15.5954 20.1232C15.1157 19.5719 14.7388 18.9862 14.2933 18.4004C14.9786 17.9179 15.7325 17.3324 15.7325 16.3673C15.7325 15.6437 15.1157 15.2305 14.3276 15.2305C13.3676 15.2305 12.6823 15.8508 12.6823 16.8499C12.6823 17.5391 13.0592 18.0561 13.4019 18.6072L13.3333 18.6416C12.3395 19.1585 11.4824 19.882 11.4824 20.9502C11.4824 22.1217 12.3396 22.8108 13.5046 22.8108C14.396 22.8108 15.2184 22.4318 15.8014 21.7427C16.0412 22.0528 16.2468 22.3629 16.4524 22.673C16.6581 22.673 16.8636 22.6386 17.0692 22.6386C17.2749 22.6386 17.5147 22.673 17.7208 22.673L16.384 21.088ZM14.122 18.1594C13.7788 17.7112 13.4362 17.1254 13.4362 16.5744C13.4362 15.9885 13.7446 15.506 14.3276 15.506C14.8416 15.506 15.1842 15.9197 15.1842 16.4362C15.1842 17.2287 14.6702 17.7457 14.122 18.1594Z" fill="white"/>
<path d="M23.5811 14.9551H23.3413L20.0508 22.708C20.1536 22.6736 20.2564 22.6736 20.3935 22.6736C20.5305 22.6736 20.6676 22.6736 20.8046 22.708C21.113 21.6399 21.4904 20.6751 21.8674 19.7103H24.5406C24.9518 20.7095 25.3635 21.7777 25.6718 22.708C25.8433 22.6736 26.0145 22.6736 26.2201 22.6736C26.3916 22.6736 26.5628 22.6736 26.7684 22.708L23.5811 14.9551ZM24.3692 19.2279H22.0387L23.2042 16.4023L24.3692 19.2279Z" fill="white"/>
<path d="M27.3182 21.1919C27.7294 21.9155 28.2091 22.3635 29.032 22.3635C29.8886 22.3635 30.5054 21.6054 30.5054 20.744C30.5054 18.6766 27.1811 19.5724 27.1811 17.057C27.1811 15.6442 28.2434 14.9551 29.5117 14.9551C30.0257 14.9551 30.643 15.0933 31.0542 15.4721C30.9171 15.748 30.8485 16.0579 30.7457 16.3679H30.6429C30.4368 15.7824 29.9571 15.4032 29.3403 15.4032C28.6203 15.4032 28.0035 15.9202 28.0035 16.7127C28.0035 18.7455 31.3282 17.9528 31.3282 20.2961C31.3282 21.8811 30.1627 22.8458 28.7231 22.8458C28.2091 22.8458 27.3524 22.6046 27.0098 22.1912C27.1126 21.8466 27.1468 21.5365 27.1812 21.1919H27.3182Z" fill="white"/>
<path d="M31.9783 21.1919C32.3895 21.9155 32.8696 22.3635 33.692 22.3635C34.5492 22.3635 35.1659 21.6054 35.1659 20.744C35.1659 18.6766 31.8412 19.5724 31.8412 17.057C31.8412 15.6442 32.9039 14.9551 34.206 14.9551C34.6862 14.9551 35.303 15.0933 35.7142 15.4721C35.5772 15.748 35.5086 16.0579 35.4401 16.3679H35.303C35.0974 15.7824 34.6177 15.4032 34.0005 15.4032C33.2809 15.4032 32.6641 15.9202 32.6641 16.7127C32.6641 18.7455 36.0227 17.9528 36.0227 20.2961C36.0227 21.8811 34.8233 22.8458 33.3837 22.8458C32.8697 22.8458 32.0126 22.6046 31.6699 22.1912C31.7727 21.8466 31.8069 21.5365 31.8756 21.1919H31.9783Z" fill="white"/>
<path d="M40.4092 22.8458C42.7741 22.8458 44.4536 21.2264 44.4536 18.7455C44.4536 16.0579 42.4314 14.9551 40.4435 14.9551C38.2157 14.9551 36.502 16.4712 36.502 18.9178C36.502 21.2608 38.0787 22.8458 40.4092 22.8458ZM43.3909 18.8144C43.4937 20.0549 42.6713 22.4668 40.4435 22.4668C38.8668 22.4668 37.5299 21.2953 37.5299 19.0211C37.5299 16.7815 38.6612 15.2999 40.5463 15.2999C41.3687 15.2999 42.1916 15.6787 42.7398 16.3679C43.2881 17.1259 43.3909 17.9184 43.3909 18.8144Z" fill="white"/>
<path d="M50.9331 22.1912C50.2798 22.6736 49.4254 22.8114 48.603 22.8114C46.2683 22.8114 44.8652 21.2953 44.8652 18.8489C44.8652 16.3679 46.6155 14.9551 48.8771 14.9551C49.631 14.9551 50.4534 15.1277 51.1387 15.4376C51.0337 15.7131 50.9651 16.0235 50.9331 16.299L50.8644 16.3334C50.6908 16.1268 49.905 15.3687 48.8404 15.3687C46.8895 15.3687 45.8935 17.0226 45.8935 18.9178C45.8935 21.0196 47.0586 22.3979 48.7399 22.3979C49.905 22.3979 50.7959 21.6743 51.0015 21.502L50.9331 22.1912Z" fill="white"/>
<path d="M51.9258 15.0918C52.0628 15.1262 52.2365 15.1262 52.3735 15.1262C52.5105 15.1262 52.6796 15.1262 52.8532 15.0918V22.7065C52.6796 22.6721 52.5106 22.6721 52.3735 22.6721C52.2365 22.6721 52.0628 22.6721 51.9258 22.7065V15.0918Z" fill="white"/>
<path d="M57.1373 14.9551H56.895L53.6055 22.708C53.7059 22.6736 53.8431 22.6736 53.9801 22.6736C54.0851 22.6736 54.2224 22.6736 54.3594 22.708C54.6655 21.6399 55.0447 20.6751 55.4193 19.7103H58.0967C58.5399 20.7095 58.9191 21.7777 59.2252 22.708C59.3988 22.6736 59.5678 22.6736 59.7734 22.6736C59.9471 22.6736 60.1161 22.6736 60.3217 22.708L57.1373 14.9551ZM57.9597 19.2279H55.5931L56.7581 16.4023L57.9597 19.2279Z" fill="white"/>
<path d="M62.3474 22.7065C62.1738 22.7065 62.0048 22.6721 61.8677 22.6721C61.6941 22.6721 61.557 22.7065 61.388 22.7065V15.6427C60.3234 15.6427 59.6747 15.7116 59.0898 15.781C59.0898 15.6772 59.1265 15.5394 59.1265 15.4361C59.1265 15.3328 59.0898 15.2295 59.0898 15.0918H64.5405C64.5405 15.2295 64.5039 15.3328 64.5039 15.4361C64.5039 15.5394 64.5405 15.6772 64.5405 15.781C64.0242 15.7116 63.2703 15.6427 62.3474 15.6427V22.7065Z" fill="white"/>
<path d="M66.0161 18.3993H67.6609C67.967 18.3993 68.2777 18.3649 68.5838 18.3649C68.5838 18.4337 68.5518 18.5373 68.5518 18.6406C68.5518 18.7439 68.5838 18.8474 68.5838 18.9506C68.2777 18.9506 67.967 18.9162 67.6609 18.9162H66.0161V22.1551C66.6649 22.1551 67.2817 22.1207 67.935 22.0862C68.2411 22.0862 68.5838 22.0518 68.8945 21.9829C68.8945 22.1207 68.8578 22.2242 68.8578 22.3275C68.8578 22.4308 68.8945 22.5344 68.8945 22.6721H65.0566V15.0918H68.826C68.826 15.2295 68.7893 15.3328 68.7893 15.4361C68.7893 15.5394 68.826 15.6772 68.826 15.781C68.5153 15.7116 68.2092 15.6771 67.8665 15.6427H66.802H66.0161V18.3993Z" fill="white"/>
<path d="M69.5801 21.1919C69.9913 21.9155 70.471 22.3635 71.2934 22.3635C72.1478 22.3635 72.7646 21.6054 72.7646 20.744C72.7646 18.6766 69.443 19.5724 69.443 17.057C69.443 15.6442 70.5395 14.9551 71.8051 14.9551C72.3214 14.9551 72.9382 15.0933 73.3128 15.4721C73.1758 15.748 73.1072 16.0579 73.0387 16.3679H72.9383C72.6961 15.7824 72.253 15.4032 71.5996 15.4032C70.8823 15.4032 70.2655 15.9202 70.2655 16.7127C70.2655 18.7455 73.6236 17.9528 73.6236 20.2961C73.6236 21.8811 72.422 22.8458 70.9829 22.8458C70.4711 22.8458 69.6122 22.6046 69.2695 22.1912C69.3745 21.8466 69.4432 21.5365 69.4752 21.1919H69.5801Z" fill="white"/>
<path d="M76.7754 15.0918C76.9124 15.1262 77.0861 15.1262 77.2551 15.1262C77.3921 15.1262 77.5292 15.1262 77.7029 15.0918V22.7065C77.5292 22.6721 77.3922 22.6721 77.2551 22.6721C77.0861 22.6721 76.9125 22.6721 76.7754 22.7065V15.0918Z" fill="white"/>
<path d="M85.0715 22.7065H84.7607C84.6603 22.5344 84.4181 22.2586 84.2125 22.0174L79.6208 16.7112H79.5158V22.7065C79.4154 22.6721 79.3101 22.6721 79.2097 22.6721C79.1047 22.6721 79.036 22.6721 78.9355 22.7065V15.0918H79.3467L84.3862 20.8114H84.4866V15.0918C84.5916 15.1262 84.6602 15.1262 84.7973 15.1262C84.8659 15.1262 84.9663 15.1262 85.0714 15.0918L85.0715 22.7065Z" fill="white"/>
<path d="M91.9574 22.1912C91.272 22.6736 90.4177 22.8114 89.6273 22.8114C87.2972 22.8114 85.8945 21.2953 85.8945 18.8489C85.8945 16.3679 87.6398 14.9551 89.8694 14.9551C90.6553 14.9551 91.4457 15.1277 92.163 15.4376C92.0626 15.7131 91.994 16.0235 91.9253 16.299L91.8567 16.3334C91.7197 16.1268 90.9292 15.3687 89.8327 15.3687C87.8818 15.3687 86.9223 17.0226 86.9223 18.9178C86.9223 21.0196 88.0874 22.3979 89.7641 22.3979C90.8972 22.3979 91.7882 21.6743 92.0257 21.502L91.9574 22.1912Z" fill="white"/>
<path d="M93.1944 21.4668C93.537 21.4668 93.8112 21.7769 93.8112 22.1215C93.8112 22.5005 93.537 22.7762 93.1944 22.7762C92.8517 22.7762 92.541 22.5005 92.541 22.1215C92.541 21.7425 92.8517 21.4668 93.1944 21.4668Z" fill="white"/>
<path d="M107.656 15.7114H107.862C107.967 15.7114 108.068 15.7114 108.104 15.677C108.173 15.6081 108.205 15.5737 108.205 15.5048C108.205 15.4359 108.173 15.3671 108.136 15.3326C108.067 15.2982 107.999 15.2637 107.862 15.2637H107.656L107.656 15.7114ZM107.213 14.9534H107.999C108.241 14.9534 108.41 15.0227 108.479 15.0916C108.584 15.1949 108.652 15.3327 108.652 15.4704C108.652 15.6081 108.616 15.7115 108.547 15.7808C108.447 15.8841 108.342 15.9185 108.173 15.9874C108.241 15.9874 108.273 16.0218 108.31 16.0563C108.378 16.0907 108.41 16.1596 108.447 16.2285C108.447 16.2285 108.547 16.4006 108.753 16.7454H108.241C108.068 16.4006 107.931 16.194 107.899 16.1596C107.83 16.0907 107.762 16.0563 107.725 16.0563C107.693 16.0563 107.693 16.0563 107.656 16.0563V16.7454H107.213L107.213 14.9534ZM109.301 15.8496C109.301 15.5048 109.164 15.1604 108.927 14.9189C108.652 14.6434 108.342 14.5057 107.967 14.5057C107.588 14.5057 107.282 14.6434 107.008 14.9189C106.765 15.1605 106.628 15.5048 106.628 15.8496C106.628 16.2284 106.765 16.5388 107.008 16.8143C107.282 17.0898 107.588 17.1931 107.967 17.1931C108.342 17.1931 108.652 17.0898 108.927 16.8143C109.164 16.5388 109.301 16.2284 109.301 15.8496ZM109.612 15.8496C109.612 16.1595 109.543 16.435 109.406 16.711C109.269 16.952 109.064 17.1586 108.789 17.2968C108.547 17.469 108.273 17.5379 107.967 17.5379C107.656 17.5379 107.382 17.469 107.145 17.2968C106.871 17.1586 106.665 16.952 106.528 16.711C106.391 16.435 106.322 16.1595 106.322 15.8496C106.322 15.5737 106.391 15.2982 106.528 15.0227C106.665 14.7812 106.871 14.5746 107.145 14.4024C107.382 14.2646 107.656 14.1953 107.967 14.1953C108.273 14.1953 108.547 14.2646 108.789 14.4024C109.064 14.5746 109.269 14.7812 109.406 15.0227C109.543 15.2982 109.612 15.5737 109.612 15.8496Z" fill="white"/>
</svg>
