<svg width="115" height="28" viewBox="0 0 115 28" fill="none" xmlns="http://www.w3.org/2000/svg">
<path d="M42.7818 6.24805H36.4504C36.0171 6.24805 35.6486 6.56281 35.581 6.99053L33.0203 23.226C32.9694 23.5463 33.2175 23.8352 33.5425 23.8352H36.5651C36.9984 23.8352 37.3669 23.5204 37.4345 23.0918L38.1251 18.7128C38.1918 18.2842 38.5611 17.9694 38.9935 17.9694H40.9978C45.1685 17.9694 47.5755 15.9512 48.2041 11.9518C48.4874 10.2021 48.2162 8.82728 47.3968 7.86447C46.497 6.80722 44.9009 6.24805 42.7818 6.24805ZM43.5122 12.1777C43.166 14.4496 41.4302 14.4496 39.7517 14.4496H38.7963L39.4666 10.2067C39.5064 9.95026 39.7286 9.7614 39.9878 9.7614H40.4257C41.569 9.7614 42.6476 9.7614 43.2049 10.4132C43.5372 10.802 43.6391 11.3797 43.5122 12.1777Z" fill="white"/>
<path d="M61.7076 12.1055H58.6756C58.4173 12.1055 58.1942 12.2943 58.1544 12.5508L58.0202 13.3988L57.8082 13.0914C57.1518 12.1388 55.6881 11.8203 54.2272 11.8203C50.8768 11.8203 48.0152 14.3579 47.4579 17.9175C47.1681 19.6932 47.5801 21.3911 48.5873 22.5752C49.5113 23.6639 50.8333 24.1175 52.4062 24.1175C55.1058 24.1175 56.6028 22.3817 56.6028 22.3817L56.4676 23.2241C56.4167 23.5463 56.6648 23.8352 56.9879 23.8352H59.719C60.1532 23.8352 60.5198 23.5204 60.5883 23.0917L62.2269 12.7146C62.2788 12.3952 62.0316 12.1055 61.7076 12.1055ZM57.4814 18.0064C57.1888 19.7386 55.814 20.9013 54.0606 20.9013C53.1802 20.9013 52.4766 20.619 52.0248 20.0839C51.5767 19.5525 51.4064 18.7961 51.5489 17.9536C51.822 16.2363 53.22 15.0356 54.9466 15.0356C55.8075 15.0356 56.5074 15.3216 56.9685 15.8614C57.4304 16.4067 57.6138 17.1676 57.4814 18.0064Z" fill="white"/>
<path d="M77.8547 12.1055H74.808C74.5173 12.1055 74.2442 12.2499 74.0794 12.4915L69.8772 18.6813L68.096 12.7332C67.984 12.361 67.6405 12.1055 67.2517 12.1055H64.2577C63.8939 12.1055 63.6411 12.461 63.7569 12.8035L67.1128 22.652L63.9578 27.106C63.7097 27.4568 63.9596 27.9392 64.3883 27.9392H67.4313C67.7202 27.9392 67.9905 27.7985 68.1543 27.5615L78.288 12.934C78.5306 12.5841 78.2815 12.1055 77.8547 12.1055Z" fill="white"/>
<path d="M87.942 6.24805H81.6096C81.1772 6.24805 80.8088 6.56281 80.7412 6.99053L78.1805 23.226C78.1296 23.5463 78.3777 23.8352 78.7008 23.8352H81.9503C82.2521 23.8352 82.5104 23.6149 82.5576 23.3149L83.2843 18.7128C83.351 18.2842 83.7204 17.9694 84.1527 17.9694H86.1561C90.3277 17.9694 92.7338 15.9512 93.3634 11.9518C93.6476 10.2021 93.3745 8.82728 92.5551 7.86447C91.6562 6.80722 90.0611 6.24805 87.942 6.24805ZM88.6724 12.1777C88.3271 14.4496 86.5912 14.4496 84.9119 14.4496H83.9574L84.6286 10.2067C84.6684 9.95026 84.8887 9.7614 85.1489 9.7614H85.5868C86.7292 9.7614 87.8086 9.7614 88.366 10.4132C88.6983 10.802 88.7992 11.3797 88.6724 12.1777Z" fill="white"/>
<path d="M106.868 12.1055H103.838C103.577 12.1055 103.356 12.2943 103.317 12.5508L103.183 13.3988L102.97 13.0914C102.314 12.1388 100.851 11.8203 99.3901 11.8203C96.0397 11.8203 93.179 14.3579 92.6217 17.9175C92.3328 19.6932 92.743 21.3911 93.7502 22.5752C94.676 23.6639 95.9962 24.1175 97.5691 24.1175C100.269 24.1175 101.766 22.3817 101.766 22.3817L101.631 23.2241C101.58 23.5463 101.828 23.8352 102.153 23.8352H104.883C105.315 23.8352 105.684 23.5204 105.751 23.0917L107.391 12.7146C107.441 12.3952 107.193 12.1055 106.868 12.1055ZM102.641 18.0064C102.351 19.7386 100.974 20.9013 99.2207 20.9013C98.3421 20.9013 97.6367 20.619 97.1849 20.0839C96.7368 19.5525 96.5683 18.7961 96.709 17.9536C96.984 16.2363 98.3801 15.0356 100.107 15.0356C100.968 15.0356 101.668 15.3216 102.129 15.8614C102.592 16.4067 102.776 17.1676 102.641 18.0064Z" fill="white"/>
<path d="M110.441 6.69428L107.843 23.2269C107.792 23.5473 108.04 23.8361 108.363 23.8361H110.975C111.41 23.8361 111.778 23.5213 111.845 23.0927L114.407 6.85814C114.458 6.53782 114.21 6.24805 113.887 6.24805H110.962C110.703 6.24897 110.481 6.43783 110.441 6.69428Z" fill="white"/>
<path d="M6.72692 26.9916L7.21111 23.9161L6.13257 23.8911H0.982422L4.56151 1.19733C4.57262 1.12882 4.60872 1.06494 4.66149 1.01958C4.71426 0.974215 4.78185 0.949219 4.85221 0.949219H13.5361C16.419 0.949219 18.4085 1.54913 19.4472 2.73321C19.9342 3.28868 20.2443 3.86915 20.3943 4.50794C20.5517 5.17821 20.5544 5.97901 20.4008 6.95571L20.3897 7.027V7.65283L20.8766 7.92871C21.2867 8.14627 21.6126 8.39531 21.8626 8.68045C22.2792 9.15538 22.5486 9.75899 22.6625 10.4746C22.78 11.2106 22.7412 12.0864 22.5486 13.0779C22.3264 14.2185 21.9672 15.2119 21.4821 16.0247C21.0359 16.7737 20.4674 17.3949 19.7925 17.8763C19.1482 18.3336 18.3826 18.6808 17.5169 18.903C16.6782 19.1215 15.7219 19.2316 14.6729 19.2316H13.9971C13.5139 19.2316 13.0445 19.4057 12.676 19.7177C12.3066 20.0361 12.0622 20.4713 11.9872 20.9471L11.9363 21.2239L11.0809 26.6444L11.042 26.8434C11.0318 26.9064 11.0142 26.9379 10.9883 26.9592C10.9652 26.9786 10.9318 26.9916 10.8994 26.9916H6.72692Z" fill="white"/>
<path d="M21.3369 7.09766C21.311 7.26337 21.2814 7.43279 21.2481 7.60684C20.1029 13.4865 16.185 15.5177 11.1811 15.5177H8.63332C8.02138 15.5177 7.50572 15.962 7.41036 16.5657L6.10593 24.8385L5.73654 27.1835C5.67451 27.5797 5.98002 27.9371 6.37996 27.9371H10.8987C11.4338 27.9371 11.8884 27.5483 11.9726 27.0206L12.0171 26.791L12.8679 21.3918L12.9225 21.0955C13.0058 20.566 13.4613 20.1772 13.9964 20.1772H14.6722C19.0503 20.1772 22.4775 18.3996 23.4792 13.256C23.8977 11.1072 23.681 9.31306 22.5738 8.05121C22.2387 7.67072 21.823 7.35502 21.3369 7.09766Z" fill="white"/>
<path d="M20.1388 6.62003C19.9638 6.56912 19.7833 6.52283 19.5981 6.48117C19.412 6.44043 19.2213 6.40433 19.0251 6.37285C18.3381 6.26175 17.5855 6.20898 16.7791 6.20898H9.97273C9.80516 6.20898 9.64593 6.24694 9.50336 6.31545C9.18952 6.46635 8.95622 6.76353 8.89975 7.12736L7.45182 16.2982L7.41016 16.5657C7.50551 15.9621 8.02117 15.5178 8.63312 15.5178H11.1809C16.1848 15.5178 20.1027 13.4857 21.2479 7.60692C21.2821 7.43287 21.3108 7.26345 21.3367 7.09774C21.047 6.94406 20.7331 6.8126 20.3952 6.70058C20.3119 6.6728 20.2258 6.64596 20.1388 6.62003Z" fill="white"/>
<path d="M8.90049 7.12762C8.95696 6.76379 9.19026 6.46661 9.5041 6.31663C9.6476 6.24813 9.80591 6.21017 9.97348 6.21017H16.7799C17.5862 6.21017 18.3389 6.26294 19.0258 6.37403C19.2221 6.40551 19.4128 6.44161 19.5989 6.48235C19.784 6.52401 19.9646 6.5703 20.1395 6.62122C20.2265 6.64714 20.3126 6.67399 20.3969 6.70083C20.7348 6.81285 21.0486 6.94524 21.3384 7.098C21.6791 4.92518 21.3356 3.44577 20.1608 2.10616C18.8656 0.631386 16.528 0 13.5368 0H4.85296C4.24194 0 3.72072 0.444377 3.62629 1.04891L0.00924751 23.976C-0.062038 24.4296 0.287909 24.8388 0.745247 24.8388H6.10647L7.45256 16.2985L8.90049 7.12762Z" fill="white"/>
</svg>
