<svg width="112" height="22" viewBox="0 0 112 22" fill="none" xmlns="http://www.w3.org/2000/svg">
<path d="M111.122 16.31C111.122 16.0981 110.91 16.0134 110.719 16.0134H110.359V17.0725H110.55V16.6489H110.698L110.931 17.0725H111.164L110.889 16.6065C111.016 16.5853 111.122 16.4582 111.122 16.3311V16.31V16.31ZM110.55 16.4794V16.1829H110.719C110.825 16.1829 110.931 16.204 110.931 16.3311C110.931 16.4582 110.804 16.4794 110.698 16.4794H110.55ZM110.719 15.6321C110.211 15.6533 109.787 16.077 109.808 16.5853C109.83 17.0937 110.253 17.5174 110.762 17.4962C111.27 17.475 111.694 17.0513 111.672 16.543C111.672 16.0346 111.249 15.6109 110.74 15.6109C110.74 15.6109 110.719 15.6109 110.719 15.6321ZM110.719 17.3267C110.274 17.3267 109.914 16.9666 109.914 16.5218C109.914 16.077 110.274 15.7169 110.719 15.7169C111.164 15.7169 111.524 16.077 111.524 16.5218V16.543C111.524 16.9878 111.164 17.3479 110.719 17.3479V17.3267ZM50.138 15.7804C48.7611 15.7804 48.0621 14.5306 48.0621 13.3444C48.0621 12.1582 48.8247 10.972 50.0744 10.972C50.6675 10.972 51.4089 11.2686 51.7055 11.6922L53.1459 10.2307C52.3198 9.44691 51.2183 9.00208 50.0744 9.04444C47.5326 9.04444 45.6897 10.8661 45.6897 13.3656C45.6897 15.9075 47.5114 17.708 50.138 17.708C51.3666 17.708 52.5104 17.3479 53.1882 16.6065L51.769 15.0814C51.3454 15.5262 50.7523 15.7804 50.138 15.7804ZM41.9828 17.475H44.2705V9.27745H42.004L41.9828 17.475ZM37.8523 13.7681C37.8523 14.7213 37.2168 15.7592 36.073 15.7592C35.1621 15.7592 34.6749 15.1238 34.6749 13.7893V9.29863H32.4084V14.3824C32.4084 16.077 33.2557 17.7292 35.5222 17.7292C36.5813 17.7292 37.471 16.8819 37.9158 16.2464H37.9582V17.4962H40.1188V9.27745H37.8523V13.7681ZM28.3202 10.3154H28.2779C27.9601 9.95528 27.0917 9.04444 25.6936 9.04444C23.3848 9.04444 21.6055 10.8449 21.6055 13.3444C21.6055 15.8863 23.2577 17.708 25.5877 17.708C26.6045 17.6868 27.5365 17.242 28.2143 16.4794H28.2567V21.4996H30.502V9.27745H28.3414L28.3202 10.3154ZM26.1385 15.7804C24.7404 15.7804 23.9355 14.5518 23.9355 13.3444C23.9355 12.1794 24.6557 10.9508 26.1385 10.9508C27.473 10.9508 28.2991 12.2218 28.2991 13.3656C28.2991 14.5095 27.4941 15.7804 26.1385 15.7804ZM77.6749 9.04444C75.1119 9.04444 73.2267 10.8449 73.2267 13.3444C73.2267 15.9287 75.1331 17.7292 77.6749 17.7292C80.2168 17.7292 82.1232 15.9075 82.1232 13.3444C82.1232 10.8449 80.2592 9.04444 77.6749 9.04444ZM77.6749 15.7804C76.1922 15.7804 75.5355 14.5095 75.5355 13.3444C75.5355 12.1794 76.2134 10.9508 77.6749 10.9508C79.1365 10.9508 79.8567 12.1794 79.8567 13.3444C79.8567 14.5095 79.1789 15.7804 77.6749 15.7804ZM105.974 12.4336C104.809 12.1582 104.386 12.01 104.386 11.5228C104.386 10.8873 105.233 10.739 105.593 10.739C106.292 10.739 107.076 11.1627 107.394 11.544L108.728 10.273C108.093 9.51045 106.885 9.06563 105.614 9.06563C103.962 9.06563 102.246 9.89173 102.246 11.7134C102.246 13.3021 103.496 13.7681 104.704 14.0646C105.974 14.3612 106.44 14.573 106.44 15.1026C106.44 15.844 105.593 15.971 105.275 15.971C104.492 15.9287 103.75 15.5898 103.221 14.9967L101.844 16.3947C102.585 17.242 103.877 17.7292 105.191 17.7292C107.415 17.7292 108.728 16.6701 108.728 14.9331C108.728 13.2809 107.118 12.709 105.974 12.4336ZM101.674 9.27745H98.7513L95.8281 12.6666H95.7858V4.76562H93.5193V17.475H95.7858V13.4504H95.8281L98.8572 17.475H101.823L98.3065 13.0055L101.674 9.27745ZM68.1217 9.06563C67.0626 9.06563 66.3212 9.48927 65.5799 10.1671H65.5587V4.76562H63.2922V17.475H65.4528V16.31H65.4951C66.0671 17.1784 67.0202 17.6868 68.0582 17.6868C70.3882 17.6868 72.1675 15.8651 72.1675 13.3444C72.1675 10.8449 70.4306 9.04444 68.1217 9.04444V9.06563V9.06563ZM67.6769 15.7804C66.3001 15.7804 65.4951 14.5518 65.4951 13.3656C65.4951 12.1794 66.3424 10.9508 67.6769 10.9508C69.1385 10.9508 69.8587 12.1794 69.8587 13.3444C69.8587 14.5518 69.0749 15.7804 67.6769 15.7804ZM62.4449 9.27745H59.5217L56.5986 12.6666H56.5562V4.76562H54.2897V17.475H56.5562V13.4504H56.5986L59.6276 17.475H62.5932L59.0981 13.0055L62.4449 9.27745ZM87.6094 9.06563C85.0252 9.06563 83.1611 10.8661 83.1611 13.3444C83.1611 15.9287 85.0675 17.7292 87.6094 17.7292C90.1513 17.7292 92.0577 15.9075 92.0577 13.3444C92.0577 10.8449 90.1725 9.04444 87.6094 9.04444V9.06563ZM87.6094 15.7804C86.1267 15.7804 85.4488 14.5095 85.4488 13.3444C85.4488 12.1794 86.1267 10.9508 87.6094 10.9508C89.0922 10.9508 89.7488 12.1794 89.7488 13.3444C89.7488 14.5095 89.071 15.7804 87.6094 15.7804Z" fill="white"/>
<path d="M9.53202 19.064C14.7964 19.064 19.064 14.7964 19.064 9.53202C19.064 4.26763 14.7964 0 9.53202 0C4.26763 0 0 4.26763 0 9.53202C0 14.7964 4.26763 19.064 9.53202 19.064Z" fill="white"/>
<path d="M2.64844 9.53197C2.64844 11.5867 4.30065 13.2389 6.35533 13.2389H6.88489V11.862H6.35533C5.06322 11.862 4.02528 10.8241 4.02528 9.53197C4.02528 8.23985 5.06322 7.20192 6.35533 7.20192H7.62627V14.4039C7.62627 15.1665 8.24056 15.7807 9.00312 15.7807V5.82508H6.35533C4.30065 5.82508 2.64844 7.47729 2.64844 9.53197ZM12.71 5.82508H12.1805V7.20192H12.71C14.0021 7.20192 15.0401 8.23985 15.0401 9.53197C15.0401 10.8241 14.0021 11.862 12.71 11.862H11.4391V4.66005C11.4391 3.89749 10.8248 3.2832 10.0622 3.2832V13.2389H12.71C14.7647 13.2389 16.4169 11.5867 16.4169 9.53197C16.4169 7.47729 14.7647 5.82508 12.71 5.82508Z" fill="#0C111B"/>
<path d="M30.9267 2.18274C31.2868 2.18274 31.5621 1.90737 31.5621 1.54728C31.5621 1.18718 31.2868 0.911809 30.9267 0.911809C30.5666 0.911809 30.2912 1.18718 30.2912 1.54728C30.2912 1.90737 30.5666 2.18274 30.9267 2.18274ZM27.1774 2.60639C26.6478 2.60639 26.1395 2.90294 25.9065 3.39013H25.8641V2.7123H24.8897V6.88521H25.9276V4.59752C25.9276 4.04678 26.2454 3.47486 26.902 3.47486C27.5587 3.47486 27.6858 4.08915 27.6858 4.57634V6.90639H28.7237V4.25861C28.7237 3.41132 28.2789 2.56403 27.1774 2.56403V2.60639ZM22.7715 6.88521H23.8306V2.7123H22.7715V6.88521ZM41.7296 2.16156C42.0897 2.16156 42.3651 1.88619 42.3651 1.52609C42.3651 1.16599 42.0897 0.890625 41.7296 0.890625C41.3695 0.890625 41.0941 1.16599 41.0941 1.52609C41.0941 1.88619 41.3695 2.16156 41.7296 2.16156ZM40.035 2.7123V3.64432H41.2001V6.88521H42.2592V3.64432H43.4242V2.7123H40.035ZM38.2557 6.88521H39.3148V2.7123H38.2557V6.88521ZM29.2533 3.64432H30.4183V6.88521H31.4774V3.64432H32.6424V2.7123H29.2533V3.64432ZM36.1587 5.02117C36.1587 5.57191 35.8409 6.14383 35.1843 6.14383C34.5276 6.14383 34.4005 5.50836 34.4005 5.02117V2.7123H33.3414V5.31772C33.3414 6.16501 33.8074 7.0123 34.8877 7.0123C35.4385 7.0123 35.9257 6.71575 36.1799 6.22855H36.201V6.90639H37.1966V2.7123H36.1375L36.1587 5.02117Z" fill="white"/>
</svg>
