<svg width="115" height="30" viewBox="0 0 115 30" fill="none" xmlns="http://www.w3.org/2000/svg">
<path d="M87.3749 24.557C92.1763 24.557 95.2871 21.2037 95.2871 16.1907C95.2871 11.2454 92.5482 8.16308 88.1188 8.16308C85.177 8.16308 83.0806 9.48408 81.8634 11.9906L82.8778 2.06617H94.1713V0.508075H81.5252L80.1727 14.1245L81.8972 14.3277C82.5396 11.5502 84.7713 9.6873 87.6792 9.6873C91.3986 9.6873 93.5288 12.1938 93.5288 16.2584C93.5288 20.4246 91.1957 23.0328 87.4425 23.0328C84.2641 23.0328 82.1677 21.1698 81.6267 18.2907L79.8008 18.4601C80.4094 22.186 83.3173 24.557 87.3749 24.557Z" fill="white"/>
<path d="M105.65 24.557C111.297 24.557 114.34 19.8488 114.34 12.3293C114.34 4.77591 111.263 0 105.616 0C99.9694 0 96.9262 4.70816 96.9262 12.2277C96.9262 19.8488 99.9356 24.557 105.65 24.557ZM105.65 23.0666C101.085 23.0666 98.6845 18.9681 98.6845 12.2277C98.6845 5.6227 101.119 1.49036 105.616 1.49036C110.181 1.49036 112.548 5.65657 112.548 12.3293C112.548 18.9681 110.181 23.0666 105.65 23.0666Z" fill="white"/>
<path d="M63.6659 2.0332C58.0227 2.0332 54.3379 5.90512 54.3379 12.3067C54.3379 20.257 59.9811 22.5285 64.0266 22.5285C67.0673 22.5285 69.9533 21.2895 72.0405 19.0955L69.4379 16.4884C68.0464 17.7274 66.4488 18.4759 64.0782 18.4759C60.9345 18.4759 58.8215 16.6432 58.8215 14.1136H72.8393C72.8135 14.0877 75.2615 2.0332 63.6659 2.0332ZM58.8215 10.6547C58.8215 7.24738 61.3983 5.62119 64.1555 5.62119C66.9127 5.62119 69.4121 7.29901 69.4121 10.6547H58.8215Z" fill="white"/>
<path d="M49.4475 2.44621V4.64029C47.9272 2.91083 46.1234 2.0332 43.6755 2.0332C39.4753 2.0332 37.3108 4.38217 36.5893 6.91182C36.3058 7.84108 36.2285 9.62217 36.2285 12.2551C36.2285 14.7331 36.2543 17.0046 37.1046 18.7341C38.3157 21.1605 41.2275 22.5285 43.6755 22.5285C46.0461 22.5285 48.056 21.5993 49.4475 19.9989V21.2379C49.4475 22.6834 48.9579 23.6385 48.0302 24.3871C47.1026 25.1356 45.943 25.6003 44.3197 25.6003C42.8509 25.6003 41.4594 24.8001 40.6606 24.2322L37.6715 27.2265C39.6041 28.801 41.8975 29.8594 44.397 29.8852C46.7934 29.9368 49.1383 29.1624 51.0193 27.6395C52.7973 26.2456 53.9311 23.5869 53.9311 20.7991V2.44621H49.4475ZM49.4475 12.2551C49.4475 13.778 49.4217 14.9138 49.2929 15.5075C49.0094 16.7723 47.5664 18.4501 44.9381 18.4501C44.2681 18.4501 40.9183 18.0629 40.5318 15.1461C40.4287 14.191 40.3772 13.2101 40.4029 12.2551C40.4029 9.98355 40.506 9.26077 40.6091 8.6929C40.841 7.55713 42.3355 5.85349 44.9381 5.85349C48.1075 5.85349 49.1383 8.02176 49.2929 8.87359C49.4217 9.98354 49.4732 11.1193 49.4475 12.2551Z" fill="white"/>
<path d="M26.8484 2.0337C23.9882 2.00785 21.1795 2.98878 18.9377 4.76985L21.6433 7.48021C23.1636 6.34444 24.9931 5.75074 26.8742 5.77655C30.3013 5.77655 31.3321 7.14463 31.3321 8.6934V10.6294H25.2251C22.9575 10.6294 18.5254 11.1972 18.5254 16.1791C18.5254 19.8445 20.6126 22.529 25.6116 22.529C28.1111 22.529 30.0179 21.7288 31.3321 20.1543V22.1418H35.7642V9.00315C35.7642 4.40848 32.9554 2.0337 26.8484 2.0337ZM31.3578 14.9659C31.3578 18.7604 28.6522 18.5539 26.2558 18.5539C23.8594 18.5539 22.2617 17.9086 22.2617 16.2049C22.2617 14.6303 23.5244 14.0883 26.1527 14.0883H31.3578V14.9659Z" fill="white"/>
<path d="M12.0594 10.323C10.2556 10.0907 5.07629 10.2972 5.07629 7.92242C5.07629 6.52853 7.26657 5.75415 9.2507 5.75415C11.3637 5.72829 13.4251 6.32203 15.1773 7.4578L17.883 4.77326C17.0842 4.12794 14.1208 2.03711 9.2507 2.03711C4.81861 2.03711 0.824573 4.36026 0.824573 8.0773C0.824573 13.7819 7.70462 13.7819 10.5649 14.0659C12.3171 14.2466 13.8889 14.3498 13.8889 16.0534C13.8889 17.6538 11.4667 18.5315 9.58568 18.5315C6.51929 18.5315 4.68977 17.5248 2.88601 15.8986L0 18.8154C2.49949 21.2418 5.8751 22.5583 9.35377 22.5325C14.5074 22.5325 18.2437 20.2609 18.2437 15.6921C18.2437 12.672 16.208 10.8651 12.0594 10.323" fill="white"/>
</svg>
