<svg width="115" height="22" viewBox="0 0 115 22" fill="none" xmlns="http://www.w3.org/2000/svg">
<path d="M35.4773 9.54124C35.4773 7.44409 37.077 6.43436 38.7938 6.43436C40.5105 6.43436 42.0712 7.46351 42.0712 9.54124H35.4773ZM38.5011 4.2207C34.9896 4.2207 32.707 6.60912 32.707 10.5704C32.707 15.4637 36.2186 16.8813 38.7157 16.8813C41.8957 16.8813 43.71 14.7647 43.71 14.7647L42.0907 13.153C41.2324 13.9103 40.2374 14.3763 38.7547 14.3763C36.8039 14.3763 35.4773 13.2307 35.4773 11.6772H44.1782C44.1782 11.6578 45.6999 4.2207 38.5011 4.2207Z" fill="white"/>
<path d="M7.65045 9.35493C6.51187 9.2188 3.19601 9.33548 3.19601 7.8769C3.19601 7.00174 4.57429 6.535 5.85269 6.535C7.89015 6.535 9.24845 7.33236 9.62798 7.58518L11.3458 5.91266C10.8465 5.50426 8.94882 4.2207 5.85269 4.2207C3.03621 4.2207 0.499376 5.65984 0.499376 7.95469C0.499376 11.4942 4.87391 11.4747 6.71162 11.6498C7.81025 11.747 8.82897 11.8248 8.82897 12.8944C8.82897 13.8668 7.29089 14.4308 6.09239 14.4308C4.13484 14.4308 2.97628 13.8085 1.8377 12.7972L0 14.5864C1.69788 16.1811 3.83521 16.8813 5.95257 16.8813C9.22847 16.8813 11.6055 15.481 11.6055 12.6416C11.5855 10.7941 10.2872 9.68555 7.65045 9.35493Z" fill="white"/>
<path d="M19.427 12.2138C19.427 14.567 17.7743 14.4308 16.2946 14.4308C14.7956 14.4308 13.8539 14.0224 13.8539 12.9722C13.8539 11.9998 14.6226 11.6692 16.2369 11.6692H19.427V12.2138ZM16.6789 4.2207C13.95 4.2207 12.1628 5.64039 11.8361 5.91266L13.4888 7.58518C13.8155 7.31291 14.9493 6.535 16.6981 6.535C18.7928 6.535 19.427 7.37125 19.427 8.34365V9.52997H15.6988C14.3151 9.52997 11.6055 9.88003 11.6055 12.9528C11.6055 15.2087 12.893 16.8813 15.9486 16.8813C17.4861 16.8813 18.6391 16.3756 19.4462 15.4032V16.6284H22.1559V8.51867C22.1175 5.67929 20.4071 4.2207 16.6789 4.2207Z" fill="white"/>
<path d="M30.0504 10.4196C30.0504 11.3543 30.0317 12.0409 29.9569 12.3842C29.7885 13.1663 28.928 14.1772 27.3754 14.1772C26.9825 14.1772 24.9809 13.9483 24.7565 12.1744C24.719 11.812 24.6816 11.3543 24.6816 10.4196C24.6816 9.04634 24.7377 8.60764 24.8126 8.24524C24.9435 7.55859 25.8414 6.52861 27.3941 6.52861C29.2834 6.52861 29.9007 7.8447 29.9943 8.35969C30.0317 8.72209 30.0504 9.50411 30.0504 10.4196ZM30.0504 4.46866V5.80382C29.1525 4.73569 28.0862 4.2207 26.6084 4.2207C24.1017 4.2207 22.811 5.65123 22.3807 7.17712C22.2124 7.74933 22.1562 8.81746 22.1562 10.4196C22.1562 11.9265 22.175 13.2998 22.68 14.3488C23.3909 15.8175 25.1493 16.6377 26.5897 16.6377C27.9927 16.6377 29.1899 16.0845 30.0317 15.1118V15.8556C30.0317 16.733 29.7324 17.3052 29.1899 17.763C28.6287 18.2208 27.9366 18.5069 26.9825 18.5069C26.1033 18.5069 25.2802 18.03 24.7939 17.6867L23.0167 19.4987C24.1578 20.4524 25.5421 21.1009 27.0199 21.1009C28.5913 21.12 29.8633 20.6241 30.967 19.7467C32.0333 18.8884 32.7067 17.2862 32.7067 15.5886V4.46866H30.0504V4.46866Z" fill="white"/>
<path d="M52.7523 0H51.6973V16.8807H52.7523V0Z" fill="white"/>
<path d="M65.413 16.8809H64.3645V9.26075C64.3645 7.37877 63.7879 6.27173 61.9705 6.27173C60.4152 6.27173 58.7201 7.34187 58.0211 8.043V16.8809H56.9727V5.4968H57.8814L57.9513 6.97286C59.2094 6.03187 60.6424 5.27539 62.1627 5.27539C64.4344 5.27539 65.413 6.65919 65.413 9.22384V16.8809Z" fill="white"/>
<path d="M74.9088 16.2292C74.3553 16.6088 73.2103 16.88 72.3897 16.88C70.2142 16.88 69.3936 16.0303 69.3936 14.0597V6.39413H67.5234V5.45401H69.3936V2.29017L70.5386 2.10938V5.47209H73.8783V6.4122H70.5386V13.8608C70.5386 15.1987 70.8631 15.9941 72.4661 15.9941C73.1912 15.9941 74.0691 15.7049 74.6034 15.3975L74.9088 16.2292Z" fill="white"/>
<path d="M82.6359 11.1051C82.0753 11.0692 81.4947 11.0333 80.734 11.0333C78.2515 11.0333 76.1294 11.4997 76.1294 13.7418C76.1294 14.9437 76.6499 15.9482 78.692 15.9482C80.2535 15.9482 81.775 15.3024 82.6359 14.3697V11.1051ZM83.8371 15.0333C83.8371 15.6432 83.9572 15.9482 84.5978 15.9482C84.818 15.9482 85.0382 15.9123 85.3586 15.8226L85.4587 16.5221C84.9782 16.7374 84.6579 16.7912 84.1374 16.7912C83.0763 16.7912 82.6759 16.0737 82.736 15.3921C81.795 16.2352 80.2935 16.8809 78.5518 16.8809C75.3887 16.8809 74.9082 14.9257 74.9082 13.8674C74.9082 10.7104 78.0914 10.1544 80.9742 10.1544C81.5548 10.1544 82.1153 10.1723 82.6559 10.1902V9.20368C82.6559 7.01532 82.0553 6.19019 79.713 6.19019C77.6509 6.19019 76.8501 6.88975 76.5698 8.253L75.4287 8.07362C75.8091 6.02876 77.3306 5.27539 79.8131 5.27539C82.7159 5.27539 83.8771 6.22607 83.8771 8.98843V15.0333H83.8371Z" fill="white"/>
<path d="M85.459 11.1052C85.459 7.17052 87.4512 5.27539 90.8025 5.27539C92.9808 5.27539 94.7682 6.48466 94.8799 8.90321L93.6883 9.02955C93.4835 7.11638 92.534 6.21393 90.6722 6.21393C88.7545 6.21393 86.6133 7.26076 86.6133 10.9427C86.6133 14.9135 88.6055 15.8701 90.5232 15.8701C92.292 15.8701 93.5022 15.0759 93.8187 13.3252L94.9544 13.5418C94.5262 15.9242 92.5526 16.8808 90.5418 16.8808C86.7809 16.8988 85.459 14.4803 85.459 11.1052Z" fill="white"/>
<path d="M97.0645 11.1052C97.0645 7.17052 99.0527 5.27539 102.397 5.27539C104.572 5.27539 106.355 6.48466 106.467 8.90321L105.278 9.02955C105.073 7.11638 104.126 6.21393 102.267 6.21393C100.353 6.21393 98.2351 7.26076 98.2351 10.9427C98.2351 14.9135 100.223 15.8701 102.137 15.8701C103.903 15.8701 105.11 15.0759 105.426 13.3252L106.56 13.5418C106.132 15.9242 104.163 16.8808 102.156 16.8808C98.3652 16.8988 97.0645 14.4803 97.0645 11.1052Z" fill="white"/>
<path d="M114.999 16.2292C114.445 16.6088 113.3 16.88 112.48 16.88C110.304 16.88 109.483 16.0303 109.483 14.0597V6.39413H107.613V5.45401H109.483V2.29017L110.628 2.10938V5.47209H113.968V6.4122H110.609V13.8608C110.609 15.1987 110.934 15.9941 112.537 15.9941C113.262 15.9941 114.14 15.7049 114.674 15.3975L114.999 16.2292Z" fill="white"/>
</svg>
