<svg width="113" height="29" viewBox="0 0 113 29" fill="none" xmlns="http://www.w3.org/2000/svg">
<path fill-rule="evenodd" clip-rule="evenodd" d="M0 21.7742V0H36.8637V21.7742L18.4102 28.0678L0 21.7742ZM12.719 21.0836H18.3671V5.77729H12.5034V13.8826C12.5034 16.383 11.1673 16.8574 10.2186 16.8574C8.49337 16.8574 8.27779 15.6078 8.27779 13.8826V5.77729H2.41406V16.2978C2.41406 19.8334 5.00156 21.5142 7.71755 21.5142C10.003 21.5142 11.5979 20.6951 12.719 19.1435V21.0836ZM28.5856 9.14061C29.0167 9.39942 29.1891 9.74409 29.2755 10.2617H34.5784C34.4487 6.33815 30.4819 5.43262 27.1192 5.43262C24.0579 5.43262 19.8755 6.42463 19.8755 10.305C19.8755 12.8918 21.6872 14.3582 26.1278 15.134C28.8444 15.6084 29.4046 15.824 29.4046 16.7289C29.4046 17.6351 28.1544 17.8933 27.4212 17.8933C26.6887 17.8933 26.1278 17.6777 25.869 17.4627C25.3952 17.0742 25.1796 16.6437 25.0932 16.0828H19.5302C19.6593 20.0496 23.5829 21.5154 27.2044 21.5154C30.9557 21.5154 34.9657 20.3511 34.9657 16.0828C34.9657 13.5818 33.2411 12.4613 31.3874 11.8572C30.3242 11.4874 29.1991 11.2909 28.2312 11.1219C27.3935 10.9757 26.6736 10.85 26.2137 10.6502C25.8684 10.5205 25.5237 10.305 25.5237 9.83057C25.5237 8.83917 26.5157 8.62298 27.2483 8.62298C27.7659 8.62298 28.2403 8.79532 28.5856 9.14061Z" fill="white"/>
<path fill-rule="evenodd" clip-rule="evenodd" d="M38.8912 0.0859375H44.7117V7.45869H44.7982C45.7037 6.20848 47.256 5.43266 48.9806 5.43266C54.1117 5.43266 55.5343 9.74352 55.5343 13.3663C55.5343 17.2027 53.4218 21.5142 49.1097 21.5142C46.2646 21.5142 45.3591 20.3937 44.5826 19.445H44.5394V21.0831H38.8906V0.0859375H38.8912ZM47.083 9.7009C45.0132 9.7009 44.5394 11.6411 44.5394 13.4521C44.5394 15.2632 45.0138 17.2898 47.083 17.2898C49.1955 17.2898 49.6699 15.2632 49.6699 13.4521C49.6699 11.6411 49.1962 9.7009 47.083 9.7009ZM71.7894 17.6771C71.7894 18.8847 71.8753 20.1355 72.4781 21.0843H66.5718C66.4427 20.6958 66.3136 20.0491 66.3556 19.6185H66.3136C65.0628 21.0843 63.2517 21.5148 61.3554 21.5148C58.4226 21.5148 56.0087 20.0491 56.0087 16.8581C56.0087 12.0728 61.6574 12.2019 64.6322 11.6417C65.408 11.5126 66.2271 11.297 66.2271 10.305C66.2271 9.27037 65.279 8.83922 64.2869 8.83922C62.4759 8.83922 62.1312 9.74414 62.1312 10.4347H56.6986C56.8277 6.12262 60.9236 5.43328 64.5464 5.43328C71.8753 5.43328 71.79 8.45131 71.79 11.4261V17.6771H71.7894ZM66.2265 14.2292C65.5069 14.5891 64.7363 14.8361 63.9417 14.9618C62.605 15.2632 61.915 15.6085 61.915 16.6437C61.915 17.3337 62.6921 18.0224 63.7261 18.0224C65.0628 18.0224 66.098 17.2898 66.2271 15.6517V14.2292H66.2265ZM73.9019 5.77733H79.5068V7.7175H79.5927C80.7132 6.20848 82.2228 5.43266 84.5947 5.43266C87.3113 5.43266 89.8111 7.11402 89.8111 10.6064V21.0837H83.9912V13.1068C83.9912 11.2964 83.7751 10.0888 82.0937 10.0888C81.0585 10.0888 79.723 10.6058 79.723 13.021V21.0837H73.9019V5.77733ZM91.9249 0.0859375H97.7441V10.2618L101.453 5.77733H108.05L102.617 11.5552L108.869 21.0837H101.84L98.7794 15.6079L97.7441 16.729V21.0837H91.9249V0.0859375ZM111.542 19.0138C111.757 19.23 111.8 19.4894 111.8 19.8341C111.8 20.1355 111.757 20.3937 111.542 20.6099C111.239 20.9114 111.024 20.9552 110.68 20.9552C110.42 20.9552 110.119 20.912 109.946 20.6099C109.645 20.3937 109.601 20.1355 109.601 19.8341C109.601 19.4888 109.644 19.2294 109.946 19.0138C110.162 18.7989 110.42 18.6698 110.68 18.6698C111.024 18.6698 111.239 18.7989 111.542 19.0138ZM111.671 18.8847C111.412 18.6698 111.024 18.5394 110.68 18.5394C110.335 18.5394 109.99 18.6698 109.774 18.8847C109.515 19.1441 109.386 19.4894 109.386 19.8341C109.386 20.1782 109.515 20.5228 109.774 20.739C109.99 21.0404 110.334 21.1695 110.68 21.1695C111.025 21.1695 111.412 21.0404 111.671 20.739C111.887 20.5228 112.016 20.1782 112.016 19.8341C112.014 19.4873 111.892 19.152 111.671 18.8847ZM110.895 19.7909H110.42V19.2732H110.636C110.765 19.2732 110.895 19.2732 110.981 19.3591C111.024 19.3591 111.024 19.4462 111.024 19.5753C111.024 19.6179 110.981 19.7038 110.895 19.7909ZM110.162 20.5228H110.42V20.0052H110.637C110.766 20.0052 110.853 20.0052 110.896 20.0484C110.982 20.0484 111.025 20.1775 111.025 20.3499V20.5222H111.326C111.239 20.5222 111.239 20.4802 111.239 20.4802V20.264C111.239 20.1769 111.239 20.1349 111.197 20.0478C111.11 19.9187 111.025 19.9187 110.981 19.9187C111.024 19.8329 111.11 19.8329 111.197 19.7896C111.239 19.7896 111.326 19.6173 111.326 19.4882C111.326 19.3579 111.239 19.2288 111.025 19.1429C110.982 19.1429 110.853 19.0997 110.68 19.0997H110.162V20.5228Z" fill="white"/>
</svg>
