<svg width="113" height="22" viewBox="0 0 113 22" fill="none" xmlns="http://www.w3.org/2000/svg">
<path d="M111.887 16.31C111.887 16.0981 111.676 16.0134 111.485 16.0134H111.125V17.0725H111.315V16.6489H111.464L111.697 17.0725H111.93L111.654 16.6065C111.781 16.5853 111.887 16.4582 111.887 16.3311V16.31ZM111.315 16.4794V16.1829H111.485C111.591 16.1829 111.697 16.2041 111.697 16.3311C111.697 16.4582 111.57 16.4794 111.464 16.4794H111.315ZM111.485 15.6321C110.977 15.6533 110.553 16.077 110.574 16.5853C110.595 17.0937 111.019 17.5174 111.527 17.4962C112.036 17.475 112.459 17.0513 112.438 16.543C112.438 16.0346 112.014 15.6109 111.506 15.6109C111.506 15.6109 111.485 15.6109 111.485 15.6321ZM111.485 17.3267C111.04 17.3267 110.68 16.9666 110.68 16.5218C110.68 16.077 111.04 15.7169 111.485 15.7169C111.93 15.7169 112.29 16.077 112.29 16.5218V16.543C112.29 16.9878 111.93 17.3479 111.485 17.3479V17.3267ZM50.9036 15.7804C49.5268 15.7804 48.8277 14.5306 48.8277 13.3444C48.8277 12.1582 49.5903 10.972 50.8401 10.972C51.4332 10.972 52.1745 11.2686 52.4711 11.6922L53.9115 10.2307C53.0854 9.44691 51.9839 9.00208 50.8401 9.04444C48.2982 9.04444 46.4553 10.8661 46.4553 13.3656C46.4553 15.9075 48.277 17.708 50.9036 17.708C52.1322 17.708 53.276 17.3479 53.9539 16.6065L52.5346 15.0814C52.111 15.5262 51.5179 15.7804 50.9036 15.7804ZM42.7484 17.475H45.0361V9.27745H42.7696L42.7484 17.475ZM38.6179 13.7681C38.6179 14.7213 37.9824 15.7592 36.8386 15.7592C35.9277 15.7592 35.4406 15.1238 35.4406 13.7893V9.29863H33.1741V14.3824C33.1741 16.077 34.0213 17.7292 36.2878 17.7292C37.347 17.7292 38.2366 16.8819 38.6814 16.2464H38.7238V17.4962H40.8844V9.27745H38.6179V13.7681ZM29.0859 10.3154H29.0435C28.7258 9.95528 27.8573 9.04444 26.4593 9.04444C24.1504 9.04444 22.3711 10.8449 22.3711 13.3444C22.3711 15.8863 24.0233 17.708 26.3534 17.708C27.3701 17.6868 28.3021 17.242 28.98 16.4794H29.0223V21.4996H31.2676V9.27745H29.1071L29.0859 10.3154ZM26.9041 15.7804C25.5061 15.7804 24.7011 14.5518 24.7011 13.3444C24.7011 12.1794 25.4213 10.9508 26.9041 10.9508C28.2386 10.9508 29.0647 12.2218 29.0647 13.3656C29.0647 14.5095 28.2598 15.7804 26.9041 15.7804ZM78.4406 9.04444C75.8775 9.04444 73.9923 10.8449 73.9923 13.3444C73.9923 15.9287 75.8987 17.7292 78.4406 17.7292C80.9824 17.7292 82.8888 15.9075 82.8888 13.3444C82.8888 10.8449 81.0248 9.04444 78.4406 9.04444ZM78.4406 15.7804C76.9578 15.7804 76.3011 14.5095 76.3011 13.3444C76.3011 12.1794 76.979 10.9508 78.4406 10.9508C79.9021 10.9508 80.6223 12.1794 80.6223 13.3444C80.6223 14.5095 79.9445 15.7804 78.4406 15.7804ZM106.74 12.4336C105.575 12.1582 105.151 12.01 105.151 11.5228C105.151 10.8873 105.999 10.739 106.359 10.739C107.058 10.739 107.842 11.1627 108.159 11.544L109.494 10.273C108.858 9.51045 107.651 9.06563 106.38 9.06563C104.728 9.06563 103.012 9.89173 103.012 11.7134C103.012 13.3021 104.262 13.7681 105.469 14.0646C106.74 14.3612 107.206 14.573 107.206 15.1026C107.206 15.844 106.359 15.971 106.041 15.971C105.257 15.9287 104.516 15.5898 103.986 14.9967L102.61 16.3947C103.351 17.242 104.643 17.7292 105.956 17.7292C108.18 17.7292 109.494 16.6701 109.494 14.9331C109.494 13.2809 107.884 12.709 106.74 12.4336ZM102.44 9.27745H99.5169L96.5938 12.6666H96.5514V4.76562H94.2849V17.475H96.5514V13.4504H96.5938L99.6228 17.475H102.588L99.0721 13.0055L102.44 9.27745ZM68.8874 9.06563C67.8282 9.06563 67.0869 9.48927 66.3455 10.1671H66.3243V4.76562H64.0578V17.475H66.2184V16.31H66.2608C66.8327 17.1784 67.7859 17.6868 68.8238 17.6868C71.1539 17.6868 72.9332 15.8651 72.9332 13.3444C72.9332 10.8449 71.1962 9.04444 68.8874 9.04444V9.06563ZM68.4425 15.7804C67.0657 15.7804 66.2608 14.5518 66.2608 13.3656C66.2608 12.1794 67.108 10.9508 68.4425 10.9508C69.9041 10.9508 70.6243 12.1794 70.6243 13.3444C70.6243 14.5518 69.8406 15.7804 68.4425 15.7804ZM63.2105 9.27745H60.2874L57.3642 12.6666H57.3218V4.76562H55.0553V17.475H57.3218V13.4504H57.3642L60.3933 17.475H63.3588L59.8637 13.0055L63.2105 9.27745ZM88.375 9.06563C85.7908 9.06563 83.9268 10.8661 83.9268 13.3444C83.9268 15.9287 85.8332 17.7292 88.375 17.7292C90.9169 17.7292 92.8233 15.9075 92.8233 13.3444C92.8233 10.8449 90.9381 9.04444 88.375 9.04444V9.06563ZM88.375 15.7804C86.8923 15.7804 86.2144 14.5095 86.2144 13.3444C86.2144 12.1794 86.8923 10.9508 88.375 10.9508C89.8578 10.9508 90.5145 12.1794 90.5145 13.3444C90.5145 14.5095 89.8366 15.7804 88.375 15.7804Z" fill="black"/>
<path d="M10.2976 19.064C15.562 19.064 19.8297 14.7964 19.8297 9.53202C19.8297 4.26763 15.562 0 10.2976 0C5.03326 0 0.765625 4.26763 0.765625 9.53202C0.765625 14.7964 5.03326 19.064 10.2976 19.064Z" fill="#2CA01C"/>
<path d="M3.41406 9.53197C3.41406 11.5867 5.06628 13.2389 7.12096 13.2389H7.65052V11.862H7.12096C5.82884 11.862 4.79091 10.8241 4.79091 9.53197C4.79091 8.23985 5.82884 7.20192 7.12096 7.20192H8.39189V14.4039C8.39189 15.1665 9.00618 15.7807 9.76874 15.7807V5.82508H7.12096C5.06628 5.82508 3.41406 7.47729 3.41406 9.53197ZM13.4756 5.82508H12.9461V7.20192H13.4756C14.7678 7.20192 15.8057 8.23985 15.8057 9.53197C15.8057 10.8241 14.7678 11.862 13.4756 11.862H12.2047V4.66005C12.2047 3.89749 11.5904 3.2832 10.8279 3.2832V13.2389H13.4756C15.5303 13.2389 17.1825 11.5867 17.1825 9.53197C17.1825 7.47729 15.5303 5.82508 13.4756 5.82508Z" fill="white"/>
<path d="M31.6923 2.18274C32.0524 2.18274 32.3277 1.90737 32.3277 1.54728C32.3277 1.18718 32.0524 0.911809 31.6923 0.911809C31.3322 0.911809 31.0568 1.18718 31.0568 1.54728C31.0568 1.90737 31.3322 2.18274 31.6923 2.18274ZM27.943 2.60639C27.4135 2.60639 26.9051 2.90294 26.6721 3.39013H26.6297V2.7123H25.6553V6.88521H26.6933V4.59752C26.6933 4.04678 27.011 3.47486 27.6677 3.47486C28.3243 3.47486 28.4514 4.08915 28.4514 4.57634V6.90639H29.4893V4.25861C29.4893 3.41132 29.0445 2.56403 27.943 2.56403V2.60639ZM23.5371 6.88521H24.5962V2.7123H23.5371V6.88521ZM42.4952 2.16156C42.8553 2.16156 43.1307 1.88619 43.1307 1.52609C43.1307 1.16599 42.8553 0.890625 42.4952 0.890625C42.1351 0.890625 41.8598 1.16599 41.8598 1.52609C41.8598 1.88619 42.1351 2.16156 42.4952 2.16156ZM40.8007 2.7123V3.64432H41.9657V6.88521H43.0248V3.64432H44.1898V2.7123H40.8007ZM39.0213 6.88521H40.0805V2.7123H39.0213V6.88521ZM30.0189 3.64432H31.1839V6.88521H32.243V3.64432H33.408V2.7123H30.0189V3.64432ZM36.9243 5.02117C36.9243 5.57191 36.6066 6.14383 35.9499 6.14383C35.2933 6.14383 35.1662 5.50836 35.1662 5.02117V2.7123H34.1071V5.31772C34.1071 6.16501 34.5731 7.0123 35.6534 7.0123C36.2041 7.0123 36.6913 6.71575 36.9455 6.22856H36.9667V6.90639H37.9622V2.7123H36.9031L36.9243 5.02117Z" fill="black"/>
</svg>
