<svg width="112" height="15" viewBox="0 0 112 15" fill="none" xmlns="http://www.w3.org/2000/svg">
<path d="M46.6247 9.13425H53.7611L49.9876 3.06324L43.0619 14.0399H39.9099L48.3339 0.854597C48.7001 0.321856 49.3106 0 49.9876 0C50.6424 0 51.2528 0.310759 51.608 0.832397L60.0652 14.0399H56.9132L55.426 11.5871H48.2007L46.6247 9.13425ZM79.3659 11.5871V0.133184H76.6911V12.708C76.6911 13.0521 76.8243 13.3851 77.0796 13.6403C77.3348 13.8956 77.6789 14.0399 78.0563 14.0399H90.2538L91.8298 11.5871H79.3659ZM35.1153 9.53381C37.7124 9.53381 39.8212 7.43615 39.8212 4.83905C39.8212 2.24195 37.7124 0.133184 35.1153 0.133184H23.4139V14.0399H26.0876V2.586H34.9377C36.1808 2.586 37.1797 3.59599 37.1797 4.83905C37.1797 6.08211 36.1808 7.09209 34.9377 7.09209L27.3973 7.08098L35.3816 14.0399H39.2662L33.8945 9.53381H35.1153ZM6.95453 14.0399C3.11544 14.0399 0 10.9322 0 7.09209C0 3.25193 3.11544 0.133184 6.95453 0.133184H15.0377C18.8778 0.133184 21.991 3.25193 21.991 7.09209C21.991 10.9322 18.8778 14.0399 15.0377 14.0399H6.95453ZM14.8579 11.5871C17.3451 11.5871 19.3596 9.5782 19.3596 7.09209C19.3596 4.60597 17.3451 2.586 14.8579 2.586H7.13318C4.64706 2.586 2.63149 4.60597 2.63149 7.09209C2.63149 9.5782 4.64706 11.5871 7.13318 11.5871H14.8579ZM65.6479 14.0399C61.8077 14.0399 58.689 10.9322 58.689 7.09209C58.689 3.25193 61.8077 0.133184 65.6479 0.133184H75.2483L73.6834 2.586H65.8255C63.3393 2.586 61.3194 4.60597 61.3194 7.09209C61.3194 9.5782 63.3393 11.5871 65.8255 11.5871H75.4702L73.8942 14.0399H65.6479ZM98.3559 11.5871C96.3026 11.5871 94.5601 10.2108 94.0273 8.31294H105.459L107.035 5.86012H94.0273C94.5601 3.97334 96.3026 2.586 98.3559 2.586H106.203L107.79 0.133184H98.1783C94.3381 0.133184 91.2194 3.25193 91.2194 7.09209C91.2194 10.9322 94.3381 14.0399 98.1783 14.0399H106.425L108.001 11.5871H98.3559Z" fill="#F80000"/>
<path d="M109.214 1.61046C109.214 0.933432 109.758 0.389601 110.435 0.389601C111.123 0.389601 111.667 0.933432 111.667 1.61046C111.667 2.29857 111.123 2.84242 110.435 2.84242C109.758 2.84242 109.214 2.29857 109.214 1.61046ZM110.435 3.18648C111.3 3.18648 112 2.48726 112 1.62156C112 0.755863 111.3 0.0566406 110.435 0.0566406C109.58 0.0566406 108.881 0.755863 108.881 1.62156C108.881 2.48726 109.58 3.18648 110.435 3.18648ZM110.29 0.689271C110.535 0.689271 110.634 0.700361 110.745 0.744752C111.056 0.844649 111.089 1.12212 111.089 1.23311C111.089 1.25531 111.089 1.3108 111.067 1.37738C111.056 1.44398 111.012 1.57717 110.856 1.67705C110.834 1.68815 110.823 1.69925 110.779 1.72144L111.178 2.44287H110.79L110.435 1.77694H110.191V2.44287H109.846V0.689271H110.29ZM110.412 1.48838C110.523 1.47728 110.634 1.47728 110.701 1.37738C110.734 1.33299 110.745 1.2886 110.745 1.222C110.745 1.13321 110.69 1.05553 110.612 1.01113C110.535 0.977842 110.457 0.977841 110.29 0.977841H110.191V1.48838H110.412Z" fill="#F80000"/>
</svg>
