<svg width="115" height="31" viewBox="0 0 115 31" fill="none" xmlns="http://www.w3.org/2000/svg">
<path d="M87.1971 24.9085C91.9986 24.9085 95.1094 21.5552 95.1094 16.5422C95.1094 11.597 92.3705 8.51464 87.941 8.51464C84.9993 8.51464 82.9029 9.83564 81.6856 12.3421L82.7 2.41774H93.9935V0.859637H81.3475L79.995 14.4761L81.7194 14.6793C82.3619 11.9018 84.5935 10.0389 87.5015 10.0389C91.2209 10.0389 93.3511 12.5454 93.3511 16.61C93.3511 20.7762 91.018 23.3843 87.2648 23.3843C84.0863 23.3843 81.9899 21.5214 81.4489 18.6423L79.623 18.8116C80.2317 22.5375 83.1396 24.9085 87.1971 24.9085Z" fill="#8F8A87"/>
<path d="M105.472 24.9085C111.119 24.9085 114.162 20.2004 114.162 12.6809C114.162 5.12747 111.085 0.351562 105.438 0.351562C99.7916 0.351562 96.7485 5.05973 96.7485 12.5792C96.7485 20.2004 99.7578 24.9085 105.472 24.9085ZM105.472 23.4182C100.907 23.4182 98.5068 19.3197 98.5068 12.5792C98.5068 5.97426 100.941 1.84192 105.438 1.84192C110.003 1.84192 112.37 6.00813 112.37 12.6809C112.37 19.3197 110.003 23.4182 105.472 23.4182Z" fill="#8F8A87"/>
<path d="M63.4882 2.38477C57.845 2.38477 54.1602 6.25669 54.1602 12.6583C54.1602 20.6086 59.8033 22.8801 63.8489 22.8801C66.8895 22.8801 69.7755 21.6411 71.8627 19.447L69.2602 16.8399C67.8687 18.0789 66.2711 18.8275 63.9004 18.8275C60.7568 18.8275 58.6438 16.9948 58.6438 14.4651H72.6616C72.6358 14.4393 75.0837 2.38477 63.4882 2.38477ZM58.6438 11.0062C58.6438 7.59894 61.2206 5.97275 63.9778 5.97275C66.7349 5.97275 69.2344 7.65057 69.2344 11.0062H58.6438Z" fill="#00DC06"/>
<path d="M49.2697 2.79778V4.99185C47.7494 3.26239 45.9457 2.38477 43.4977 2.38477C39.2975 2.38477 37.133 4.73373 36.4115 7.26338C36.1281 8.19264 36.0508 9.97373 36.0508 12.6066C36.0508 15.0847 36.0766 17.3562 36.9269 19.0856C38.138 21.512 41.0498 22.8801 43.4977 22.8801C45.8684 22.8801 47.8783 21.9509 49.2697 20.3505V21.5895C49.2697 23.035 48.7802 23.99 47.8525 24.7386C46.9249 25.4872 45.7653 25.9518 44.1419 25.9518C42.6731 25.9518 41.2817 25.1516 40.4829 24.5837L37.4938 27.578C39.4264 29.1526 41.7197 30.2109 44.2192 30.2367C46.6156 30.2884 48.9605 29.514 50.8416 27.991C52.6196 26.5972 53.7534 23.9384 53.7534 21.1507V2.79778H49.2697ZM49.2697 12.6066C49.2697 14.1296 49.244 15.2653 49.1151 15.859C48.8317 17.1239 47.3887 18.8017 44.7604 18.8017C44.0904 18.8017 40.7405 18.4145 40.354 15.4976C40.251 14.5426 40.1994 13.5617 40.2252 12.6066C40.2252 10.3351 40.3283 9.61234 40.4313 9.04446C40.6632 7.90869 42.1578 6.20505 44.7604 6.20505C47.9298 6.20505 48.9605 8.37332 49.1151 9.22515C49.244 10.3351 49.2955 11.4709 49.2697 12.6066Z" fill="#00DC06"/>
<path d="M26.6707 2.38526C23.8105 2.35941 21.0018 3.34034 18.7599 5.12142L21.4656 7.83177C22.9859 6.696 24.8154 6.1023 26.6965 6.12811C30.1236 6.12811 31.1543 7.49619 31.1543 9.04496V10.9809H25.0473C22.7797 10.9809 18.3477 11.5488 18.3477 16.5307C18.3477 20.1961 20.4349 22.8806 25.4338 22.8806C27.9333 22.8806 29.8402 22.0804 31.1543 20.5058V22.4934H35.5864V9.35472C35.5864 4.76005 32.7777 2.38526 26.6707 2.38526ZM31.1801 15.3175C31.1801 19.112 28.4745 18.9054 26.078 18.9054C23.6816 18.9054 22.084 18.2601 22.084 16.5565C22.084 14.9819 23.3466 14.4398 25.975 14.4398H31.1801V15.3175Z" fill="#00DC06"/>
<path d="M11.8817 10.6746C10.0779 10.4423 4.89856 10.6488 4.89856 8.27398C4.89856 6.8801 7.08883 6.10571 9.07296 6.10571C11.1859 6.07985 13.2474 6.6736 14.9996 7.80936L17.7052 5.12482C16.9064 4.4795 13.9431 2.38867 9.07296 2.38867C4.64087 2.38867 0.646838 4.71182 0.646838 8.42886C0.646838 14.1335 7.52688 14.1335 10.3871 14.4174C12.1393 14.5981 13.7112 14.7014 13.7112 16.405C13.7112 18.0054 11.289 18.883 9.40795 18.883C6.34156 18.883 4.51203 17.8763 2.70828 16.2501L-0.177734 19.167C2.32176 21.5934 5.69736 22.9098 9.17604 22.884C14.3296 22.884 18.066 20.6125 18.066 16.0436C18.066 13.0235 16.0303 11.2166 11.8817 10.6746Z" fill="#00DC06"/>
</svg>
