<svg width="105" height="24" viewBox="0 0 105 24" fill="none" xmlns="http://www.w3.org/2000/svg">
<path d="M69.2599 19.8855H70.7443V0.420115H69.5119C69.0358 2.60471 67.2713 3.92107 65.2548 3.92107H64.8066V5.23744H65.5628C66.9632 5.23744 68.5597 4.50924 69.2599 3.2769V19.8855Z" fill="#8F8A87"/>
<path d="M81.634 20.3056C86.3113 20.3056 88.832 16.4125 88.832 10.1948C88.832 3.94908 86.2833 0 81.606 0C76.9287 0 74.408 3.89307 74.408 10.1108C74.408 16.4125 76.9007 20.3056 81.634 20.3056ZM81.634 19.0732C77.853 19.0732 75.8644 15.6843 75.8644 10.1108C75.8644 4.64928 77.881 1.23234 81.606 1.23234C85.387 1.23234 87.3476 4.67728 87.3476 10.1948C87.3476 15.6843 85.387 19.0732 81.634 19.0732Z" fill="#8F8A87"/>
<path d="M97.6224 20.3056C102.3 20.3056 104.82 16.4125 104.82 10.1948C104.82 3.94908 102.272 0 97.5944 0C92.9172 0 90.3965 3.89307 90.3965 10.1108C90.3965 16.4125 92.8891 20.3056 97.6224 20.3056ZM97.6224 19.0732C93.8414 19.0732 91.8529 15.6843 91.8529 10.1108C91.8529 4.64928 93.8694 1.23234 97.5944 1.23234C101.375 1.23234 103.336 4.67728 103.336 10.1948C103.336 15.6843 101.375 19.0732 97.6224 19.0732Z" fill="#8F8A87"/>
<path d="M53.3359 0.662109C48.6616 0.662109 45.6094 3.86371 45.6094 9.15701C45.6094 15.7309 50.2837 17.6092 53.6347 17.6092C56.1533 17.6092 58.5438 16.5847 60.2727 14.7705L58.1169 12.6147C56.9644 13.6392 55.641 14.2582 53.6774 14.2582C51.0734 14.2582 49.3232 12.7428 49.3232 10.6511H60.9343C60.913 10.6297 62.9407 0.662109 53.3359 0.662109ZM49.3232 7.79099C49.3232 4.97359 51.4576 3.62893 53.7414 3.62893C56.0252 3.62893 58.0956 5.01628 58.0956 7.79099H49.3232Z" fill="#00DB00"/>
<path d="M10.5905 7.51351C9.09646 7.32142 4.80632 7.49222 4.80632 5.52853C4.80632 4.37596 6.62056 3.73564 8.26404 3.73564C10.0142 3.71426 11.7218 4.20521 13.1732 5.14435L15.4143 2.92457C14.7526 2.39097 12.298 0.662109 8.26404 0.662109C4.59288 0.662109 1.28457 2.58307 1.28457 5.6566C1.28457 10.3736 6.9834 10.3736 9.35258 10.6084C10.804 10.7578 12.106 10.8432 12.106 12.2519C12.106 13.5752 10.0996 14.3009 8.54151 14.3009C6.00158 14.3009 4.48616 13.4685 2.99208 12.1238L0.601562 14.5357C2.67193 16.542 5.46799 17.6305 8.34942 17.6092C12.6182 17.6092 15.7131 15.7309 15.7131 11.9531C15.7131 9.45582 14.0269 7.96174 10.5905 7.51351Z" fill="#00DB00"/>
<path d="M22.8414 0.662521C20.4722 0.641144 18.1457 1.45225 16.2888 2.92498L18.5299 5.1661C19.7892 4.22697 21.3046 3.73605 22.8627 3.75739C25.7015 3.75739 26.5552 4.88862 26.5552 6.16926V7.77006H21.4967C19.6184 7.77006 15.9473 8.23963 15.9473 12.359C15.9473 15.3899 17.6761 17.6096 21.8169 17.6096C23.8872 17.6096 25.4667 16.948 26.5552 15.646V17.2895H30.2264V6.42539C30.2264 2.62617 27.8999 0.662521 22.8414 0.662521ZM26.5766 11.3558C26.5766 14.4934 24.3354 14.3227 22.3504 14.3227C20.3655 14.3227 19.0421 13.789 19.0421 12.3803C19.0421 11.0784 20.088 10.6302 22.2651 10.6302H26.5766V11.3558Z" fill="#00DB00"/>
<path d="M41.5588 1.00362V2.81785C40.2995 1.3878 38.8055 0.662109 36.7778 0.662109C33.2987 0.662109 31.5058 2.60442 30.9082 4.69612C30.6734 5.4645 30.6094 6.93724 30.6094 9.11432C30.6094 11.1633 30.6307 13.0416 31.3351 14.4717C32.3382 16.478 34.7501 17.6092 36.7778 17.6092C38.7414 17.6092 40.4062 16.8408 41.5588 15.5175V16.542C41.5588 17.7373 41.1533 18.527 40.3849 19.146C39.6165 19.7649 38.656 20.1491 37.3114 20.1491C36.0948 20.1491 34.9422 19.4875 34.2805 19.0179L31.8046 21.4938C33.4054 22.7958 35.305 23.6709 37.3754 23.6922C39.3604 23.7349 41.3027 23.0946 42.8608 21.8353C44.3335 20.6827 45.2727 18.4843 45.2727 16.1792V1.00362H41.5588ZM41.5588 9.11432C41.5588 10.3736 41.5375 11.3127 41.4308 11.8037C41.196 12.8495 40.0007 14.2369 37.8236 14.2369C37.2687 14.2369 34.494 13.9167 34.1738 11.5048C34.0884 10.7151 34.0458 9.90405 34.0671 9.11432C34.0671 7.23606 34.1525 6.63841 34.2378 6.16885C34.4299 5.22971 35.6679 3.82101 37.8236 3.82101C40.4489 3.82101 41.3027 5.6139 41.4308 6.31826C41.5375 7.23605 41.5802 8.17519 41.5588 9.11432Z" fill="#00DB00"/>
</svg>
