<svg width="115" height="22" viewBox="0 0 115 22" fill="none" xmlns="http://www.w3.org/2000/svg">
<path d="M35.4773 9.99046C35.4773 7.89331 37.077 6.88358 38.7938 6.88358C40.5105 6.88358 42.0712 7.91273 42.0712 9.99046H35.4773ZM38.5011 4.66992C34.9896 4.66992 32.707 7.05834 32.707 11.0196C32.707 15.913 36.2186 17.3305 38.7157 17.3305C41.8957 17.3305 43.71 15.2139 43.71 15.2139L42.0907 13.6022C41.2324 14.3595 40.2374 14.8255 38.7547 14.8255C36.8039 14.8255 35.4773 13.6799 35.4773 12.1264H44.1782C44.1782 12.107 45.6999 4.66992 38.5011 4.66992Z" fill="#00DB00"/>
<path d="M7.65045 9.80415C6.51187 9.66802 3.19601 9.7847 3.19601 8.32611C3.19601 7.45096 4.57429 6.98421 5.85269 6.98421C7.89015 6.98421 9.24845 7.78158 9.62798 8.0344L11.3458 6.36188C10.8465 5.95348 8.94882 4.66992 5.85269 4.66992C3.03621 4.66992 0.499376 6.10906 0.499376 8.40391C0.499376 11.9434 4.87391 11.924 6.71162 12.099C7.81025 12.1962 8.82897 12.274 8.82897 13.3437C8.82897 14.3161 7.29089 14.88 6.09239 14.88C4.13484 14.88 2.97628 14.2577 1.8377 13.2464L0 15.0356C1.69788 16.6303 3.83521 17.3305 5.95257 17.3305C9.22847 17.3305 11.6055 15.9302 11.6055 13.0908C11.5855 11.2433 10.2872 10.1348 7.65045 9.80415Z" fill="#00DB00"/>
<path d="M19.427 12.663C19.427 15.0162 17.7743 14.88 16.2946 14.88C14.7956 14.88 13.8539 14.4716 13.8539 13.4215C13.8539 12.4491 14.6226 12.1184 16.2369 12.1184H19.427V12.663ZM16.6789 4.66992C13.95 4.66992 12.1628 6.08961 11.8361 6.36188L13.4888 8.0344C13.8155 7.76213 14.9493 6.98422 16.6981 6.98422C18.7928 6.98422 19.427 7.82047 19.427 8.79286V9.97918H15.6988C14.3151 9.97918 11.6055 10.3292 11.6055 13.402C11.6055 15.658 12.893 17.3305 15.9486 17.3305C17.4861 17.3305 18.6391 16.8248 19.4462 15.8524V17.0777H22.1559V8.96789C22.1175 6.12851 20.4071 4.66992 16.6789 4.66992Z" fill="#00DB00"/>
<path d="M30.0504 10.8689C30.0504 11.8035 30.0317 12.4901 29.9569 12.8335C29.7885 13.6155 28.928 14.6264 27.3754 14.6264C26.9825 14.6264 24.9809 14.3975 24.7565 12.6236C24.719 12.2612 24.6816 11.8035 24.6816 10.8689C24.6816 9.49556 24.7377 9.05686 24.8126 8.69446C24.9435 8.00781 25.8414 6.97783 27.3941 6.97783C29.2834 6.97783 29.9007 8.29392 29.9943 8.80891C30.0317 9.17131 30.0504 9.95333 30.0504 10.8689ZM30.0504 4.91788V6.25303C29.1525 5.18491 28.0862 4.66992 26.6084 4.66992C24.1017 4.66992 22.811 6.10045 22.3807 7.62634C22.2124 8.19855 22.1562 9.26668 22.1562 10.8689C22.1562 12.3757 22.175 13.749 22.68 14.798C23.3909 16.2667 25.1493 17.0869 26.5897 17.0869C27.9927 17.0869 29.1899 16.5337 30.0317 15.561V16.3049C30.0317 17.1823 29.7324 17.7545 29.1899 18.2122C28.6287 18.67 27.9366 18.9561 26.9825 18.9561C26.1033 18.9561 25.2802 18.4793 24.7939 18.1359L23.0167 19.9479C24.1578 20.9016 25.5421 21.5501 27.0199 21.5501C28.5913 21.5692 29.8633 21.0733 30.967 20.1959C32.0333 19.3376 32.7067 17.7354 32.7067 16.0378V4.91788H30.0504Z" fill="#00DB00"/>
<path d="M52.7523 0.449219H51.6973V17.33H52.7523V0.449219Z" fill="#8F8A87"/>
<path d="M65.413 17.3301H64.3645V9.70997C64.3645 7.82799 63.7879 6.72095 61.9705 6.72095C60.4152 6.72095 58.7201 7.79109 58.0211 8.49222V17.3301H56.9727V5.94602H57.8814L57.9513 7.42208C59.2094 6.48109 60.6424 5.72461 62.1627 5.72461C64.4344 5.72461 65.413 7.10841 65.413 9.67306V17.3301Z" fill="#8F8A87"/>
<path d="M74.9088 16.6784C74.3553 17.058 73.2103 17.3292 72.3897 17.3292C70.2142 17.3292 69.3936 16.4795 69.3936 14.5089V6.84335H67.5234V5.90323H69.3936V2.73938L70.5386 2.55859V5.92131H73.8783V6.86142H70.5386V14.31C70.5386 15.6479 70.8631 16.4434 72.4661 16.4434C73.1912 16.4434 74.0691 16.1541 74.6034 15.8467L74.9088 16.6784Z" fill="#8F8A87"/>
<path d="M82.6359 11.5543C82.0753 11.5184 81.4947 11.4825 80.734 11.4825C78.2515 11.4825 76.1294 11.9489 76.1294 14.1911C76.1294 15.3929 76.6499 16.3974 78.692 16.3974C80.2535 16.3974 81.775 15.7516 82.6359 14.8189V11.5543ZM83.8371 15.4826C83.8371 16.0924 83.9572 16.3974 84.5978 16.3974C84.818 16.3974 85.0382 16.3615 85.3586 16.2718L85.4587 16.9714C84.9782 17.1866 84.6579 17.2404 84.1374 17.2404C83.0763 17.2404 82.6759 16.5229 82.736 15.8413C81.795 16.6844 80.2935 17.3301 78.5518 17.3301C75.3887 17.3301 74.9082 15.3749 74.9082 14.3166C74.9082 11.1596 78.0914 10.6036 80.9742 10.6036C81.5548 10.6036 82.1153 10.6215 82.6559 10.6395V9.6529C82.6559 7.46454 82.0553 6.63941 79.713 6.63941C77.6509 6.63941 76.8501 7.33897 76.5698 8.70222L75.4287 8.52284C75.8091 6.47798 77.3306 5.72461 79.8131 5.72461C82.7159 5.72461 83.8771 6.67529 83.8771 9.43765V15.4826H83.8371Z" fill="#8F8A87"/>
<path d="M85.459 11.5544C85.459 7.61974 87.4512 5.72461 90.8025 5.72461C92.9808 5.72461 94.7682 6.93388 94.8799 9.35243L93.6883 9.47877C93.4835 7.56559 92.534 6.66315 90.6722 6.66315C88.7545 6.66315 86.6133 7.70998 86.6133 11.3919C86.6133 15.3627 88.6055 16.3193 90.5232 16.3193C92.292 16.3193 93.5022 15.5251 93.8187 13.7744L94.9544 13.991C94.5262 16.3734 92.5526 17.33 90.5418 17.33C86.7809 17.3481 85.459 14.9295 85.459 11.5544Z" fill="#8F8A87"/>
<path d="M97.0645 11.5544C97.0645 7.61974 99.0527 5.72461 102.397 5.72461C104.572 5.72461 106.355 6.93388 106.467 9.35243L105.278 9.47877C105.073 7.56559 104.126 6.66315 102.267 6.66315C100.353 6.66315 98.2351 7.70998 98.2351 11.3919C98.2351 15.3627 100.223 16.3193 102.137 16.3193C103.903 16.3193 105.11 15.5251 105.426 13.7744L106.56 13.991C106.132 16.3734 104.163 17.33 102.156 17.33C98.3652 17.3481 97.0645 14.9295 97.0645 11.5544Z" fill="#8F8A87"/>
<path d="M115.001 16.6784C114.447 17.058 113.302 17.3292 112.482 17.3292C110.306 17.3292 109.485 16.4795 109.485 14.5089V6.84335H107.615V5.90323H109.485V2.73938L110.63 2.55859V5.92131H113.97V6.86142H110.611V14.31C110.611 15.6479 110.936 16.4434 112.539 16.4434C113.264 16.4434 114.142 16.1541 114.676 15.8467L115.001 16.6784Z" fill="#8F8A87"/>
</svg>
