<svg width="113" height="23" viewBox="0 0 113 23" fill="none" xmlns="http://www.w3.org/2000/svg">
<path fill-rule="evenodd" clip-rule="evenodd" d="M46.8184 10.6471H45.0783V4.972H46.8184C49.12 4.972 50.9724 5.67511 50.9724 7.78444C50.9724 9.99422 49.12 10.6471 46.8184 10.6471ZM28.1257 14.7151C27.2276 14.7151 26.3294 14.5644 25.5997 14.3133L28.0696 7.28222H28.1257L30.5956 14.3636C29.8659 14.5644 29.0239 14.7151 28.1257 14.7151ZM46.3132 0.401778H38.4544V17.1258L31.6061 0.401778H24.7577L18.9197 14.3636C18.3022 10.848 14.2044 9.64267 11.0048 8.68844C8.87169 8.08578 6.62632 7.18178 6.62632 6.17733C6.62632 5.37378 7.86127 4.62044 10.1628 4.72089C11.7345 4.82133 13.1379 4.92178 15.9446 6.12711L18.6952 1.85822C16.1691 0.753333 12.6327 0 9.76984 0C6.40178 0 3.6512 0.954222 1.91104 2.56133C0.676088 3.71644 0.0586108 5.12267 0.00247651 6.67956C-0.0536577 8.83911 0.844491 10.396 2.69692 11.6013C4.26868 12.656 6.28951 13.3089 8.02968 13.8111C10.2189 14.4138 12.0152 14.9662 11.9591 16.0711C11.9591 16.4729 11.7907 16.8747 11.4539 17.176C10.8925 17.6782 10.0505 17.8791 8.92782 17.8791C6.73859 17.8791 5.05456 17.5778 2.41625 16.1716L0.00247651 20.4907C2.64079 21.8467 5.72817 22.6 8.92782 22.6H9.32076C12.0713 22.5498 14.3167 21.8467 16.113 20.5409L16.3937 20.34L15.6078 22.2484H22.7369L23.9157 18.984C25.1506 19.3858 26.6101 19.5867 28.1257 19.5867C29.5852 19.5867 30.9886 19.3858 32.2235 19.0342L33.4024 22.2484H45.0783V15.5187H47.6043C53.7791 15.5187 57.3717 12.7062 57.3717 8.03556C57.3717 2.76222 53.8352 0.401778 46.3132 0.401778Z" fill="white"/>
<path d="M72.3558 2.36101C72.3558 3.31523 71.7944 3.76723 71.1208 4.06857C72.1312 4.3699 72.8048 4.87212 72.8048 5.92679C72.8048 7.28279 71.5138 8.03612 69.6052 8.03612H65.6758V0.402344H69.5491C71.2892 0.402344 72.3558 1.15568 72.3558 2.36101ZM70.8401 2.5619C70.8401 1.90901 70.2788 1.55745 69.3245 1.55745H67.1353V3.61657H69.2122C70.2227 3.61657 70.8401 3.26501 70.8401 2.5619ZM71.3454 5.82634C71.3454 5.17346 70.784 4.77168 69.6052 4.77168H67.1914V6.88101H69.7175C70.7279 6.88101 71.3454 6.52946 71.3454 5.82634Z" fill="white"/>
<path d="M77.9122 2.25977H79.3717V8.03532H77.9122V7.13132C77.5192 7.68376 76.9018 8.13576 75.8913 8.13576C74.4319 8.13576 73.5898 7.23176 73.5898 5.92599V2.25977H75.1055V5.57443C75.1055 6.47843 75.6107 6.98065 76.5088 6.98065C77.3508 6.98065 77.9683 6.42821 77.9683 5.52421V2.25977" fill="white"/>
<path d="M82.8541 8.18599C81.956 8.18599 80.8894 7.88465 80.1035 7.33221L80.7771 6.42821C81.4507 6.88021 82.2366 7.13132 82.9102 7.13132C83.5277 7.13132 83.9206 6.88021 83.9206 6.52865C83.9206 6.07665 83.247 5.92599 82.4612 5.7251C81.5069 5.47399 80.4403 5.12243 80.4403 4.01754C80.4403 2.91265 81.4507 2.25977 82.7418 2.25977C83.5277 2.25977 84.4259 2.51088 85.0995 2.91265L84.5381 3.86688C83.9207 3.51532 83.247 3.31443 82.6857 3.31443C82.1244 3.31443 81.7875 3.56554 81.7875 3.9171C81.7875 4.31888 82.4612 4.51977 83.247 4.72065C84.2013 4.97177 85.2679 5.37354 85.2679 6.42821C85.2679 7.58332 84.2013 8.18599 82.8541 8.18599Z" fill="white"/>
<path d="M87.7983 1.40734H86.2266V0.101562H87.7983V1.40734ZM87.7422 8.08689H86.2827V2.26112H87.7422V8.08689Z" fill="white"/>
<path d="M90.5474 8.08442H89.0879V2.25865H90.5474V3.16265C90.9403 2.6102 91.5578 2.1582 92.5682 2.1582C94.0277 2.1582 94.8697 3.0622 94.8697 4.36798V8.0342H93.3541V4.76976C93.3541 3.86576 92.8489 3.36354 91.9507 3.36354C91.1087 3.36354 90.4912 3.91598 90.4912 4.81998V8.08442" fill="white"/>
<path d="M99.0775 7.12881C99.8073 7.12881 100.312 6.8777 100.818 6.4257L101.716 7.12881C101.098 7.7817 100.256 8.2337 99.0775 8.2337C97.2251 8.2337 95.7656 7.02836 95.7656 5.22036C95.7656 3.56303 97.0567 2.20703 98.9091 2.20703C100.986 2.20703 101.997 3.66348 101.997 5.32081V5.67236H97.2251C97.3374 6.57636 98.0671 7.12881 99.0775 7.12881ZM100.481 4.76836C100.369 3.91459 99.8073 3.2617 98.853 3.2617C97.9549 3.2617 97.2812 3.86436 97.169 4.76836H100.481Z" fill="white"/>
<path d="M105.085 8.18599C104.186 8.18599 103.12 7.88465 102.334 7.33221L103.008 6.42821C103.681 6.88021 104.467 7.13132 105.141 7.13132C105.758 7.13132 106.151 6.88021 106.151 6.52865C106.151 6.07665 105.477 5.92599 104.692 5.7251C103.737 5.47399 102.671 5.12243 102.671 4.01754C102.671 2.91265 103.681 2.25977 104.972 2.25977C105.814 2.25977 106.656 2.51088 107.33 2.91265L106.769 3.86688C106.151 3.51532 105.477 3.31443 104.916 3.31443C104.355 3.31443 104.018 3.56554 104.018 3.9171C104.018 4.31888 104.692 4.51977 105.477 4.72065C106.432 4.97177 107.498 5.37354 107.498 6.42821C107.498 7.58332 106.432 8.18599 105.085 8.18599Z" fill="white"/>
<path d="M110.587 8.18599C109.688 8.18599 108.678 7.88465 107.836 7.33221L108.51 6.42821C109.239 6.88021 109.969 7.13132 110.643 7.13132C111.26 7.13132 111.653 6.88021 111.653 6.52865C111.653 6.07665 110.979 5.92599 110.194 5.7251C109.239 5.47399 108.173 5.12243 108.173 4.01754C108.173 2.91265 109.183 2.25977 110.474 2.25977C111.26 2.25977 112.158 2.51088 112.832 2.91265L112.271 3.76643C111.653 3.41488 110.979 3.21399 110.418 3.21399C109.857 3.21399 109.52 3.4651 109.52 3.81665C109.52 4.21843 110.194 4.41932 110.979 4.62021C111.934 4.87132 113 5.2731 113 6.32777C113 7.58332 111.934 8.18599 110.587 8.18599Z" fill="white"/>
<path d="M71.9112 22.4992C67.5327 22.4992 64.4453 19.5863 64.4453 16.0205V15.9703C64.4453 12.4045 67.5888 9.44141 71.9673 9.44141C76.3458 9.44141 79.4332 12.3543 79.4332 15.9201V15.9703C79.4332 19.5863 76.2335 22.4992 71.9112 22.4992ZM76.1774 15.9703C76.1774 13.8107 74.3811 12.0027 71.9112 12.0027C69.4413 12.0027 67.7011 13.7605 67.7011 15.9201V15.9703C67.7011 18.1299 69.4974 19.9379 71.9673 19.9379C74.4372 19.9379 76.1774 18.1801 76.1774 15.9703Z" fill="white"/>
<path d="M87.4602 22.3006V16.9268C87.4602 15.621 86.7866 14.9681 85.6078 14.9681C84.429 14.9681 83.6992 15.621 83.6992 16.9268V22.3006H80.668V12.6579H83.6992V14.0139C84.429 13.2104 85.3271 12.457 86.8427 12.457C89.1442 12.457 90.4915 13.813 90.4915 16.0228V22.2504H87.4602" fill="white"/>
<path d="M102.393 18.4321H94.8711C95.1518 19.6876 96.1622 20.3405 97.5094 20.3405C98.5198 20.3405 99.3057 20.0392 100.148 19.3361L101.888 20.7423C100.877 21.8472 99.418 22.5503 97.4533 22.5503C94.1975 22.5503 91.8398 20.4912 91.8398 17.5783V17.5281C91.8398 14.7659 94.0291 12.5059 97.1726 12.5059C100.765 12.5059 102.449 15.017 102.449 17.729V17.7792C102.449 17.9801 102.393 18.181 102.393 18.4321ZM97.1726 14.6654C95.8815 14.6654 95.0956 15.469 94.815 16.7245H99.418C99.3057 15.469 98.4637 14.6654 97.1726 14.6654Z" fill="white"/>
<path d="M63.714 2.91345C63.714 4.31968 62.4229 5.47479 60.8511 5.47479C59.2232 5.47479 57.9883 4.31968 57.9883 2.91345C57.9883 1.50723 59.2794 0.402344 60.9073 0.402344C62.4229 0.402344 63.714 1.55745 63.714 2.91345ZM58.6058 2.91345C58.6058 4.01834 59.6162 4.92234 60.8511 4.92234C62.0861 4.92234 63.0403 4.01834 63.0403 2.91345C63.0403 1.85879 62.0299 0.904566 60.8511 0.904566C59.6162 0.954788 58.6058 1.80857 58.6058 2.91345ZM59.56 1.50723H61.0195C61.9177 1.50723 62.3667 1.70812 62.3667 2.21034C62.3667 2.5619 62.1983 2.76279 61.8054 2.86323C62.1422 2.96368 62.3106 3.11434 62.3106 3.36545V3.66679C62.3106 4.06857 62.3106 4.16901 62.479 4.21923H61.5247L61.4125 3.86768V3.51612C61.4125 3.26501 61.3002 3.16457 60.9634 3.16457H60.4582V4.21923H59.56V1.50723ZM61.1318 2.61212L61.4125 2.36101L61.1318 2.05968H60.402V2.61212H61.1318Z" fill="white"/>
</svg>
