<svg width="111" height="28" viewBox="0 0 111 28" fill="none" xmlns="http://www.w3.org/2000/svg">
<path d="M11.3055 11.2542H8.11944C6.37222 11.2542 4.93333 9.81527 4.93333 8.06805C4.93333 6.32083 6.37222 4.88194 8.11944 4.88194C9.86666 4.88194 11.3055 6.32083 11.3055 8.06805V11.2542ZM8.11944 0C3.64861 0 0 3.59722 0 8.06805C0 12.5389 3.64861 16.1361 8.11944 16.1361H16.2389V8.06805C16.1875 3.59722 12.5903 0 8.11944 0Z" fill="white"/>
<path d="M27.6472 3.95642H28.6236L30.2166 10.9967H25.9513L27.6472 3.95642ZM25.7458 1.69531L22.3027 16.187H24.7694L25.4888 13.3606H30.7819L31.6041 16.187H34.0708L30.5763 1.69531H25.7458Z" fill="white"/>
<path d="M42.4987 5.85898L42.396 7.91454C42.396 7.91454 40.7515 7.70898 39.9293 7.70898C37.771 7.70898 37.3085 8.47982 37.3085 10.7923C37.3085 13.3104 37.771 14.1326 39.9293 14.1326C40.7515 14.1326 42.396 13.927 42.396 13.927L42.4473 15.9826C42.4473 15.9826 40.289 16.3423 39.2098 16.3423C36.0237 16.3423 34.8418 14.7493 34.8418 10.7409C34.8418 6.98954 36.1265 5.39648 39.2612 5.39648C40.4432 5.44787 42.4987 5.85898 42.4987 5.85898Z" fill="white"/>
<path d="M52.9307 5.70312V16.1351H50.5154V15.6212C50.5154 15.6212 48.871 16.392 47.7404 16.392C44.7085 16.392 44.0918 14.8503 44.0918 11.1503V5.70312H46.5071V11.1503C46.5071 13.3601 46.6098 14.2337 48.2543 14.2337C49.1793 14.2337 50.5668 13.7712 50.5668 13.7712V5.70312H52.9307Z" fill="white"/>
<path d="M54.7812 16.1881V5.70482H57.1451V6.27009C57.1451 6.27009 58.0187 5.80759 58.9951 5.60204C59.3549 5.49926 59.766 5.44787 60.0743 5.44787C61.1535 5.49926 61.9243 5.8076 62.4382 6.32148C63.3632 5.96176 64.8535 5.39648 66.0868 5.39648C68.9646 5.39648 69.7354 6.98954 69.7354 10.6381V16.0854H67.3201V11.5631C67.3201 8.73676 67.2687 7.6062 65.6243 7.6062C64.5965 7.6062 63.3632 8.12009 63.3118 8.12009C63.3632 8.27426 63.466 9.66176 63.466 10.6381V16.0854H61.0507V10.7923C61.0507 8.58259 60.8451 7.70898 59.3035 7.70898C58.3785 7.70898 57.1451 8.17148 57.1451 8.17148V16.1368H54.7812V16.1881Z" fill="white"/>
<path d="M79.6516 13.3092C79.6516 14.0286 79.9086 14.2341 80.5253 14.3369L80.4225 16.3925C78.778 16.3925 78.2641 16.1355 77.5961 15.673C77.5961 15.673 75.7975 16.3925 74.153 16.3925C72.1489 16.3925 71.1211 15.1078 71.1211 13.0522C71.1211 10.7911 72.3544 10.0203 74.6155 9.8661L77.2364 9.66054V9.04388C77.2364 8.22166 76.7225 7.81054 75.9516 7.81054C74.41 7.81054 71.8919 8.0161 71.8919 8.0161L71.7892 5.96055C71.7892 5.96055 74.5128 5.49805 76.0544 5.49805C78.3669 5.49805 79.6003 6.47444 79.6003 9.04388V13.3092H79.6516ZM74.9239 11.6647C73.9989 11.7675 73.5364 12.1272 73.5364 13.0008C73.5364 13.8744 73.8961 14.3883 74.6155 14.3883C75.7461 14.3883 77.2364 13.9772 77.2364 13.9772V11.5619L74.9239 11.6647Z" fill="white"/>
<path d="M84.6889 7.86215V12.1274C84.6889 13.5663 84.7403 14.1316 85.768 14.1316C86.3333 14.1316 87.4639 14.0802 87.4639 14.0802L87.5667 16.1358C87.5667 16.1358 86.1792 16.4441 85.4083 16.4441C82.9931 16.4441 82.2736 15.5191 82.2736 12.4871V7.86215H80.9375V5.70382H82.2736V2.67188H84.6889V5.70382H87.5153V7.86215H84.6889Z" fill="white"/>
<path d="M89.2109 16.1874H91.6262V5.70412H89.2109V16.1874ZM89.2109 4.00829H91.6262V1.49023H89.2109V4.00829Z" fill="white"/>
<path d="M100.723 5.85898L100.621 7.91454C100.621 7.91454 98.9761 7.70898 98.1539 7.70898C95.9956 7.70898 95.5331 8.47982 95.5331 10.7923C95.5331 13.3104 95.9956 14.1326 98.1539 14.1326C98.9761 14.1326 100.621 13.927 100.621 13.927L100.672 15.9826C100.672 15.9826 98.5136 16.3423 97.4345 16.3423C94.2483 16.3423 93.0664 14.7493 93.0664 10.7409C93.0664 6.98954 94.3511 5.39648 97.4858 5.39648C98.6678 5.44787 100.723 5.85898 100.723 5.85898Z" fill="white"/>
<path d="M110.126 13.3092C110.126 14.0286 110.383 14.2341 111 14.3369L110.897 16.3925C109.253 16.3925 108.739 16.1355 108.071 15.673C108.071 15.673 106.272 16.3925 104.628 16.3925C102.623 16.3925 101.596 15.1078 101.596 13.0522C101.596 10.7911 102.829 10.0203 105.09 9.8661L107.711 9.66054V9.04388C107.711 8.22166 107.197 7.81054 106.426 7.81054C104.885 7.81054 102.367 8.0161 102.367 8.0161L102.264 5.96055C102.264 5.96055 104.987 5.49805 106.529 5.49805C108.842 5.49805 110.075 6.47444 110.075 9.04388V13.3092H110.126ZM105.45 11.6647C104.525 11.7675 104.062 12.1272 104.062 13.0008C104.062 13.8744 104.422 14.3883 105.142 14.3883C106.272 14.3883 107.762 13.9772 107.762 13.9772V11.5619L105.45 11.6647Z" fill="white"/>
<path d="M38.3887 23.3822H36.8984V22.6113H40.7526V23.3822H39.2623V27.7502H38.3373V23.3822H38.3887Z" fill="white"/>
<path d="M41.5748 22.1992H42.4998V23.6381L42.4484 24.3576C42.6026 24.2034 42.8082 24.0492 42.9623 23.9464C43.1679 23.8437 43.3734 23.7923 43.6818 23.7923C44.0929 23.7923 44.4012 23.9464 44.6068 24.2034C44.8123 24.4603 44.8637 24.82 44.8637 25.3339V27.7492H43.9387V25.4367C43.9387 25.1284 43.8873 24.8714 43.7845 24.7687C43.6818 24.6659 43.5276 24.5631 43.322 24.5631C43.1679 24.5631 43.0137 24.6145 42.8595 24.6659C42.7568 24.7687 42.6026 24.8714 42.4484 25.0256V27.7492H41.5234V22.1992H41.5748Z" fill="white"/>
<path d="M45.7363 25.7971C45.7363 25.4888 45.7877 25.1805 45.8905 24.9749C45.9933 24.718 46.1474 24.5124 46.3016 24.3582C46.4558 24.2041 46.6613 24.0499 46.8669 23.9471C47.0724 23.8444 47.278 23.793 47.5349 23.793C47.7919 23.793 48.0488 23.8444 48.203 23.9471C48.4085 24.0499 48.5627 24.1527 48.7169 24.3069C48.871 24.461 48.9738 24.6666 49.0252 24.8721C49.0766 25.0777 49.128 25.3346 49.128 25.5916C49.128 25.7457 49.128 25.8999 49.0766 26.0027H46.6099C46.6613 26.3624 46.7641 26.6194 46.9697 26.8249C47.1752 27.0305 47.4322 27.0819 47.7405 27.0819C47.8947 27.0819 48.0488 27.0819 48.203 27.0305C48.3572 26.9791 48.5113 26.9277 48.6141 26.8249L48.9224 27.3902C48.7169 27.493 48.5113 27.5957 48.3058 27.6985C48.1002 27.8013 47.8433 27.8013 47.5863 27.8013C47.3294 27.8013 47.0724 27.7499 46.8669 27.6471C46.6613 27.5444 46.4558 27.4416 46.2502 27.236C46.0961 27.0819 45.9419 26.8763 45.8391 26.6194C45.7877 26.4138 45.7363 26.1569 45.7363 25.7971ZM48.3058 25.4888C48.3058 25.1805 48.2544 24.9235 48.1002 24.7694C47.9974 24.6152 47.7919 24.5124 47.4835 24.5124C47.278 24.5124 47.0724 24.6152 46.8669 24.7694C46.7127 24.9235 46.6099 25.1805 46.5585 25.4888H48.3058Z" fill="white"/>
<path d="M51.4414 25.18C51.4414 24.7689 51.4928 24.4092 51.647 24.0495C51.7497 23.7411 51.9553 23.4328 52.1609 23.2273C52.3664 23.0217 52.6234 22.8161 52.9317 22.7134C53.24 22.6106 53.5484 22.5078 53.8567 22.5078C54.165 22.5078 54.4733 22.5592 54.6789 22.7134C54.9358 22.8675 55.1414 22.9703 55.2956 23.1759L54.7817 23.7411C54.6275 23.587 54.5247 23.4842 54.3706 23.4328C54.2164 23.3814 54.0622 23.33 53.8567 23.33C53.6511 23.33 53.4456 23.3814 53.2914 23.4842C53.1372 23.587 52.9831 23.6898 52.8289 23.8439C52.7261 23.9981 52.6233 24.2036 52.5206 24.4092C52.4692 24.6148 52.4178 24.9231 52.4178 25.18C52.4178 25.7453 52.5206 26.2078 52.7775 26.5675C53.0345 26.8759 53.3942 27.0814 53.8053 27.0814C54.0108 27.0814 54.2164 27.03 54.422 26.9273C54.5761 26.8245 54.7303 26.7217 54.8845 26.5675L55.3983 27.1328C55.1928 27.3898 54.9358 27.5439 54.6789 27.6981C54.422 27.8009 54.1136 27.9036 53.8053 27.9036C53.497 27.9036 53.1886 27.8523 52.8803 27.7495C52.6234 27.6467 52.3664 27.4411 52.1609 27.2356C51.9553 27.03 51.8011 26.7217 51.647 26.4134C51.5442 26.0023 51.4414 25.5911 51.4414 25.18Z" fill="white"/>
<path d="M56.2188 22.1992H57.1437V26.7728C57.1437 26.8756 57.1437 26.9784 57.1951 27.0298C57.2465 27.0812 57.2979 27.0812 57.3493 27.0812H57.4007C57.4007 27.0812 57.4521 27.0812 57.5035 27.0812L57.5549 27.7492C57.4521 27.8006 57.2979 27.852 57.0924 27.852C56.784 27.852 56.5271 27.7492 56.4243 27.5437C56.2701 27.3381 56.2188 27.0812 56.2188 26.7728V22.1992Z" fill="white"/>
<path d="M58.1211 25.7977C58.1211 25.4894 58.1725 25.1811 58.2753 24.9241C58.378 24.6672 58.5322 24.4616 58.6864 24.3075C58.8405 24.1533 59.0461 23.9991 59.2517 23.8964C59.4572 23.7936 59.7141 23.7422 59.9197 23.7422C60.1766 23.7422 60.3822 23.7936 60.6391 23.8964C60.8447 23.9991 61.0503 24.1019 61.2044 24.3075C61.3586 24.4616 61.5128 24.6672 61.6155 24.9241C61.7183 25.1811 61.7697 25.438 61.7697 25.7977C61.7697 26.1061 61.7183 26.4144 61.6155 26.6714C61.5128 26.9283 61.3586 27.1338 61.2044 27.288C61.0503 27.4422 60.8447 27.5964 60.6391 27.6991C60.4336 27.8019 60.1766 27.8533 59.9197 27.8533C59.6628 27.8533 59.4572 27.8019 59.2517 27.6991C59.0461 27.5964 58.8405 27.4936 58.6864 27.288C58.5322 27.1338 58.378 26.9283 58.2753 26.6714C58.1725 26.4144 58.1211 26.1575 58.1211 25.7977ZM59.0461 25.7977C59.0461 26.2089 59.1489 26.5172 59.303 26.7227C59.4572 26.9797 59.6628 27.0825 59.9711 27.0825C60.228 27.0825 60.485 26.9797 60.6391 26.7227C60.7933 26.4658 60.8961 26.1575 60.8961 25.7977C60.8961 25.3866 60.7933 25.0783 60.6391 24.8727C60.485 24.6158 60.2794 24.513 59.9711 24.513C59.7141 24.513 59.4572 24.6158 59.303 24.8727C59.1489 25.1297 59.0461 25.438 59.0461 25.7977Z" fill="white"/>
<path d="M62.6953 23.8965H63.6203V26.209C63.6203 26.5173 63.6717 26.7743 63.7745 26.877C63.8773 27.0312 64.0314 27.0826 64.237 27.0826C64.3911 27.0826 64.5453 27.0312 64.6995 26.9798C64.8023 26.877 64.9564 26.7743 65.1106 26.5687V23.9479H66.0356V27.7506H65.3161L65.2648 27.1854C65.1106 27.3909 64.905 27.5451 64.6995 27.6479C64.4939 27.7506 64.2884 27.8534 63.98 27.8534C63.5689 27.8534 63.2606 27.6993 63.055 27.4423C62.8495 27.1854 62.7981 26.8256 62.7981 26.3118V23.8965H62.6953Z" fill="white"/>
<path d="M66.9082 25.7964C66.9082 25.4881 66.9596 25.1798 67.0624 24.9742C67.1651 24.7173 67.2679 24.5117 67.4221 24.3576C67.5763 24.2034 67.7304 24.0492 67.936 23.9464C68.1415 23.8437 68.3471 23.7923 68.5526 23.7923C68.7582 23.7923 68.9638 23.8437 69.1179 23.8951C69.2721 23.9464 69.4263 24.0492 69.5804 24.2034L69.529 23.5867V22.1992H70.454V27.7492H69.7346L69.6832 27.3381H69.6318C69.4776 27.4923 69.3235 27.595 69.1179 27.6978C68.9124 27.8006 68.7068 27.852 68.5013 27.852C68.0388 27.852 67.6276 27.6978 67.3193 27.3381C67.011 26.9784 66.9082 26.4645 66.9082 25.7964ZM67.8332 25.7964C67.8332 26.2075 67.8846 26.5159 68.0388 26.7728C68.1929 26.9784 68.3985 27.0812 68.7068 27.0812C69.0151 27.0812 69.2721 26.927 69.529 26.67V24.8714C69.3749 24.7687 69.2721 24.6659 69.1179 24.6145C68.9638 24.5631 68.861 24.5631 68.7068 24.5631C68.4499 24.5631 68.2443 24.6659 68.0901 24.8714C67.8846 25.077 67.8332 25.3853 67.8332 25.7964Z" fill="white"/>
<path d="M73.332 22.6113H76.4154V23.3822H74.257V24.6669H76.107V25.4377H74.257V26.928H76.5181V27.7502H73.332V22.6113Z" fill="white"/>
<path d="M80.3733 27.7502L79.2427 25.746H78.4719V27.7502H77.5469V22.6113H79.2941C79.551 22.6113 79.808 22.6627 80.0135 22.7141C80.2191 22.7655 80.4247 22.8683 80.6302 22.9711C80.7844 23.0738 80.9385 23.228 81.0413 23.4335C81.1441 23.6391 81.1955 23.8447 81.1955 24.153C81.1955 24.5641 81.0927 24.8724 80.9385 25.078C80.733 25.3349 80.5274 25.4891 80.2191 25.5919L81.4524 27.7502H80.3733ZM78.4719 25.0266H79.1913C79.551 25.0266 79.808 24.9752 80.0135 24.821C80.2191 24.6669 80.2705 24.4613 80.2705 24.153C80.2705 23.8447 80.1677 23.6391 80.0135 23.5363C79.808 23.4335 79.551 23.3822 79.1913 23.3822H78.4719V25.0266Z" fill="white"/>
<path d="M82.3242 22.6113H84.0714C84.3284 22.6113 84.6367 22.6627 84.8423 22.7141C85.0992 22.7655 85.3048 22.8683 85.4589 22.9711C85.6131 23.0738 85.7673 23.2794 85.8701 23.4849C85.9728 23.6905 86.0242 23.9474 86.0242 24.2558C86.0242 24.5127 85.9728 24.7697 85.8701 24.9752C85.7673 25.1808 85.6131 25.3349 85.4589 25.4891C85.3048 25.6433 85.0992 25.746 84.8423 25.7974C84.5853 25.8488 84.3284 25.9002 84.0714 25.9002H83.2492V27.7502H82.3242V22.6113ZM83.9687 25.1294C84.7395 25.1294 85.0992 24.821 85.0992 24.2044C85.0992 23.896 84.9964 23.6391 84.8423 23.5363C84.6367 23.4335 84.3798 23.3308 84.0201 23.3308H83.3006V25.1294H83.9687Z" fill="white"/>
</svg>
