<svg width="114" height="12" viewBox="0 0 114 12" fill="none" xmlns="http://www.w3.org/2000/svg">
<path d="M103.439 11.7273C106.764 8.87734 111.435 6.10652 114 5.10903C113.604 4.8557 112.987 4.49153 112.29 4.0957C108.981 5.1882 105.118 7.61068 101.666 10.3498C102.252 10.7932 102.869 11.2523 103.439 11.7273Z" fill="#E31837"/>
<path d="M101.918 3.9851C101.427 3.7476 100.889 3.52594 100.477 3.33594C99.2262 3.95343 97.5954 4.8876 95.5371 6.36009C95.9804 6.59759 96.4554 6.88258 96.9621 7.16758C98.5454 5.99592 100.145 4.8876 101.918 3.9851Z" fill="#012169"/>
<path d="M104.88 2.62247C104.278 2.28997 102.188 1.51414 100.747 1.18164C100.32 1.33997 99.7183 1.57747 99.3066 1.75164C99.8291 1.89414 101.777 2.41663 103.439 3.2558C103.867 3.04996 104.468 2.79663 104.88 2.62247Z" fill="#E31837"/>
<path d="M97.8022 2.41602C95.9497 3.27101 94.0022 4.44267 92.9414 5.1235C93.3214 5.29767 93.7014 5.44016 94.2239 5.6935C96.5672 4.11017 98.4039 3.14434 99.1322 2.82768C98.6097 2.63768 98.1189 2.51102 97.8022 2.41602Z" fill="#012169"/>
<path d="M106.273 2.13137C106.7 1.98887 107.191 1.8622 107.618 1.73554C106.383 1.21304 104.832 0.658878 103.438 0.310547C103.217 0.37388 102.552 0.548045 102.093 0.690545C102.568 0.833044 104.135 1.19721 106.273 2.13137ZM98.4668 8.08467C98.9735 8.3855 99.5118 8.79716 100.034 9.14549C103.502 6.45384 106.922 4.37969 110.674 3.20803C110.152 2.93886 109.693 2.70137 109.107 2.41637C106.858 2.98636 103.011 4.52219 98.4668 8.08467Z" fill="#E31837"/>
<path d="M0 10.9043H2.53332C3.81581 10.9043 4.41747 10.2393 4.41747 9.3051C4.41747 8.54511 4.02164 8.03845 3.19832 7.88011C3.92664 7.70595 4.25914 7.26262 4.25914 6.61345C4.25914 5.79013 3.65748 5.12513 2.37499 5.12513H0.0158332V10.9043H0ZM2.20082 8.45011C2.67582 8.45011 3.00832 8.68761 3.00832 9.16261C3.00832 9.66927 2.69165 9.8751 2.20082 9.8751H1.37749V8.43428H2.20082V8.45011ZM2.04249 6.13846C2.51749 6.13846 2.84998 6.34429 2.84998 6.81929C2.84998 7.29428 2.53332 7.50012 2.04249 7.50012H1.37749V6.13846H2.04249ZM9.53161 5.1093H8.10662L5.93747 10.9043H7.37829L7.77412 9.70094H9.86411L10.2599 10.9043H11.7166L9.53161 5.1093ZM8.81912 6.50262L9.49995 8.64011H8.10662L8.81912 6.50262ZM18.9366 5.1093H17.6224V8.98844L15.1524 5.1093H13.6799V10.9043H14.9941V7.04095L17.4641 10.9043H18.9366V5.1093ZM25.0007 10.9043L23.1007 7.95928V10.9043H21.6915V5.1093H23.1007V7.89595L24.9057 5.1093H26.4732L24.5732 7.89595L26.6473 10.9043H25.0007ZM31.6348 8.00678C31.6348 9.16261 32.3315 9.8751 33.234 9.8751C34.1365 9.8751 34.8331 9.16261 34.8331 8.00678C34.8331 6.85095 34.1365 6.13846 33.234 6.13846C32.3315 6.13846 31.6348 6.85095 31.6348 8.00678ZM30.1465 8.00678C30.1623 6.31262 31.3498 4.98263 33.234 4.98263C35.1181 4.98263 36.3056 6.31262 36.3215 8.00678C36.3056 9.70094 35.1181 11.0309 33.234 11.0309C31.3498 11.0309 30.1623 9.70094 30.1465 8.00678ZM38.2531 10.9043H39.6623V8.62428H41.4989V7.51595H39.6623V6.21762H41.8789L42.1323 5.1093H38.2531V10.9043ZM48.7031 5.1093H47.2781L45.1089 10.9043H46.5497L46.9456 9.70094H49.0356L49.4314 10.9043H50.888L48.7031 5.1093ZM47.9906 6.50262L48.6714 8.64011H47.2781L47.9906 6.50262ZM59.248 5.1093H57.6013L56.0972 8.24428L54.593 5.1093H52.9464V10.9043H54.213V7.02512L56.0813 10.9043L57.9497 7.02512V10.9043H59.2638L59.248 5.1093ZM61.9871 10.9043H65.9455V9.79594H63.3963V8.49761H65.4071V7.42095H63.3963V6.21762H65.7238L65.9771 5.1093H61.9871V10.9043ZM71.3129 10.9043H72.8487L71.4079 8.45011C72.1996 8.22844 72.5796 7.67428 72.5796 6.86679C72.5796 5.82179 71.9463 5.12513 70.5213 5.12513H68.2888V10.9201H69.6663V8.64011H70.0463L71.3129 10.9043ZM70.2521 6.18596C70.8379 6.18596 71.1388 6.43929 71.1388 6.93012C71.1388 7.42095 70.8379 7.67428 70.2521 7.67428H69.6504V6.18596H70.2521ZM74.9546 10.9043H76.3637V5.12513H74.9546V10.9043ZM83.2987 9.3526C82.7604 9.7326 82.2854 9.85927 81.7945 9.85927C80.7179 9.85927 79.9579 9.11511 79.9579 8.00678C79.9579 6.89845 80.702 6.15429 81.747 6.15429C82.222 6.15429 82.697 6.28096 83.2195 6.66095V5.34679C82.7445 5.07763 82.1904 4.9668 81.5729 4.9668C79.657 4.9668 78.4537 6.29679 78.4379 7.99095C78.4537 9.70094 79.6254 11.0151 81.5729 11.0151C82.222 11.0151 82.7762 10.9043 83.2829 10.6351V9.3526H83.2987ZM88.4603 5.1093H87.0353L84.8662 10.9043H86.307L86.7028 9.70094H88.7928L89.1887 10.9043H90.6453L88.4603 5.1093ZM87.7478 6.50262L88.4287 8.64011H87.0353L87.7478 6.50262Z" fill="#012169"/>
</svg>
