<svg width="70" height="70" viewBox="0 0 70 70" fill="none" xmlns="http://www.w3.org/2000/svg">
<path d="M0 70H70V0H0V70Z" fill="#B31E30"/>
<path d="M25.2282 22.0326V25.4724H26.0149C27.0078 25.4724 27.4581 24.9895 27.4581 23.6386V23.427H28.6138V28.7657H27.4581V28.5378C27.4581 27.1977 27.0078 26.6877 26.0149 26.6877H25.2282V30.5344H28.5269C30.0298 30.5344 30.5724 29.5415 30.7514 27.6426H31.9505V31.7605H21.1157V30.5344H22.0326C22.6023 30.5344 22.9061 30.377 22.9061 29.3842V22.9658C22.9061 22.2496 22.5806 22.0326 21.8156 22.0326H21.4792C20.6925 22.0326 20.3182 22.2171 20.0415 23.0363L17.052 31.7605H14.7787L13.048 26.0746H13.0155L11.0948 31.7605H8.79439L5.69101 22.6186C5.55531 22.1682 5.32206 22.0326 4.69271 22.0326H4.46484V20.8119H9.25014V22.0326H8.55568C8.19217 22.0326 8.04568 22.2496 8.04568 22.4666C8.04568 22.6294 8.1054 22.8356 8.19217 23.0634L10.2647 29.1726H10.2972L12.2721 23.427L11.9954 22.6457C11.8272 22.1574 11.4963 22.0326 11.0134 22.0326H10.6228V20.8119H15.5654V22.0326H14.6919C14.3555 22.0326 14.2253 22.1791 14.2253 22.3961C14.2253 22.5643 14.3067 22.7976 14.361 22.9549L16.1731 29.0641H16.2056L18.3107 23.096C18.3759 22.9007 18.4354 22.7379 18.4354 22.5317C18.4354 22.2713 18.3107 22.0326 17.7301 22.0326H16.9326V20.8119H31.9504V24.5555H30.7188C30.4692 22.9712 30.3282 22.0326 28.1308 22.0326H25.2282ZM43.2247 31.7605V27.6426H41.9605C41.7923 29.5252 41.4505 30.5344 39.7361 30.5344H37.2458V22.7922C37.2458 22.1845 37.4953 22.0326 38.2223 22.0326H39.1501V20.8119H33.1007V22.0326H34.0556C34.7175 22.0326 34.9399 22.2496 34.9399 22.7488V29.8019C34.9399 30.377 34.6252 30.5344 34.1586 30.5344H33.1007V31.7605H43.2247ZM54.4609 31.7605V27.6426H53.1913C53.0231 29.5252 52.6705 30.5344 50.9777 30.5344H48.482V22.7922C48.482 22.1845 48.7316 22.0326 49.4586 22.0326H50.3809V20.8119H44.326V22.0326H45.2864C45.9537 22.0326 46.1762 22.2496 46.1762 22.7488V29.8019C46.1762 30.377 45.8561 30.5344 45.3949 30.5344H44.326V31.7605H54.4609ZM62.7945 21.6365C62.6914 21.5335 61.6823 20.4863 59.7128 20.4863C57.6457 20.4863 55.5569 21.5335 55.5569 23.7796C55.5569 25.8142 57.1791 26.7419 59.0455 27.1434C59.664 27.2736 60.0329 27.3442 60.5972 27.4635C61.997 27.7619 62.9301 28.1851 62.9301 29.1563C62.9301 29.8942 62.1489 30.6863 60.6026 30.6863C58.4432 30.6863 57.1628 29.4818 56.897 27.6426H55.6274V31.7605H56.7505L57.114 30.7785C57.3798 31.0118 58.4324 32.0861 60.4344 32.0861C62.9844 32.0861 64.9105 30.9521 64.9105 28.7114C64.9105 26.5412 63.1146 25.608 60.9227 25.1685C60.5321 25.0709 60.174 25.0112 59.7725 24.919C58.4107 24.626 57.5372 24.2896 57.5372 23.313C57.5372 22.4666 58.4324 21.8861 59.7779 21.8861C61.8016 21.8861 62.5829 23.172 63.0007 24.5555H64.2323V20.8119H63.3425L62.7945 21.6365ZM12.5434 48.8292V47.5976H11.7187C10.9537 47.5976 10.6716 47.3698 10.6716 46.7512V43.7672H11.3498C12.3752 43.7672 12.8201 44.2121 12.8201 45.3732V45.7367H13.9703V40.6964H12.8201V40.9134C12.8201 41.7652 12.5108 42.5465 11.4474 42.5465H10.6716V39.0958H12.8255C15.2507 39.0958 15.5057 40.3166 15.6685 41.6133H16.8512V37.8751H6.48852V39.0958H7.58447C8.07819 39.0958 8.35489 39.3183 8.35489 39.7144V46.7892C8.35489 47.2504 8.10532 47.5976 7.51936 47.5976H6.48852V48.8292H12.5434ZM58.3944 37.5441C54.8027 37.5441 52.4264 40.0562 52.4264 43.3494C52.4264 46.6373 54.8027 49.171 58.3944 49.171C61.9753 49.171 64.3571 46.6373 64.3571 43.3494C64.3571 40.0562 61.9753 37.5441 58.3944 37.5441ZM58.3944 38.8354C60.9878 38.8354 61.7637 40.9893 61.7637 43.3494C61.7637 45.7095 60.9878 47.8689 58.3944 47.8689C55.7847 47.8689 55.0143 45.7095 55.0143 43.3494C55.0143 40.9893 55.7847 38.8354 58.3944 38.8354ZM48.2921 38.7703C48.0534 38.5587 47.028 37.5442 45.0042 37.5442C41.7652 37.5442 39.7306 40.0128 39.7306 43.3495C39.7306 46.7133 41.7978 49.171 45.0042 49.171C47.0659 49.171 48.1836 48.227 48.4386 47.9937L49.0517 48.8292H50.1748V45.0314C50.1748 44.3857 50.4135 44.2121 51.0537 44.2121H51.3575V42.9859H46.3009V44.2121H47.0497C47.5922 44.2121 47.9232 44.4563 47.9232 44.988V45.6282C47.9232 46.8815 47.1527 47.755 45.4763 47.755C43.3766 47.755 42.324 45.8669 42.324 43.3495C42.324 40.87 43.3766 38.9711 45.4111 38.9711C47.5325 38.9711 48.2541 40.946 48.4983 41.6133H49.8546V37.8751H48.699L48.2921 38.7703ZM39.1827 46.2575V46.5559C39.1827 48.444 38.282 49.171 36.9148 49.171C35.3143 49.171 34.7771 48.4006 34.7771 46.9086V46.3389C34.7771 44.4563 33.9742 43.6967 32.1404 43.6967H31.2723V47.0063C31.2723 47.4457 31.473 47.5976 31.9505 47.5976H33.1549V48.8292H22.2171V47.5976H23.4324C23.7688 47.5976 23.8936 47.5163 23.8936 47.3209C23.8936 47.2178 23.8611 47.0497 23.7959 46.8706C23.7362 46.7241 23.2208 45.3135 23.2208 45.3135H19.3145C19.3145 45.3135 18.8316 46.6156 18.7502 46.8326C18.6959 46.9954 18.6526 47.131 18.6526 47.2884C18.6526 47.5217 18.8479 47.5976 19.1734 47.5976H20.3345V48.8292H15.1802V47.5976C16.0537 47.5976 16.6071 47.4729 16.9164 46.7078L20.4104 37.8751H22.5101L26.0909 46.7078C26.3893 47.4837 26.9536 47.5976 27.8271 47.5976H28.272C28.744 47.5976 28.9556 47.4457 28.9556 47.0063V39.6927C28.9556 39.2532 28.7874 39.0958 28.272 39.0958H27.1218V37.8751H34.316C36.7032 37.8751 37.8263 39.0036 37.8263 40.7127C37.8263 42.834 35.7158 43.2518 34.7284 43.3061V43.3332C35.884 43.42 36.8606 43.8974 36.8606 45.5848V46.225C36.8606 47.3481 37.0993 47.5976 37.4954 47.5976C37.886 47.5976 38.0922 47.2884 38.0922 46.5559V46.2575H39.1827ZM22.7705 44.0982L21.2947 40.1104H21.246L19.7702 44.0982H22.7705ZM35.5259 40.7832C35.5259 39.8229 34.8368 39.0958 33.3068 39.0958H31.2723V42.4759H33.3068C34.7175 42.4759 35.5259 41.8412 35.5259 40.7832Z" fill="#FFCC02"/>
</svg>
